<svg width="211" height="281" viewBox="0 0 211 281" fill="none" xmlns="http://www.w3.org/2000/svg">
<path d="M0.478516 0.619629H157.497L210.479 52.4501V280.62H0.478516V0.619629Z" fill="#B1B4B6"/>
<path d="M10.5088 10.6548H155.309L201.157 54.9936V270.662H10.5088V10.6548Z" fill="white"/>
<path d="M152.751 0.645996L210.335 57.8493L152.752 57.8494L152.751 0.645996Z" fill="#B1B4B6"/>
<path d="M161.17 16.3433L195.009 49.9585L161.171 49.9585L161.17 16.3433Z" fill="white"/>
<path fill-rule="evenodd" clip-rule="evenodd" d="M102.455 79.2771C102.455 79.2771 100.542 79.3213 99.217 80.6463C97.8921 81.9713 98.0401 84.0087 98.0401 84.0087V220.958H130.443V200.908H142.675V220.958H178.089V84.0087C178.089 84.0087 178.119 81.4613 177.015 80.3577C175.911 79.254 173.643 79.2771 173.643 79.2771H102.455ZM118.392 89.0629H105.833V102.23H118.392V89.0629ZM105.833 110.266H118.392V123.434H105.833V110.266ZM118.392 131.47H105.833V144.637H118.392V131.47ZM105.833 152.673H118.392V165.841H105.833V152.673ZM118.392 173.877H105.833V187.044H118.392V173.877ZM130.065 89.0629H142.625V102.23H130.065V89.0629ZM142.625 110.266H130.065V123.434H142.625V110.266ZM130.065 131.47H142.625V144.637H130.065V131.47ZM142.625 152.673H130.065V165.841H142.625V152.673ZM130.065 173.877H142.625V187.044H130.065V173.877ZM167.449 89.0629H154.89V102.23H167.449V89.0629ZM154.89 110.266H167.449V123.434H154.89V110.266ZM167.449 131.47H154.89V144.637H167.449V131.47ZM154.89 152.673H167.449V165.841H154.89V152.673ZM167.449 173.877H154.89V187.044H167.449V173.877Z" fill="#B1B4B6"/>
<path d="M125.789 185.319L75.9648 135.624L84.0655 239.391H114.47V197.853H121.18C121.18 197.853 126 197.853 127.647 193.401C129.294 188.949 125.789 185.319 125.789 185.319Z" fill="white"/>
<path d="M75.8294 145.317C77.9148 145.317 80.8163 148.379 80.8163 148.379L119.259 185.209C119.259 185.209 123.053 188.396 122.229 190.913C121.405 193.429 117.342 193.077 117.342 193.077H109.536V235.085H85.4819V216.214H67.6741V235.085H40.8295V193.077H34.7146C34.7146 193.077 30.3284 193.591 29.5169 190.913C28.7053 188.235 32.3996 185.209 32.3996 185.209L70.8425 148.379C70.8425 148.379 73.744 145.317 75.8294 145.317Z" fill="#B1B4B6"/>
</svg>
