<svg width="726" height="195" viewBox="0 0 726 195" fill="none" xmlns="http://www.w3.org/2000/svg">
<g clip-path="url(#clip0_3124_19612)">
<path d="M726.536 136.892C720.373 137.172 714.209 137.224 708.045 137.227C681.952 137.236 655.86 137.231 629.767 137.231C628.698 137.231 627.629 137.231 626.13 137.231C626.13 91.9414 626.13 46.7613 626.424 1.3326C659.991 1.07982 693.264 1.07555 726.536 1.07129C726.536 46.2611 726.536 91.4508 726.536 136.892ZM657.585 24.3468C651.092 24.3468 644.598 24.3468 638.123 24.3468C638.123 28.3811 638.123 32.0699 638.123 35.9877C648.562 35.9877 658.798 35.9877 669.281 35.9877C669.281 62.2322 669.281 88.2419 669.281 114.406C673.59 114.406 677.65 114.406 682.029 114.406C682.029 88.2056 682.029 62.1291 682.029 35.8668C692.595 35.8668 702.845 35.8668 713.22 35.8668C713.22 31.9868 713.22 28.2973 713.22 24.3471C694.721 24.3471 676.421 24.3471 657.585 24.3468Z" fill="black"/>
<path d="M264.778 195.536C263.386 195.184 262.247 194.789 261.083 194.489C252.521 192.28 246.858 185.372 246.788 177.02C246.719 168.775 252.394 161.537 260.911 159.399C268.308 157.542 275.398 158.329 281.363 163.457C291.981 172.584 288.609 189.291 275.299 193.874C273.461 194.507 271.485 194.744 269.469 195.35C267.917 195.536 266.469 195.536 264.778 195.536ZM266.986 166.113C266.106 166.238 265.21 166.296 264.349 166.499C258.99 167.762 255.926 171.686 256.034 177.096C256.142 182.516 259.545 186.592 264.69 187.468C270.594 188.472 275.621 186.047 277.585 181.25C280.643 173.782 276 166.851 266.986 166.113Z" fill="black"/>
<path d="M411.802 195.536C408.836 194.588 405.941 193.961 403.418 192.63C396.29 188.869 392.74 181.712 393.909 174.204C395.043 166.916 401.203 160.569 408.736 159.141C416.935 157.587 424.493 158.834 430.25 165.382C434.849 170.615 436.021 176.814 433.385 183.329C430.607 190.195 425.108 193.789 417.919 194.986C417.481 195.059 417.039 195.107 416.494 195.351C414.942 195.536 413.493 195.536 411.802 195.536ZM418.024 166.679C413.832 165.607 409.861 165.909 406.47 168.855C402.956 171.908 401.997 177.474 404.084 181.847C406.173 186.222 411.264 188.47 416.823 187.471C421.557 186.62 424.733 183.156 425.372 178.147C426.021 173.054 423.512 168.96 418.024 166.679Z" fill="black"/>
<path d="M128.485 195.536C125.441 194.532 122.461 193.857 119.87 192.461C112.932 188.723 109.376 181.36 110.629 174.123C111.917 166.683 118.01 160.498 125.561 159.119C133.902 157.596 141.498 158.936 147.217 165.739C151.58 170.931 152.628 176.98 150.085 183.292C147.311 190.176 141.81 193.786 134.604 194.986C134.166 195.059 133.722 195.107 133.177 195.351C131.624 195.536 130.176 195.536 128.485 195.536ZM119.667 177.02C119.733 177.639 119.746 178.27 119.874 178.876C121.259 185.453 127.099 188.987 133.903 187.382C139.96 185.953 143.228 180.32 141.682 173.971C140.421 168.791 135.822 165.763 129.828 166.168C123.956 166.563 120.325 170.279 119.667 177.02Z" fill="black"/>
<path d="M494.976 195.536C493.587 195.177 492.455 194.772 491.296 194.465C482.645 192.178 476.788 184.717 477.117 176.371C477.452 167.884 483.906 160.698 492.655 159.067C499.357 157.818 505.727 158.61 511.134 162.967C516.975 167.674 519.38 173.928 517.423 181.283C515.295 189.282 509.502 193.426 501.605 194.961C501.169 195.046 500.726 195.094 500.192 195.348C498.472 195.536 496.845 195.536 494.976 195.536ZM506.177 184.169C511.665 176.99 508.366 167.896 499.686 166.278C493.773 165.177 488.002 168.587 486.741 173.928C485.282 180.105 488.202 185.717 493.986 187.168C498.297 188.249 502.51 187.861 506.177 184.169Z" fill="black"/>
<path d="M587.802 195.536C586.225 195.184 584.892 194.816 583.552 194.482C574.438 192.204 568.607 185.091 568.859 176.547C569.118 167.793 575.313 160.886 584.532 159.135C590.446 158.012 596.241 158.573 601.95 160.429C603.833 161.041 605.061 161.849 604.696 164.167C604.45 165.73 604.649 167.363 604.649 169.029C601.309 168.154 598.124 167.05 594.846 166.548C592.344 166.164 589.673 166.234 587.166 166.644C581.565 167.559 578.082 172.052 578.277 177.612C578.463 182.898 582.38 186.903 588.032 187.49C589.446 187.637 590.893 187.65 592.311 187.545C596.066 187.268 596.463 186.724 595.995 182.631C595.281 182.58 594.519 182.505 593.755 182.476C593.055 182.449 592.352 182.47 591.439 182.47C591.439 180.206 591.439 178.13 591.439 175.875C595.931 175.875 600.438 175.875 605.269 175.875C605.269 180.5 605.331 185.105 605.201 189.704C605.181 190.381 604.377 191.402 603.715 191.634C600.048 192.918 596.313 194.007 592.496 195.35C590.941 195.536 589.493 195.536 587.802 195.536Z" fill="black"/>
<path d="M540.587 195.536C539.279 195.2 538.232 194.8 537.152 194.54C530.335 192.901 526.255 188.764 525.847 181.751C525.414 174.31 525.75 166.824 525.75 159.232C528.632 159.232 531.442 159.232 534.524 159.232C534.524 165.652 534.518 171.956 534.525 178.259C534.533 184.793 537.888 187.957 544.394 187.584C549.127 187.312 552.17 184.226 552.209 179.492C552.263 172.819 552.223 166.145 552.223 159.29C555.214 159.29 558.031 159.29 561.132 159.29C561.174 159.916 561.266 160.675 561.267 161.434C561.28 167.051 561.274 172.669 561.274 178.286C561.275 188.929 557.079 193.702 546.34 195.349C544.44 195.536 542.637 195.536 540.587 195.536Z" fill="black"/>
<path d="M1.06894 137.136C1.06894 137.136 0.802898 137.154 0.669705 137.148C0.536511 91.6071 0.536511 46.0714 0.821456 0.68457C1.11517 0.932991 1.12395 1.0325 1.10889 1.37804C1.07969 46.7949 1.07431 91.9656 1.06894 137.136Z" fill="black"/>
<path d="M500.383 0.535645C500.636 0.63389 500.637 0.732137 500.359 0.956882C484.103 1.07817 468.126 1.07476 452.149 1.06736C424.838 1.05473 397.526 1.0396 370.214 1.02552C370.214 1.02552 370.199 0.778778 370.222 0.657212C413.54 0.535645 456.836 0.535645 500.383 0.535645Z" fill="black"/>
<path d="M118.06 1.08053C118.047 0.989952 118.034 0.899377 118.035 0.672223C157.946 0.535644 197.843 0.535645 237.992 0.535645C238.244 0.535645 238.319 0.774291 238.048 0.918282C197.871 1.06836 157.966 1.07444 118.06 1.08053Z" fill="black"/>
<path d="M251.134 1.08091C251.121 0.990278 251.107 0.899647 251.108 0.672331C286.369 0.535645 321.616 0.535645 357.114 0.535645C357.376 0.630181 357.386 0.724718 357.118 0.949216C321.604 1.07975 286.369 1.08033 251.134 1.08091Z" fill="black"/>
<path d="M1.13281 1.13199C1.12404 1.03249 1.11527 0.932978 1.08984 0.684558C35.6047 0.535645 70.1363 0.535645 104.919 0.535645C105.171 0.535645 105.246 0.77401 104.975 0.917765C91.7687 1.06349 78.8332 1.05911 65.8977 1.06887C44.3094 1.08515 22.7211 1.11048 1.13281 1.13199Z" fill="black"/>
<path d="M513.027 1.10769C513.008 1.01333 512.988 0.91897 512.972 0.680128C546.255 0.535645 579.535 0.535645 613.066 0.535645C613.317 0.535645 613.389 0.772899 613.119 0.915959C579.575 1.07524 546.301 1.09146 513.027 1.10769Z" fill="black"/>
<path d="M726.536 0.803422C693.264 1.07554 659.992 1.07981 626.469 1.08592C626.202 0.996341 626.185 0.904902 626.181 0.674514C659.642 0.535565 693.089 0.535565 726.536 0.803422Z" fill="black"/>
<path d="M370.126 1.26781C397.526 1.0399 424.837 1.05502 452.149 1.06766C468.126 1.07505 484.103 1.07847 500.326 1.10087C500.593 12.9916 500.627 24.8651 500.63 36.7386C500.638 69.1479 500.633 101.557 500.632 133.966C500.632 134.936 500.632 135.906 500.632 137.053C457.065 137.053 413.669 137.053 370.039 137.053C370.039 91.8196 370.039 46.6647 370.126 1.26781ZM392.186 112.354C391.297 113.709 391.958 114.467 393.282 114.504C396.917 114.604 400.557 114.538 404.526 114.538C404.526 91.41 404.526 68.5607 404.526 45.1093C405.566 46.219 406.173 46.8281 406.737 47.4747C413.191 54.8728 419.641 62.2743 426.086 69.6794C438.627 84.0864 451.157 98.5024 463.724 112.887C464.328 113.578 465.217 114.43 466.014 114.474C469.281 114.653 472.564 114.549 475.902 114.549C475.902 84.3532 475.902 54.4934 475.902 24.4812C471.958 24.4812 468.156 24.4812 463.977 24.4812C463.977 47.6104 463.977 70.6102 463.977 94.2843C462.004 92.0593 460.523 90.4067 459.06 88.7383C440.76 67.865 422.469 46.9843 404.142 26.1342C403.484 25.385 402.508 24.4573 401.648 24.4234C398.542 24.3008 395.422 24.5252 391.966 24.9227C391.88 25.7097 391.719 26.4967 391.718 27.2837C391.705 54.6672 391.703 82.0507 391.729 109.434C391.729 110.275 392.045 111.116 392.186 112.354Z" fill="black"/>
<path d="M118.017 1.32813C157.966 1.07473 197.871 1.06865 238.031 1.04248C238.348 2.44238 238.467 3.86236 238.467 5.28236C238.479 48.298 238.48 91.3137 238.476 134.329C238.476 135.2 238.402 136.071 238.356 137.083C198.219 137.083 158.226 137.083 117.974 137.083C117.974 91.837 117.974 46.7062 118.017 1.32813ZM181.088 23.8716C178.765 23.8459 176.432 23.6841 174.126 23.8677C173.309 23.9327 172.149 24.6634 171.838 25.3869C159.383 54.3677 147.006 83.382 134.632 112.397C134.368 113.016 134.245 113.694 133.993 114.565C137.755 114.565 141.234 114.476 144.706 114.604C146.338 114.663 147.05 114.02 147.649 112.585C150.77 105.101 154.06 97.6872 157.141 90.1873C157.854 88.4502 158.677 87.7893 160.612 87.8071C171.874 87.9106 183.137 87.9097 194.399 87.8169C196.197 87.8021 197.056 88.335 197.776 89.9747C201.109 97.5628 204.57 105.095 208.039 112.622C208.374 113.349 209.056 114.435 209.613 114.457C213.568 114.617 217.532 114.542 221.796 114.542C221.333 113.387 221.065 112.65 220.747 111.935C212.423 93.198 204.112 74.4547 195.756 55.7317C191.037 45.1577 186.242 34.6177 181.088 23.8716Z" fill="black"/>
<path d="M513.004 1.35578C546.301 1.09169 579.575 1.07546 613.103 1.03906C613.443 1.89204 613.607 2.76516 613.607 3.63835C613.622 46.3013 613.624 88.9643 613.626 131.627C613.627 133.4 613.626 135.173 613.626 137.086C580.034 137.086 546.646 137.086 512.98 137.086C512.98 91.8758 512.98 46.7397 513.004 1.35578ZM556.183 102.855C554.342 102.855 552.5 102.855 550.674 102.855C550.674 93.3513 550.674 84.1948 550.674 74.6942C562.997 74.6942 575.184 74.6942 587.435 74.6942C587.435 70.7247 587.435 67.1014 587.435 63.1969C575.122 63.1969 562.932 63.1969 550.699 63.1969C550.699 53.959 550.699 45.0044 550.699 35.8703C563.444 35.8703 576.021 35.8703 588.743 35.8703C588.743 31.9942 588.743 28.3002 588.743 24.5382C571.638 24.5382 554.721 24.5382 537.805 24.5382C537.805 54.586 537.805 84.4437 537.805 114.305C555.304 114.305 572.655 114.305 590.018 114.305C590.018 110.413 590.018 106.784 590.018 102.855C578.828 102.855 567.772 102.855 556.183 102.855Z" fill="black"/>
<path d="M251.091 1.3284C286.369 1.08052 321.604 1.07994 357.089 1.0891C357.378 2.52415 357.451 3.94946 357.451 5.37478C357.458 48.3055 357.457 91.2363 357.458 134.167C357.458 135.051 357.458 135.934 357.458 137.024C321.975 137.024 286.646 137.024 251.047 137.024C251.047 91.8436 251.047 46.7097 251.091 1.3284ZM328.331 94.0752C323.208 85.8417 318.206 77.5114 309.962 71.6891C317.284 67.7394 320.447 64.8264 322.589 60.1509C328.19 47.93 324.53 29.1341 304.31 25.3546C298.148 24.2027 291.691 24.5679 285.364 24.3706C281.188 24.2403 277.004 24.3459 272.788 24.3459C272.788 54.5582 272.788 84.4794 272.788 114.407C277.065 114.407 281.138 114.407 285.485 114.407C285.485 101.36 285.485 88.4648 285.485 75.6227C293.523 74.2153 300.037 76.3512 305.097 82.4928C306.799 84.5583 308.6 86.5681 310.079 88.7865C315.376 96.7271 320.539 104.757 325.805 112.718C326.291 113.454 327.13 114.447 327.834 114.472C332.422 114.63 337.018 114.553 341.874 114.553C337.259 107.595 332.889 101.006 328.331 94.0752Z" fill="black"/>
<path d="M1.10875 1.37793C22.7209 1.11039 44.3092 1.08506 65.8975 1.06878C78.833 1.05902 91.7685 1.0634 104.958 1.0415C105.299 2.96936 105.462 4.91711 105.462 6.86492C105.479 49.3382 105.477 91.8114 105.478 134.285C105.479 135.161 105.478 136.036 105.478 137.228C70.6758 137.228 36.1208 137.228 1.31735 137.182C1.07417 91.9655 1.07954 46.7948 1.10875 1.37793ZM77.9148 37.7156C73.7687 29.369 66.5091 25.444 57.7 24.7452C48.9892 24.0541 40.2014 24.3277 31.4472 24.1887C29.7773 24.1622 28.1066 24.1849 26.3272 24.1849C26.3272 54.3759 26.3272 84.2424 26.3272 114.195C26.8648 114.277 27.2941 114.4 27.7234 114.4C38.2727 114.411 48.8322 114.68 59.3664 114.283C63.919 114.112 68.634 113.127 72.8992 111.519C81.927 108.114 87.357 101.375 87.9195 91.5844C88.494 81.5857 83.8619 74.2564 74.9537 69.7542C72.3928 68.46 69.5575 67.707 66.7225 66.6595C67.1157 66.4373 67.4118 66.2542 67.7213 66.0974C79.1599 60.2999 82.9715 50.0063 77.9148 37.7156Z" fill="black"/>
<path d="M295.562 191.707C295.562 180.764 295.562 170.078 295.562 159.109C298.162 159.109 300.564 158.954 302.929 159.189C303.814 159.277 304.764 160.135 305.421 160.875C310.519 166.613 315.55 172.408 320.607 178.182C321.114 178.761 321.651 179.314 322.627 180.369C322.627 172.979 322.627 166.189 322.627 159.255C325.759 159.255 328.569 159.255 331.544 159.255C331.544 171.025 331.544 182.745 331.544 194.563C327.325 195.078 323.78 195.168 320.724 191.059C316.001 184.708 310.463 178.963 304.73 172.336C304.73 180.156 304.73 187.263 304.73 194.573C301.522 194.573 298.721 194.573 295.691 194.573C295.647 193.685 295.605 192.824 295.562 191.707Z" fill="black"/>
<path d="M170.276 174.459C169.698 173.806 169.249 173.295 168.327 172.244C168.327 180.065 168.327 187.221 168.327 194.575C165.209 194.575 162.408 194.575 159.439 194.575C159.439 182.8 159.439 171.076 159.439 159.114C161.93 159.114 164.335 158.982 166.711 159.187C167.509 159.256 168.373 160.06 168.97 160.735C174.585 167.082 180.148 173.474 186.223 180.422C186.223 173.013 186.223 166.254 186.223 159.302C189.402 159.302 192.204 159.302 195.206 159.302C195.206 170.972 195.206 182.7 195.206 194.553C191.092 195.092 187.501 195.235 184.467 191.114C180.191 185.308 175.131 180.077 170.276 174.459Z" fill="black"/>
<path d="M234.715 163.689C243.083 172.381 242.188 186.093 232.593 191.561C229.188 193.5 224.871 194.216 220.878 194.657C216.199 195.175 211.417 194.841 206.684 194.725C206.001 194.709 204.757 193.852 204.753 193.374C204.643 182.06 204.667 170.744 204.667 158.771C212.347 159.13 219.818 159.194 227.212 159.979C229.764 160.25 232.126 162.315 234.715 163.689ZM230.72 179.935C232.348 169.271 226.106 164.157 214.035 166.027C214.035 173.287 214.035 180.554 214.035 187.792C223.044 189.304 228.121 187.009 230.72 179.935Z" fill="black"/>
<path d="M359.145 194.784C358.357 194.286 357.353 193.795 357.349 193.297C357.26 181.987 357.281 170.676 357.281 159.604C364.009 159.604 370.513 159.287 376.967 159.722C380.9 159.988 383.595 162.682 384.424 166.721C385.169 170.347 383.343 172.856 380.424 174.933C380.706 175.168 380.919 175.429 381.194 175.563C385.864 177.844 387.968 181.369 387.24 185.723C386.41 190.68 383.218 194.073 378.148 194.411C371.917 194.828 365.648 194.687 359.145 194.784ZM366.252 180.528C366.252 182.996 366.252 185.463 366.252 187.94C369.018 187.94 371.526 188.135 373.987 187.882C376.211 187.652 377.846 186.421 377.738 183.841C377.633 181.295 375.927 180.184 373.715 180.019C371.333 179.84 368.921 180.068 366.252 180.528ZM368.891 165.608C368.045 165.663 367.2 165.717 366.325 165.773C366.325 168.291 366.325 170.56 366.325 173.038C368.312 173.038 370.165 173.172 371.99 173.001C373.868 172.826 375.074 171.686 375.224 169.724C375.374 167.763 374.415 166.502 372.509 166.059C371.481 165.821 370.412 165.755 368.891 165.608Z" fill="black"/>
<path d="M650.262 192.166C650.462 194.009 650.071 194.94 648.146 194.812C645.937 194.665 643.71 194.778 641.196 194.778C641.196 189.971 641.196 185.383 641.196 180.629C635.223 180.629 629.547 180.629 623.611 180.629C623.611 185.212 623.611 189.815 623.611 194.602C620.466 194.602 617.578 194.602 614.58 194.602C614.58 182.757 614.58 171.101 614.58 159.274C617.49 159.274 620.309 159.274 623.448 159.274C623.448 163.786 623.448 168.372 623.448 173.111C629.434 173.111 635.103 173.111 641.027 173.111C641.027 168.489 641.027 163.972 641.027 159.281C644.17 159.281 647.063 159.281 650.262 159.281C650.262 170.196 650.262 181.056 650.262 192.166Z" fill="black"/>
<path d="M460.765 187.712C459.836 185.963 459.091 184.333 458.129 182.843C456.65 180.552 454.466 179.961 451.574 180.609C451.574 185.248 451.574 189.843 451.574 194.605C448.463 194.605 445.659 194.605 442.723 194.605C442.723 182.815 442.723 171.147 442.723 159.38C449.011 159.38 455.34 159.015 461.602 159.506C465.903 159.844 469.016 162.726 469.954 167.101C470.91 171.553 469.425 175.193 465.317 177.544C465.092 177.672 464.926 177.902 465.447 177.751C468.267 183.241 471.087 188.732 474.186 194.766C470.673 194.766 467.772 194.846 464.883 194.699C464.307 194.669 463.58 193.874 463.261 193.258C462.364 191.519 461.643 189.689 460.765 187.712ZM457.013 165.829C455.272 165.829 453.53 165.829 451.655 165.829C451.655 168.431 451.655 170.941 451.655 173.597C453.5 173.597 455.18 173.669 456.851 173.58C459.042 173.462 460.632 172.401 460.864 170.112C461.107 167.712 459.907 166.248 457.013 165.829Z" fill="black"/>
<path d="M88.6321 188.094C94.3298 188.105 99.7678 188.105 105.422 188.105C105.422 190.305 105.422 192.305 105.422 194.555C96.551 194.555 87.5964 194.555 78.4419 194.555C78.4419 182.861 78.4419 171.146 78.4419 159.266C81.3105 159.266 84.2031 159.266 87.3927 159.266C87.3927 163.414 87.3928 167.49 87.3927 171.566C87.3925 176.294 87.3477 181.022 87.436 185.748C87.4506 186.532 88.0456 187.305 88.6321 188.094Z" fill="black"/>
<path d="M392.136 24.7705C392.309 53.5671 392.31 82.5156 392.263 111.711C392.045 111.116 391.729 110.275 391.728 109.434C391.703 82.0505 391.705 54.667 391.718 27.2835C391.718 26.4965 391.879 25.7095 392.136 24.7705Z" fill="black"/>
<path d="M167.313 66.3303C170.469 58.6636 173.559 51.1911 176.797 43.3604C181.736 54.4448 186.508 65.1535 191.4 76.1321C181.858 76.1321 172.792 76.1321 163.274 76.1321C164.681 72.728 165.964 69.6263 167.313 66.3303Z" fill="black"/>
<path d="M299.917 35.8356C308.097 37.4292 311.815 41.9135 311.676 49.7735C311.546 57.0748 307.181 62.1839 299.698 63.1664C295.129 63.7663 290.476 63.727 285.646 63.9863C285.646 54.3041 285.646 44.9989 285.646 35.1855C290.33 35.3921 295.01 35.5985 299.917 35.8356Z" fill="black"/>
<path d="M70.5861 78.9739C78.1604 86.8988 75.1491 98.4537 64.7802 101.633C62.5853 102.306 60.2336 102.721 57.9421 102.779C51.7889 102.934 45.6292 102.832 39.2803 102.832C39.2803 93.3894 39.2803 84.0799 39.2803 73.9863C47.5029 74.5083 55.6708 74.8186 63.781 75.6738C66.0862 75.9169 68.2235 77.7465 70.5861 78.9739Z" fill="black"/>
<path d="M66.771 47.7481C66.664 56.8241 62.3674 61.633 53.1167 62.5508C48.6181 62.9971 44.0384 62.6279 39.2905 62.6279C39.2905 53.9173 39.2905 45.0576 39.2905 35.3955C45.6421 35.8683 52.0463 35.8971 58.279 36.9436C63.7505 37.8623 66.4168 41.9888 66.771 47.7481Z" fill="black"/>
</g>
<defs>
<clipPath id="clip0_3124_19612">
<rect width="726" height="195" fill="white"/>
</clipPath>
</defs>
</svg>
