<svg xmlns="http://www.w3.org/2000/svg" width="148" viewBox="0 0 350 75" fill="none">
  <path fill="#fff" d="M89.703 13.971h8.137c4.494 0 6.316 2.357 6.316 4.95 0 2.222-1.21 3.65-2.582 4.217 1.323.476 3.17 1.856 3.17 4.5 0 3.455-2.693 5.79-6.653 5.79h-8.397V13.97h.009Zm7.67 7.81c2.274 0 3.169-.953 3.169-2.504 0-1.543-1.121-2.447-2.977-2.447H93.3v4.95h4.072ZM93.3 30.55h4.128c2.332 0 3.599-1.008 3.599-3.003 0-1.744-1.155-2.891-3.792-2.891h-3.928v5.895H93.3Zm25.598-1.348c0 1.407 0 3.06.032 4.216h-3.394c-.056-.394-.081-1.212-.112-1.825-.815 1.485-2.139 2.164-4.099 2.164-2.782 0-4.799-1.6-4.799-5.338v-9.443h3.485v8.74c0 1.687.507 3.15 2.467 3.15 2.105 0 2.953-1.155 2.953-4.24v-7.65h3.483v10.226h-.016Zm14.904-.363c-.531 2.415-2.216 4.918-6.313 4.918-4.325 0-6.678-3.038-6.678-7.48 0-4.19 2.499-7.648 6.879-7.648 4.605 0 6.01 3.32 6.122 5.033h-3.428c-.281-1.294-1.041-2.246-2.782-2.246-2.08 0-3.226 1.8-3.226 4.75 0 3.149 1.177 4.836 3.201 4.836 1.517 0 2.356-.871 2.782-2.163h3.446-.003Zm5.058-3.514c1.122-1.438 3.453-4.046 5.444-6.356h4.042l-5.163 5.509 5.669 8.94h-3.984l-4.041-6.687-1.964 1.88v4.807h-3.487V12.872h3.484v12.454Zm10.549-12.454h3.485v3.4h-3.484l-.001-3.4Zm0 6.098h3.485v14.449h-3.484V18.972l-.001-.002Zm6.234 3.626c0-1.236 0-2.527-.031-3.626h3.371c.081.395.138 1.575.138 2.027.507-1.01 1.685-2.36 4.3-2.36 2.837 0 4.798 1.859 4.798 5.566v9.225h-3.485v-8.831c0-1.8-.645-3.094-2.555-3.094-2.05 0-3.058 1.325-3.058 3.992v7.931h-3.485V22.594h.007v.002Zm27.988 9.223c0 4.637-1.798 7.481-6.993 7.481-4.968 0-6.122-2.788-6.291-4.524h3.541c.337 1.18 1.267 1.912 2.888 1.912 2.838 0 3.425-1.743 3.425-4.747v-.84c-.755 1.373-1.989 2.188-4.209 2.188-3.701 0-5.976-3.037-5.976-7.06 0-4.578 2.726-7.591 6.291-7.591 2.582 0 3.655 1.211 3.903 1.972.033-.478.113-1.374.137-1.63h3.316c-.023 1.12-.023 2.752-.023 4.158v8.681h-.009Zm-6.678-1.38c2.637 0 3.37-1.826 3.37-4.5 0-2.728-.563-4.466-3.283-4.466-2.047 0-3.425 1.631-3.425 4.612 0 2.674 1.37 4.354 3.338 4.354Zm12.824-17.567v7.956c.67-1.067 1.878-2.19 4.266-2.19 2.556 0 4.832 1.487 4.832 5.54v9.25h-3.453v-8.715c0-2.085-.783-3.206-2.613-3.206-2.354 0-3.032 1.687-3.032 4.158v7.763h-3.485v-20.55h3.485v-.008.002Zm23.22 17.01c0 1.348.114 3.173.194 3.537h-3.34c-.113-.306-.193-1.041-.225-1.575-.509.871-1.548 1.914-4.187 1.914-3.45 0-4.911-2.278-4.911-4.5 0-3.263 2.614-4.781 6.847-4.781h2.185v-.985c0-1.121-.361-2.3-2.523-2.3-1.912 0-2.3.872-2.5 1.937h-3.341c.196-2.357 1.688-4.523 5.978-4.499 3.759.025 5.814 1.52 5.814 4.894v6.356h.009v.002Zm-3.396-3.206h-1.887c-2.558 0-3.676.758-3.676 2.389 0 1.181.78 2.141 2.331 2.141 2.862 0 3.225-1.97 3.225-4.102v-.43h.007v.002Zm6.113-3.992c0-1.236 0-2.503-.031-3.707h3.339c.055.364.111 1.27.145 1.883.702-1.155 1.911-2.222 4.073-2.222 2.048 0 3.282 1.067 3.815 2.334.814-1.235 2.105-2.334 4.492-2.334 2.468 0 4.572 1.487 4.572 5.316v9.474h-3.426v-9.056c0-1.437-.508-2.89-2.356-2.89-1.91 0-2.693 1.348-2.693 3.683v8.263h-3.428v-8.944c0-1.6-.42-2.981-2.3-2.981-1.878 0-2.749 1.294-2.749 3.877v8.044h-3.453v-10.74Zm25.27 6.463c.339 1.292 1.346 2.025 3 2.025 1.685 0 2.331-.645 2.331-1.653 0-1.1-.646-1.551-2.919-2.11-4.518-1.097-5.308-2.503-5.308-4.498 0-2.108 1.484-4.273 5.612-4.273 4.156 0 5.67 2.302 5.816 4.305h-3.338c-.139-.679-.621-1.8-2.614-1.8-1.572 0-2.048.735-2.048 1.485 0 .816.508 1.237 2.943 1.826 4.662 1.065 5.421 2.674 5.421 4.806 0 2.415-1.88 4.5-6.009 4.5-4.187 0-5.976-2.053-6.315-4.613h3.428Zm13.919-16.275v7.956c.671-1.067 1.88-2.19 4.267-2.19 2.558 0 4.831 1.487 4.831 5.54v9.25h-3.452v-8.715c0-2.085-.78-3.206-2.613-3.206-2.362 0-3.033 1.687-3.033 4.158v7.763h-3.482v-20.55h3.482v-.008.002Zm11.792 0h3.485v3.4h-3.485v-3.4Zm0 6.098h3.485v14.449h-3.485V18.97Zm6.205 3.91c0-1.632 0-2.843-.034-3.91h3.426c.057.337.082 1.687.082 2.674.677-1.744 2.274-2.982 4.717-3.006v3.377c-2.918-.032-4.717 1.008-4.717 4.862v6.55h-3.484V22.88h.01Zm11.903 4.045c0 2.164 1.096 4.047 3.258 4.047 1.856 0 2.443-.848 2.838-1.769h3.509c-.531 1.8-2.104 4.557-6.461 4.557-4.66 0-6.653-3.604-6.653-7.369 0-4.464 2.274-7.76 6.823-7.76 4.855 0 6.484 3.626 6.484 7.059 0 .476 0 .815-.056 1.235h-9.742Zm6.282-2.222c-.033-1.938-.87-3.511-2.999-3.511-2.14 0-3.002 1.462-3.203 3.511h6.202Zm-185.269 33.01c-.814 3.514-3.45 6.075-8.137 6.075-6.032 0-8.951-4.361-8.951-9.894 0-5.314 2.975-10.097 9.12-10.097 4.943 0 7.437 2.893 7.968 6.155h-3.645c-.507-1.712-1.685-3.23-4.467-3.23-3.736 0-5.219 3.375-5.219 7.06 0 3.455 1.348 7.115 5.33 7.115 2.839 0 3.849-1.802 4.356-3.175h3.645v-.01Zm15.051-1.436c0 4.305-2.524 7.591-7.05 7.591-4.379 0-6.935-3.206-6.935-7.537 0-4.384 2.612-7.59 7.106-7.59 4.184 0 6.879 3.011 6.879 7.536Zm-10.444.022c0 2.925 1.321 4.781 3.482 4.781 2.187 0 3.396-1.824 3.396-4.747 0-3.118-1.209-4.806-3.45-4.806-2.138 0-3.428 1.631-3.428 4.772Zm24.591 3.013c0 1.406 0 3.062.032 4.217h-3.396c-.057-.396-.081-1.211-.113-1.826-.814 1.487-2.136 2.165-4.097 2.165-2.782 0-4.799-1.599-4.799-5.34v-9.45h3.483v8.75c0 1.687.51 3.15 2.469 3.15 2.105 0 2.951-1.156 2.951-4.25v-7.65h3.485v10.234h-.015Zm2.749-6.605c0-1.238 0-2.53-.032-3.627h3.369c.084.394.14 1.575.14 2.025.508-1.008 1.685-2.364 4.298-2.364 2.839 0 4.799 1.856 4.799 5.563v9.225h-3.483v-8.827c0-1.802-.648-3.094-2.557-3.094-2.051 0-3.057 1.324-3.057 3.99v7.931h-3.482V52.707h.005Zm27.366 6.242c-.531 2.415-2.219 4.92-6.316 4.92-4.323 0-6.675-3.038-6.675-7.482 0-4.19 2.499-7.646 6.879-7.646 4.605 0 6.007 3.319 6.121 5.03h-3.428c-.282-1.291-1.041-2.253-2.784-2.253-2.079 0-3.223 1.802-3.223 4.75 0 3.15 1.174 4.837 3.201 4.837 1.516 0 2.353-.872 2.782-2.164h3.443v.008Zm1.661-15.968h3.484v3.401h-3.482l-.002-3.401Zm0 6.1h3.484v14.448h-3.482V49.08l-.002.001Zm9.687-6.1h-3.484v20.548h3.483l.001-20.548ZM37.447.878C16.945.878.064 17.734 0 38.256l1.968.01C2.048 19.792 16.372 4.696 34.51 3.421a35.388 35.388 0 0 1 2.936-.122c19.35 0 35.036 15.71 35.036 35.085 0 11.397-5.428 21.518-13.824 27.92a34.852 34.852 0 0 1-21.202 7.158h-.034v.049c-1.032-.025-2.629-.17-2.646-.953-.015-.647.476-1.172.951-1.543.637-.5 1.388-.857 2.131-1.172.71-.305 1.434-.581 2.168-.84.236-.068.456-.183.646-.337a.828.828 0 0 0 .188-1.003c-.212-.389-.656-.614-1.043-.784-1.573-.67-9.235-.533-10.193-.516h-.098c.032.008 8.782.984 8.79 1.519.018.54-6.257 1.768-6.37 5.668-.033 1.06 1.12 1.39 1.564 1.543 1.541.525 2.227.743 3.824.784h.91a27.426 27.426 0 0 0 3.67-.266c18.47-2.237 32.987-18.165 32.987-37.227C74.894 17.81 57.989.878 37.447.878Z"/>
  <path fill="#fff" d="m35.706 52.44 1.217-.566S23.89 38.046 1.92 41.44l-1.807.2a37.539 37.539 0 0 0 9.05 20.572 37.452 37.452 0 0 0 19.17 11.697l.58-2.344C15.923 68.36 5.986 57.983 3.14 45.141c3.782-.833 16.477-2.505 32.568 7.3h-.002Z"/>
  <path fill="#fff" d="M70.323 34.928c-.066-.103-.075-.338-.01-.418.225-.276.169-.518-.015-.75-.177-.22-.307-.447-.29-.752.008-.113-.075-.3-.163-.34-.314-.16-.305-.436-.297-.734.007-.203-.073-.42-.032-.615.12-.599-.556-.565-.678-.975-.017-.059-.13-.083-.202-.115-.015-.01-.049 0-.064-.01-.28-.127-.573-.232-.848-.393-.193-.113-.347-.283-.524-.43-.242-.58-.266-.598-.734-.573-.306-.589-.556-.049-.837.066-.056-.081-.09-.195-.163-.235-.217-.131-.242-.566-.571-.476-.283.071-.485.064-.605-.244-.024-.056-.105-.096-.163-.13-.241-.136-.483-.265-.79-.434-.434.137-.959.29-1.378.427-.251-.007-.493-.088-.558-.015a8.64 8.64 0 0 0-.749 1.114c-.161.266-.661.364-.856.154-.178.08-.337.202-.507.225-.217.034-.283.146-.37.34-.113.258-.267.6-.486.678-.451.178-.387.712-.734.97-.112.08-.153.258-.2.444.063.031.152.056.16.097.113.413.791.379.677.977-.04.193.034.413.034.613-.01.3-.017.574.305.735.09.049.168.225.163.34-.017.307.12.524.29.742.185.235.241.478.015.752-.064.08-.056.315.01.42.2.34.458.647.111 1.067-.065.08-.031.259-.048.412-.273-.056-.37.088-.37.355 0 .073-.057.185-.113.21-.363.153-.315.493-.348.798-.015.122-.064.291-.137.34.178.225.436.468.814.225.056-.038.276.05.3.114.112.43 1.29 1.382 1.66 1.365.574-.024 1.13-.371 1.718-.12-.032 1.106-.088 2.73-.162 3.456a5.96 5.96 0 0 1-.314 1.455c-2.927-.113-6.443.056-10.073.918a2.883 2.883 0 0 1-.193-.806c-.073-.8-.112-2.649-.137-3.707.064 0 .144-.024.217-.032.161-.009 1.017.047 1.307-.121l.12.243c.22.03.42-.009.524.087.178.153.283.138.444 0 .097-.08.251-.105.37-.162.106-.039.276-.063.3-.144.113-.371.476-.38.703-.566.136-.113.249-.259.37-.388.056-.057.096-.137.169-.17.483-.202.734-.548.678-1.113-.025-.234.031-.42.273-.525.01 0 .01-.01.017-.01.073-.056.121-.224.136-.337.042-.307-.007-.647.349-.8.056-.025.112-.137.112-.21 0-.267.096-.404.37-.357.018-.16-.016-.33.05-.412.337-.41.08-.718-.122-1.065-.064-.105-.073-.338-.008-.42.225-.274.169-.517-.017-.75-.168-.22-.305-.437-.29-.745.01-.112-.073-.3-.168-.337-.315-.163-.307-.437-.3-.737 0-.2-.071-.42-.032-.613.113-.598-.556-.566-.678-.977-.015-.049-.097-.073-.16-.097-.008-.008-.025-.008-.032-.017-.017-.008-.049 0-.066-.008-.28-.13-.57-.234-.846-.393-.193-.115-.347-.286-.524-.432-.244-.58-.266-.596-.734-.572-.307-.588-.556-.048-.84.064-.055-.08-.087-.193-.16-.232-.217-.132-.234-.567-.564-.478-.282.075-.485.065-.606-.242-.023-.057-.105-.098-.161-.13-.242-.137-.491-.266-.79-.435-.435.137-.96.29-1.379.428-.25-.008-.492-.09-.558-.017a8.69 8.69 0 0 0-.749 1.116c-.162.266-.67.361-.855.153-.178.081-.337.201-.508.225-.219.032-.282.147-.37.34-.113.258-.268.598-.485.678-.452.179-.395.711-.734.97-.193.144-.186.557-.322.816a.975.975 0 0 1-.412.395c-.3.146-.378.266-.266.606.032.112.097.225.088.331-.049.372-.137.743-.185 1.114-.008.025-.008.056-.008.08-.088.607-.178 1.212-.225 1.82-.018.232.056.483.12.718.105.379.346 1.309.541 1.309.281 0 .515.039.362.468.363.032.548.233.767.501.186.232.46.686.937.379.031-.017.095-.008.159.017.065.022.13.063.138.095.112.43 1.29 1.382 1.661 1.365.412-.015 1.46-.202 2.178-.274-.032 1.09-.089 2.963-.169 3.763a6.6 6.6 0 0 1-.21 1.131 28.177 28.177 0 0 0-3.299 1.187c-2.155.943-4.29 1.931-6.403 2.964-.146-.307-.3-.815-.38-1.68-.064-.686-.105-2.317-.12-3.181.152-.008.88.04 1.12-.105.056.105.097.178.104.21.188.024.363-.008.453.073.152.13.242.112.386 0 .09-.073.22-.09.324-.137.088-.034.242-.056.257-.122.104-.308.412-.315.604-.476.113-.098.21-.22.324-.323.049-.049.088-.122.145-.139.419-.168.636-.459.59-.928-.025-.195.024-.347.233-.437.073-.032.113-.193.13-.3.031-.257-.01-.54.297-.669.049-.024.098-.12.098-.176 0-.227.08-.34.322-.29.016-.14-.017-.276.04-.35.257-.305.12-.54-.04-.783-.056-.015-.113-.032-.137-.015-.412.249-.655-.13-.807-.315-.185-.225-.347-.396-.661-.42.13-.357-.066-.389-.315-.389-.168 0-.38-.783-.468-1.098-.056-.193-.121-.403-.105-.606.05-.508.122-1.009.203-1.519-.01-.007-.017-.007-.025-.007-.168-.088-.307-.244-.45-.364-.212-.484-.227-.5-.637-.476-.268-.493-.478-.04-.727.056-.049-.071-.08-.161-.138-.193-.193-.105-.2-.469-.491-.405-.244.056-.42.056-.524-.2-.017-.05-.09-.081-.139-.106-.21-.112-.42-.224-.685-.363-.378.112-.831.25-1.193.356-.219-.01-.429-.083-.485-.01-.241.291-.451.606-.653.93-.137.226-.573.306-.742.13-.153.064-.29.169-.444.185-.192.023-.243.12-.322.282-.097.22-.224.5-.411.574-.394.146-.337.598-.637.808-.168.122-.161.459-.28.686a.806.806 0 0 1-.366.332c-.258.12-.33.225-.234.5.034.089.09.194.075.274-.041.315-.114.623-.163.938a26.88 26.88 0 0 0-.21 1.582c-.017.195.049.405.105.606.088.315.3 1.098.468 1.098.25 0 .444.032.315.389.314.031.475.193.66.42.162.193.403.573.806.315.05-.032.243.039.26.097.096.356 1.12 1.155 1.442 1.138.404-.017 1.501-.21 2.106-.243-.032.898-.073 2.536-.146 3.224-.129 1.276-.402 2.091-.62 2.55-8.395 4.193-16.269 8.725-16.269 8.725h1.929c2-1.123 14.275-6.986 22.936-8.998 8.664-2.012 20.608-.881 20.608-.881l1.282-4.257s-2.241-.588-5.654-.862a5.328 5.328 0 0 1-.386-1.609c-.073-.782-.112-2.591-.137-3.656.133.012.263.044.386.094.08.033.178-.016.275-.023.161-.01.363-.08.476-.01.307.203.548.057.831-.112l.12.251c.21.032.412-.009.524.081.178.154.283.137.444 0 .105-.08.25-.105.37-.161.106-.042.276-.066.3-.146.113-.372.476-.38.7-.565.14-.112.251-.258.373-.388.056-.056.096-.137.169-.169.485-.202.734-.551.678-1.115-.025-.235.031-.413.273-.525.082-.042.138-.225.153-.357.042-.305-.007-.645.347-.798.056-.025.112-.137.112-.21 0-.267.1-.404.373-.357.016-.16-.017-.33.048-.412.322-.403.064-.709-.136-1.05ZM37.48 23.758c-.032-.063-.379-.07-.564-.136a3.13 3.13 0 0 1-.453-.332s-.096-.08-.13-.08c-.039 0-.329.477-.256.541.071.056.29.088.571.088.251.01.646.034.8 0 .032-.024.048-.049.032-.08Z"/>
  <path fill="#fff" d="M35.972 23.903c-.024-.047-.041-.103-.056-.152a1.351 1.351 0 0 0-.024-.088 1.36 1.36 0 0 0-.315-.388.152.152 0 0 1-.056.015c-.075.01-.131-.023-.139-.064-.007-.049.049-.088.122-.097a.13.13 0 0 1 .112.031l.541-.16a1.541 1.541 0 0 0-.677-.106c-.427.025-.856.235-1.146.405a.286.286 0 0 1-.08.015c-.25.041-4.687.478-4.985.42-.305-.056-1.822-.379-1.928-.62-.104-.235 1.113-3.231 1.203-3.41.427-.92.886-2.229.886-2.229s.63-2.972.131-3.093c-.1-.025-.331.945-.58 1.115-.227.152-.293-.873-.59-.622-.163.137-.131 1.074-.324.75-.573-.96-.476.356-.605.453-.976.711-1.814 1.551-1.985 1.881-.412.671-1.329 3.24-1.516 3.233-.393-.01-3.885-3.788-4.129-3.943-.234-.162-1.902-2.164-2.21-3.844-.08-.437-.46-.428-.321 1.777.015.274-.79-1.106-.895-.647-.122.533.393 1.034.217 1.446-.032.08-.637-.274-.637.008 0 2.263 2.49 7.198 4.363 7.908 1.872.71-3.024 1.43-3.275 1.534-.249.105-.434.379-.105.452.712.112-.056.542.21.727.137.032.29.04.38.137.088.13-.268.59-.122.655.145.063 2.266-.679 3.122-.777.419-.047 1.75.3 2.88 0 1.128-.298 3.53-1.695 4.04-1.783.507-.09 7.194-.6 7.194-.6.59.056 1.323-.12 1.484-.168-.056.009-.13-.057-.187-.17l.002-.001Z"/>
</svg>
