<svg width="227" height="65" viewBox="0 0 227 65" fill="none" xmlns="http://www.w3.org/2000/svg">
<path fill-rule="evenodd" clip-rule="evenodd" d="M74.1047 60.2391L72.5946 57.7502C70.9778 59.4672 68.4624 60.6955 65.1919 60.6955C59.8732 60.6955 55.9558 56.9435 55.9558 51.2633C55.9558 45.5824 59.837 41.8317 65.1919 41.8317C68.6416 41.8317 71.4094 43.5839 72.3792 44.7769L73.8536 42.0419C72.4879 40.7447 69.6839 38.8511 65.0489 38.8511C57.9329 38.8511 52.3618 43.7954 52.3618 51.3333C52.3618 58.8713 57.7886 63.815 65.0121 63.815C69.7201 63.815 72.5597 61.9225 74.1047 60.2391ZM93.2596 55.1194C93.2596 49.9661 89.306 46.4244 84.2389 46.4244C79.1355 46.4244 75.1831 49.9661 75.1831 55.1194C75.1831 60.3092 79.1355 63.7802 84.2389 63.7802C89.306 63.7802 93.2596 60.3092 93.2596 55.1194ZM89.7737 55.0152C89.7737 58.3108 87.6529 60.9057 84.2389 60.9057C80.7886 60.9057 78.669 58.3108 78.669 55.0152C78.669 51.7543 80.7886 49.1582 84.2389 49.1582C87.6529 49.1582 89.7737 51.7543 89.7737 55.0152ZM110.582 63.3946V46.7053H107.131V55.6458C107.131 58.4503 105.911 60.9757 102.89 60.9757C99.8361 60.9757 99.3334 58.8359 99.3334 56.5573V46.7053H95.9193V56.698C95.9193 60.835 97.1764 63.7802 101.921 63.7802C104.329 63.7802 106.268 62.6232 107.204 61.0111L107.24 63.3946H110.582ZM129.377 63.3946V53.5419C129.377 49.5445 128.12 46.4244 123.268 46.4244C120.788 46.4244 118.955 47.7221 118.057 49.3696H117.949L117.985 46.7406H114.535V63.3946H117.985V55.0152C117.985 51.8232 119.171 49.1941 122.37 49.1941C125.424 49.1941 125.927 51.298 125.927 54.1037V63.3946H129.377ZM147.49 61.256L146.267 58.8012C146.267 58.8012 144.399 60.9057 141.056 60.9057C137.75 60.9057 135.523 58.4856 135.523 54.9798C135.523 51.4728 138.037 49.2295 141.056 49.2295C144.076 49.2295 145.584 50.7027 146.159 51.2633L147.382 48.8079C147.201 48.5983 145.333 46.4244 140.769 46.4244C136.241 46.4244 132.036 49.7206 132.036 55.0852C132.036 60.414 136.061 63.7802 140.662 63.7802C145.225 63.7802 146.987 61.7465 147.49 61.256ZM154.426 41.2699C154.426 40.0782 153.49 39.2014 152.196 39.2014C150.867 39.2014 149.933 40.0782 149.933 41.2699C149.933 42.4629 150.867 43.339 152.196 43.339C153.49 43.339 154.426 42.4629 154.426 41.2699ZM150.472 63.3952H153.922V46.7406H150.472V63.3952ZM158.198 63.3946H161.612V39.2014H158.198V63.3946Z" fill="black"/>
<mask id="mask0_2394_9367" style="mask-type:luminance" maskUnits="userSpaceOnUse" x="52" y="6" width="174" height="26">
<path d="M52.0386 6.48584H225.723V31.4156H52.0386V6.48584Z" fill="white"/>
</mask>
<g mask="url(#mask0_2394_9367)">
<path fill-rule="evenodd" clip-rule="evenodd" d="M75.9735 27.2774V17.2493H65.0843V21.5618H70.2956V25.1382C70.2956 25.1382 69.1447 26.6815 65.1205 26.6815C61.0951 26.6815 57.9326 23.8411 57.9326 18.9321C57.9326 14.0238 61.0232 11.184 65.0118 11.184C68.3903 11.184 70.3319 12.8321 71.3741 13.9531L75.2185 10.6929C74.4285 9.85148 71.589 6.48584 65.0118 6.48584C58.0769 6.48584 52.0381 10.8684 52.0381 18.9321C52.0381 26.9971 58.0769 31.4156 64.94 31.4156C71.7682 31.4156 74.7158 28.365 75.9735 27.2774ZM95.8828 31.0293V21.2815C95.8828 15.6719 92.6836 13.4279 87.1494 13.4279C83.8433 13.4279 81.0756 14.4448 79.5668 15.1802L81.0756 18.8267C81.9748 18.2662 84.2386 17.2847 86.5024 17.2847C88.803 17.2847 90.1325 18.2309 90.1325 20.055V20.4407L85.6762 20.6156C82.4051 20.7563 78.7756 22.0535 78.7756 25.9096C78.7756 29.7663 82.0816 31.4156 85.2084 31.4156C88.0842 31.4156 89.5205 29.9424 90.2756 29.2058L90.3842 31.0293H95.8828ZM90.1675 23.4207V26.2605C89.8091 26.8564 88.7668 27.8379 87.2212 27.8379C85.64 27.8379 84.5259 27.0325 84.5259 25.7C84.5259 24.4028 85.5682 23.6662 87.3292 23.5961L90.1675 23.4207ZM109.61 18.0213V13.7789H105.692V9.08014H99.9064V13.7789H97.3916V18.0213H99.9064V24.7178C99.9064 28.6799 100.878 31.4156 105.477 31.4156C107.562 31.4156 109.143 30.9593 109.574 30.8538L109.287 26.4707C109.287 26.4707 108.46 26.7857 107.562 26.7857C105.8 26.7857 105.692 25.7353 105.692 24.2267V18.0213H109.61ZM129.124 21.8774C129.124 16.8295 125.494 13.4279 120.247 13.4279C115 13.4279 110.688 16.6888 110.688 22.4038C110.688 28.1182 114.676 31.4156 120.139 31.4156C125.638 31.4156 127.973 29.0309 128.549 28.6099L126.285 25.7C125.279 26.3659 123.266 27.3481 120.966 27.3481C118.63 27.3481 116.69 26.2252 116.437 23.7363H129.052C129.052 23.7363 129.124 22.7194 129.124 21.8774ZM123.77 20.5449H116.473C116.545 18.8974 117.767 17.0745 120.139 17.0745C122.547 17.0745 123.734 18.9675 123.77 20.5449ZM144.9 25.7C144.9 21.8774 141.702 20.9659 138.648 20.0898C137.425 19.7394 136.059 19.3184 136.059 18.4069C136.059 17.4955 136.814 17.1451 138.18 17.1451C139.618 17.1451 141.63 18.056 142.637 18.8267L144.506 15.5312C143.5 14.7251 141.415 13.3926 137.714 13.3926C134.011 13.3926 130.992 15.4617 130.992 18.8267C130.992 22.4038 133.581 23.4207 136.527 24.1561C137.173 24.3675 139.762 24.928 139.762 26.0503C139.762 27.172 138.756 27.5223 137.318 27.5223C135.88 27.5223 133.508 26.6115 132.071 25.4197L129.915 28.7506C131.928 30.6083 134.73 31.4156 137.39 31.4156C141.055 31.4156 144.9 29.837 144.9 25.7ZM164.738 31.0293V20.8252C164.738 16.6181 163.409 13.4279 158.27 13.4279C155.646 13.4279 153.957 14.6897 153.058 16.2324C153.058 16.2324 153.095 14.3394 153.095 12.5859V6.83617H147.344V31.0293H153.095V22.5433C153.095 19.9844 153.849 18.0213 156.257 18.0213C158.665 18.0213 158.952 19.8436 158.952 21.9474V31.0293H164.738ZM185.367 21.8774C185.367 16.8295 181.736 13.4279 176.49 13.4279C171.242 13.4279 166.93 16.6888 166.93 22.4038C166.93 28.1182 170.919 31.4156 176.382 31.4156C181.88 31.4156 184.216 29.0309 184.791 28.6099L182.527 25.7C181.521 26.3659 179.509 27.3481 177.209 27.3481C174.873 27.3481 172.931 26.2252 172.68 23.7363H185.295C185.295 23.7363 185.367 22.7194 185.367 21.8774ZM180.011 20.5449H172.716C172.789 18.8974 174.01 17.0745 176.382 17.0745C178.789 17.0745 179.977 18.9675 180.011 20.5449ZM203.874 31.0293V21.2815C203.874 15.6719 200.675 13.4279 195.142 13.4279C191.834 13.4279 189.067 14.4448 187.558 15.1802L189.067 18.8267C189.966 18.2662 192.23 17.2847 194.495 17.2847C196.795 17.2847 198.124 18.2309 198.124 20.055V20.4407L193.667 20.6156C190.398 20.7563 186.767 22.0535 186.767 25.9096C186.767 29.7663 190.074 31.4156 193.2 31.4156C196.076 31.4156 197.513 29.9424 198.267 29.2058L198.375 31.0293H203.874ZM198.16 23.4207V26.2605C197.801 26.8564 196.758 27.8379 195.212 27.8379C193.632 27.8379 192.518 27.0325 192.518 25.7C192.518 24.4028 193.56 23.6662 195.321 23.5961L198.16 23.4207ZM225.723 31.0293V6.83617H219.973V15.8468C219.399 15.0054 217.602 13.4279 214.368 13.4279C209.228 13.4279 205.994 17.3194 205.994 22.4038C205.994 27.4876 209.228 31.4156 214.368 31.4156C216.74 31.4156 218.859 30.5382 220.189 28.7847L220.297 28.7506L220.261 31.0293H225.723ZM220.154 22.3337C220.154 24.9987 218.5 26.821 216.021 26.821C213.541 26.821 211.852 24.9987 211.852 22.3337C211.852 19.6688 213.541 17.8452 216.021 17.8452C218.5 17.8452 220.154 19.6688 220.154 22.3337Z" fill="black"/>
</g>
<path d="M42.5695 29.4507C41.4089 25.4597 41.7479 23.9599 42.0475 21.4315C42.1358 20.6909 42.4654 19.0052 42.4418 17.6837C42.4181 16.3621 42.5238 14.2225 41.2086 11.6615C39.5465 8.41879 36.9415 7.34357 35.8329 6.9516C34.3317 6.41708 30.3436 5.48905 28.9748 5.18848C23.5534 4.00016 22.5095 2 22.5095 2C22.5095 2 21.4718 4.00016 16.0441 5.18848C14.6753 5.48905 10.6825 6.41708 9.18604 6.9516C8.08219 7.34357 5.47238 8.41879 3.81031 11.6615C2.49515 14.2225 2.59923 16.3606 2.57715 17.6837C2.55508 19.0068 2.88308 20.6909 2.97138 21.4315C3.271 23.9599 3.61162 25.4597 2.44942 29.4507L2 31H43L42.5695 29.4507ZM36 18L23 16.3156L10 18V14.648L23 12L36 14.648V18ZM2 35V61.6372L4.39274 64L6.77445 61.6372V58.4493H11.0584V61.6372L13.4511 64L15.8328 61.6372V58.4493H20.1167V61.6372L22.5095 64L24.888 61.6372V58.4493H29.1703V61.6372L31.5647 64L33.9448 61.6372V58.4493H38.2271V61.6372L40.6199 64L43 61.6372V35H2ZM11 54H7V49H11V54ZM11 44H7V39H11V44ZM20 54H16V49H20V54ZM20 44H16V39H20V44ZM29 54H25V49H29V54ZM29 44H25V39H29V44ZM38 54H34V49H38V54ZM38 44H34V39H38V44Z" fill="black"/>
</svg>
