<svg width="320" height="113" viewBox="0 0 320 113" xmlns="http://www.w3.org/2000/svg"><path d="M9.274 65.764v38.888h16c0 .407-.612 7.025-.612 7.432H.306V66.782c.407 0 8.56-.916 8.968-1.018m33.121 10.587c-2.854 0-7.032.51-9.784 1.018 0 .306-.815 6.617-.917 7.228 2.65-.61 6.217-1.527 9.478-1.527 3.873 0 7.847.713 8.764 6.007v.305l-6.42-.102c-7.643 0-15.389 3.97-15.389 11.504 0 10.282 10.6 11.809 17.02 11.809 4.585 0 8.458-.306 13.452-1.018V92.64c0-10.69-5.605-16.289-16.204-16.289zm7.541 29.116c-1.12.101-2.547.305-3.974.305-5.81 0-8.663-2.036-8.663-4.886 0-2.24 2.242-4.683 7.134-4.683 2.038 0 3.873.102 5.503.102v9.162zm39.44-26.672c3.26-1.527 7.337-2.444 11.006-2.444 10.09 0 15.898 5.294 15.898 14.456v21.379h-8.662V91.113c0-4.683-2.956-7.432-7.745-7.432-2.344 0-4.077.713-5.402 1.222l-.203.102v.203c.305 1.324.407 3.156.407 4.276v22.803h-8.662V89.79c0-4.174-2.242-6.108-6.93-6.108-2.038 0-3.77.305-5.81.814h-.203v27.69h-8.662v-33.9c3.567-.916 9.07-1.934 14.777-1.934 4.688 0 7.541 1.222 9.987 2.444l.102.101m44.229-2.546c-1.12 0-1.936 0-3.16.102h-.203V61.285c-.408.101-8.255.916-8.662.916v48.661c3.872 1.12 7.44 1.629 11.312 1.629 13.35 0 21.401-7.228 21.401-19.342 0-7.737-5.401-16.798-20.688-16.798zm.204 28.81c-1.325 0-2.14-.102-3.363-.305h-.204V83.885h.204c1.02-.102 1.63-.102 2.65-.102 7.541 0 12.33 3.868 12.33 9.875 0 7.024-4.483 11.503-11.617 11.503zm57.376-9.976c0-11.81-5.81-18.834-15.593-18.834-10.293 0-17.426 7.228-17.426 17.714 0 13.03 10.598 18.935 20.382 18.935 3.363 0 6.93-.407 9.681-.916 0-.306.816-7.33.918-7.94-3.67 1.22-7.032 1.832-10.09 1.832-6.624 0-11.516-3.97-12.025-9.671V96.1h24.153c-.102-.306 0-.916 0-.916zm-23.542-5.6l.102-.305c.918-3.563 3.873-5.904 7.44-5.904 3.465 0 5.91 2.138 6.624 6.006l.102.305c0-.101-14.268-.101-14.268-.101zm37.299-21.276v8.857h11.924c0 .407-.305 6.311-.305 6.719H204.84V98.85c0 5.904 5.095 6.617 7.337 6.617 1.121 0 2.039-.102 4.994-.713-.102.61-1.02 6.923-1.121 7.228-2.038.407-3.363.509-4.79.509-3.567 0-15.185-.916-15.185-12.827v-30.54c.51.101 8.357-.713 8.765-.815m25.377-6.923v19.14l.407-.306c2.14-1.629 5.401-3.767 9.682-3.767 7.643 0 12.535 4.785 12.535 12.115v23.516h-8.663V89.993c0-4.072-1.936-6.312-5.605-6.312-3.057 0-6.318 2.24-8.255 4.276l-.101.102v24.025h-8.765V62.303c.306 0 8.255-.917 8.765-.917m67.77-48.457c-19.567 19.342-37.095 25.043-49.325 22.905-16.51-2.85-28.535-7.126-62.879.713 14.166-13.845 26.905-17.917 35.771-16.492 12.23 2.036 21.096 5.294 46.777-.713L253.554 6.617c-16.713 15.678-28.739 13.54-32.102 13.03-3.669-.508-24.356-6.006-51.669 3.462 10.905-10.69 20.688-13.845 27.516-12.725 9.376 1.629 16.204 4.072 35.873-.51L221.86.205c-12.84 12.012-22.013 10.383-24.56 9.976-2.752-.407-18.854-4.683-39.848 2.749l47.49 40.822c22.829-20.97 39.236-18.12 43.72-17.51 4.994.713 33.427 8.246 70.727-4.886" fill="#000" fill-rule="evenodd"/></svg>