<svg width="364" height="75" viewBox="0 0 364 75" fill="none" xmlns="http://www.w3.org/2000/svg">
<g clip-path="url(#clip0_3520_18757)">
<path d="M131.14 89.9681C131.031 91.0605 131.905 92.0437 132.997 92.0437H133.325C134.855 92.0437 135.619 91.279 135.619 89.8588C135.619 89.0941 135.182 88.4387 134.527 88.0017L132.561 86.5816C131.905 86.0354 131.468 85.2707 131.468 84.3967C131.468 83.0858 132.124 81.7749 133.216 81.0102C134.308 80.1363 135.619 79.5901 137.039 79.5901C138.787 79.5901 139.661 80.027 139.661 80.7917C139.661 81.3379 139.224 81.8841 138.46 82.3211C138.023 81.4472 137.039 81.0102 136.056 81.0102C134.745 81.0102 134.09 81.5564 134.09 82.7581C134.09 83.0858 134.199 83.3043 134.418 83.632C135.292 84.506 136.275 85.2707 137.258 86.0354C137.913 86.6908 138.35 87.5647 138.35 88.4387C138.35 89.8588 137.695 91.279 136.493 92.1529C135.292 93.1361 133.871 93.6823 132.342 93.6823C131.577 93.6823 130.813 93.5731 130.157 93.2453C129.502 92.9176 129.174 92.5899 129.174 92.1529C129.283 91.1697 129.939 90.5143 131.14 89.9681ZM142.939 88.7664C142.939 89.2034 142.829 89.5311 142.829 89.8588C142.829 91.1697 143.375 91.8252 144.468 91.8252C145.779 91.7159 146.98 91.1697 147.854 90.2958C147.964 90.5143 148.073 90.7328 148.073 91.0605C148.073 91.716 147.527 92.3714 146.544 92.8084C145.56 93.2453 144.577 93.4638 143.485 93.4638C141.081 93.4638 139.77 92.3714 139.77 90.2958C139.77 88.3294 140.426 86.3631 141.737 84.8337C142.829 83.3043 144.577 82.4304 146.434 82.4304C147.964 82.4304 148.728 83.0858 148.728 84.3967C148.728 85.7076 148.073 86.9093 147.09 87.674C145.779 88.3294 144.359 88.7664 142.939 88.7664ZM143.048 87.3463C145.123 87.3463 146.107 86.4723 146.107 84.7244C146.107 83.9597 145.888 83.632 145.342 83.632C144.359 83.7413 143.594 84.9429 143.048 87.3463ZM152.333 93.0269C151.787 93.1361 151.35 93.2453 150.804 93.2453C149.93 93.2453 149.493 92.9176 149.493 92.2622C149.602 91.3882 149.712 90.5143 150.039 89.7496C150.585 87.674 151.022 85.5984 151.132 83.5228C151.132 83.3043 151.132 82.9766 151.022 82.7581C151.569 82.5396 152.224 82.4304 152.77 82.4304C153.535 82.4304 153.972 82.7581 153.972 83.4135C153.863 84.506 153.644 85.5984 153.317 86.5816C154.846 83.7413 156.157 82.3211 157.249 82.3211C157.795 82.3211 158.123 82.5396 158.123 83.0858C158.014 84.2875 157.577 85.3799 156.703 86.2538C156.485 85.9261 156.266 85.7076 156.048 85.7076C155.392 85.7076 154.627 86.5816 153.644 88.4387C152.88 89.6403 152.443 90.9513 152.333 92.3714C152.224 92.5899 152.224 92.8084 152.333 93.0269ZM164.787 82.5396C166.426 82.6488 167.3 82.9766 167.3 83.7413C167.3 84.506 166.535 85.9261 165.005 88.3294C164.132 89.8588 162.93 91.3882 161.619 92.5899C160.854 93.1361 160.09 93.4638 159.106 93.5731V92.4806C158.997 90.7328 158.888 89.0941 158.669 87.4555C158.342 85.0522 158.014 83.7413 157.686 83.3043C158.342 82.8673 159.106 82.5396 159.871 82.5396C160.745 82.5396 161.182 83.1951 161.291 84.6152V86.0354C161.4 87.674 161.4 89.2034 161.4 90.6235L163.476 87.237C164.241 86.1446 164.678 84.9429 164.787 83.632C164.896 83.0858 164.787 82.8673 164.787 82.5396ZM168.72 82.8673C169.375 82.6488 170.031 82.5396 170.686 82.4304C171.451 82.4304 171.888 82.7581 171.888 83.3043C171.888 83.632 171.778 83.9597 171.778 84.2875C171.123 86.5816 170.686 88.8757 170.468 91.1697C170.468 91.7159 170.577 92.2622 170.905 92.6991C170.358 93.0269 169.812 93.2453 169.157 93.2453C168.173 93.2453 167.627 92.8084 167.627 91.8252C167.737 90.405 167.955 89.0941 168.283 87.7832C168.61 86.4723 168.938 85.0522 168.938 83.7413C168.938 83.4135 168.829 83.0858 168.72 82.8673ZM172.215 80.7917C171.778 81.0102 171.232 81.1195 170.686 81.2287C170.031 81.2287 169.594 81.0102 169.594 80.6825C169.594 80.464 169.594 80.2455 169.703 80.1363C169.703 79.9178 169.812 79.6993 169.812 79.5901C169.812 79.4808 169.812 79.3716 169.703 79.2623C170.249 79.0438 170.795 78.9346 171.342 78.9346C172.106 78.9346 172.434 79.2623 172.434 79.8085C172.434 80.027 172.434 80.464 172.215 80.7917ZM176.585 86.5816C178.005 83.7413 179.425 82.3211 180.846 82.3211C181.61 82.2119 182.375 82.7581 182.484 83.5228V83.9597C182.375 85.1614 182.266 86.3631 181.938 87.5647C181.61 88.7664 181.392 89.9681 181.392 91.1697C181.392 91.7159 181.501 92.2622 181.829 92.6991C181.283 93.0269 180.627 93.2453 180.081 93.2453C179.425 93.3546 178.77 92.9176 178.661 92.1529V91.8252C178.661 90.9513 178.77 90.0773 178.988 89.2034C179.535 86.5816 179.753 85.1614 179.753 84.9429C179.753 84.7244 179.644 84.506 179.535 84.506C179.425 84.506 178.442 85.4891 177.35 87.5647C176.367 88.9849 175.82 90.6235 175.602 92.2622C175.602 92.4806 175.602 92.6991 175.711 93.0269C175.165 93.1361 174.728 93.2453 174.182 93.2453C173.308 93.2453 172.871 92.9176 172.871 92.2622C172.871 91.8252 172.98 91.3882 173.089 90.9513L173.417 89.7496C173.963 87.674 174.291 85.5984 174.51 83.5228C174.51 83.1951 174.51 82.9766 174.4 82.6488C174.947 82.4304 175.602 82.3211 176.148 82.3211C176.913 82.3211 177.35 82.6488 177.35 83.3043C177.131 84.506 176.913 85.5984 176.585 86.5816ZM184.014 92.4806C184.56 93.5731 185.761 94.3378 186.963 94.3378C187.619 94.3378 188.165 94.1193 188.602 93.6823C189.039 93.2453 189.476 91.4975 190.022 88.4387C188.493 90.7328 187.072 91.8252 185.761 91.8252C184.451 91.8252 183.795 90.842 183.795 88.9849C183.795 87.3463 184.341 85.7076 185.325 84.3967C186.198 83.1951 187.509 82.4304 189.039 82.4304C189.803 82.4304 190.459 82.6488 191.114 82.9766C191.333 82.6488 191.77 82.4304 192.207 82.5396C192.862 82.5396 193.408 82.6488 193.955 82.9766C193.408 84.1782 193.081 85.3799 192.971 86.6908C192.753 88.8757 192.207 91.1697 191.442 93.2453C191.005 94.1193 190.35 94.7747 189.585 95.3209C188.711 95.8672 187.728 96.0856 186.635 96.0856C185.761 96.0856 184.778 95.8672 183.904 95.5394C182.921 95.2117 182.484 94.7747 182.484 94.2285C182.484 93.6823 183.03 92.9176 184.014 92.4806ZM190.677 85.2707C190.35 84.6152 189.694 84.069 188.82 84.069C188.165 84.069 187.619 84.506 187.182 85.4891C186.745 86.4723 186.526 87.5647 186.635 88.6572C186.635 89.2034 186.745 89.5311 187.072 89.5311C188.056 89.4219 189.257 88.0017 190.677 85.2707ZM203.349 87.237C202.913 83.7413 202.039 81.6657 200.837 81.0102C201.383 80.2455 202.257 79.6993 203.24 79.6993C203.786 79.6993 204.333 80.027 204.551 80.5732C205.097 81.9934 205.316 83.5228 205.534 85.0522C207.61 81.5564 209.249 79.6993 210.669 79.6993C211.324 79.6993 211.761 80.1363 212.089 80.901C211.106 81.2287 210.341 81.7749 209.686 82.4304C208.593 83.5228 207.61 84.7244 206.736 86.0354C205.644 87.8925 205.097 89.9681 205.207 92.1529C205.207 92.3714 205.207 92.6991 205.316 92.9176C204.66 93.2453 204.005 93.3546 203.24 93.4638C202.476 93.4638 202.148 93.2453 202.148 92.6991C202.148 92.2622 202.257 91.8252 202.366 91.3882C202.803 90.0773 203.131 88.6572 203.349 87.237ZM214.492 93.5731C213.509 93.5731 212.526 93.2453 211.87 92.5899C211.215 91.8252 210.778 90.842 210.887 89.8588C210.887 88.0017 211.543 86.2538 212.635 84.8337C213.618 83.4135 215.148 82.5396 216.896 82.5396C217.879 82.5396 218.862 82.8673 219.517 83.632C220.173 84.3967 220.501 85.3799 220.501 86.3631C220.501 88.2202 219.845 89.9681 218.753 91.3882C217.66 92.6991 216.131 93.4638 214.492 93.5731ZM215.038 91.9344C215.803 91.9344 216.349 91.279 216.786 89.9681C217.223 88.6572 217.442 87.3463 217.442 86.0354C217.442 84.7244 217.005 83.9597 216.24 83.9597C215.475 83.9597 214.929 84.6152 214.383 85.9261C213.946 87.237 213.728 88.5479 213.618 89.9681C213.728 91.279 214.164 91.9344 215.038 91.9344ZM228.366 82.7581C228.912 82.6488 229.349 82.5396 229.895 82.5396C230.769 82.5396 231.206 82.8673 231.206 83.5228C231.206 83.9597 231.097 84.3967 230.988 84.8337L230.66 86.1446C230.223 87.7832 230.005 89.3126 229.895 90.9513C229.895 91.6067 230.005 92.2622 230.332 92.9176C229.895 93.3546 229.349 93.5731 228.694 93.4638C227.601 93.4638 227.055 92.8084 227.055 91.6067C227.055 90.842 227.164 90.0773 227.274 89.2034C225.853 92.0437 224.433 93.4638 223.013 93.4638C222.248 93.5731 221.484 93.0269 221.374 92.1529V91.7159C221.484 90.2958 221.702 88.9849 222.03 87.674C222.358 86.3631 222.576 84.9429 222.685 83.632C222.685 83.4135 222.685 83.0858 222.576 82.8673C223.122 82.6488 223.778 82.5396 224.324 82.5396C225.089 82.5396 225.526 82.8673 225.526 83.5228C225.526 83.9597 225.416 84.3967 225.307 84.8337C224.761 86.8 224.433 88.7664 224.215 90.842C224.215 91.1697 224.324 91.279 224.433 91.279C224.761 91.279 225.526 90.2958 226.618 88.2202C227.601 86.8001 228.147 85.1614 228.366 83.5228C228.475 83.1951 228.475 82.9766 228.366 82.7581ZM204.005 32.2882C203.896 32.1789 203.896 32.0697 203.786 31.9604C203.568 31.7419 203.459 31.4142 203.349 31.0865C202.694 29.3386 202.257 27.4815 201.82 25.6244L201.711 25.1874C201.602 24.3135 201.274 22.5656 201.165 21.3639L200.4 13.4985C200.4 12.6245 199.526 8.25485 199.526 7.81789C199.198 6.28849 197.997 5.19607 196.467 4.97759H195.375C191.988 4.97759 189.476 9.12879 187.728 11.8598C187.4 12.4061 187.072 12.843 186.854 13.1708C186.635 13.4985 185.98 14.5909 185.543 15.2464L185.106 16.0111C184.56 16.9942 183.686 18.5236 182.812 19.9438L180.081 25.0782L179.425 24.7504L182.266 19.5068C183.14 18.1959 184.014 16.6665 184.56 15.6833L184.997 14.9186C185.325 14.2632 186.089 13.28 186.308 12.843C186.526 12.4061 186.854 11.9691 187.182 11.5321C189.039 8.58258 191.661 4.21289 195.375 4.21289H196.467C198.324 4.43138 199.744 5.85152 200.181 7.5994C200.181 7.5994 201.055 12.4061 201.055 13.3892L201.82 21.1454C202.039 22.4564 202.257 24.2042 202.366 24.9689L202.476 25.4059C202.803 27.1538 203.349 28.9016 203.896 30.6495V30.7588C204.005 30.9772 204.114 31.305 204.223 31.5235C204.333 31.6327 204.333 31.7419 204.442 31.9604L204.005 32.2882ZM209.467 33.9268L209.249 33.2713C210.341 32.8344 211.324 32.2882 212.198 31.5235C216.24 27.263 219.954 22.6748 223.45 17.9774C225.416 15.3556 227.492 12.6245 229.568 10.2212C229.895 9.89349 230.332 9.89349 230.66 10.2212C230.879 10.4397 230.879 10.7674 230.769 11.0952C230.769 11.3136 230.66 11.5321 230.551 11.7506V11.8598L230.769 11.6414C231.097 11.2044 231.425 10.9859 231.643 10.9859C232.736 11.0952 232.736 11.8598 232.736 12.1876V12.2968C232.626 12.843 232.517 13.3892 232.299 13.8262C232.845 13.9355 233.173 14.4817 233.173 15.0279C232.845 16.0111 232.408 16.885 231.862 17.7589C231.752 17.8682 231.643 18.0867 231.643 18.1959L231.862 18.0867C232.299 17.9774 232.736 18.0867 233.063 18.4144C233.282 18.6329 233.5 18.8514 233.5 19.1791C233.391 19.7253 233.063 20.2715 232.626 20.7085L232.736 20.8177C232.954 20.7085 233.173 20.5992 233.391 20.5992H233.5L233.61 20.7085C233.937 20.927 234.047 21.2547 234.047 21.6917V21.8009C234.047 22.5656 232.954 23.9857 231.425 25.7336L231.316 25.8429H231.643C231.862 25.8429 232.08 25.9521 232.189 26.1706C232.189 26.1706 232.189 26.2798 232.517 26.3891C232.626 26.4983 232.736 26.6076 232.736 26.7168V26.826L233.063 26.6076C234.047 25.7336 234.374 25.5151 234.702 25.6244L234.921 25.7336V25.9521C234.921 25.9521 234.921 26.0613 235.03 26.0613C235.139 26.1706 235.248 26.3891 235.248 26.6076C235.248 27.7 233.937 29.7756 231.206 33.0529L230.551 32.7251C234.047 28.4647 234.484 27.1538 234.484 26.7168L234.374 26.6076L234.265 26.4983C234.047 26.6076 233.61 26.9353 233.391 27.1538C232.517 27.9185 232.189 28.1369 231.862 28.1369C231.752 28.1369 231.752 28.1369 231.643 28.0277C231.534 27.9185 231.425 27.8092 231.425 27.7C231.425 27.3723 231.534 27.1538 231.752 26.9353C231.534 26.826 231.425 26.7168 231.316 26.4983C230.879 26.6076 230.551 26.7168 230.223 26.9353L229.677 26.4983C230.005 26.0613 230.332 25.6244 230.769 25.1874C231.534 24.2042 233.173 22.2379 233.173 21.6917V21.5824C233.173 21.3639 233.173 21.3639 233.063 21.2547C232.954 21.1454 232.954 21.2547 232.954 21.3639L232.626 21.6917L232.189 21.9101V21.1454H231.862L230.879 21.3639L231.534 20.5992C231.971 20.1623 232.408 19.5068 232.626 18.9606C232.626 18.8514 232.517 18.7421 232.517 18.7421C232.299 18.6329 232.08 18.5236 231.862 18.6329C231.534 18.8514 231.206 19.1791 230.988 19.3976L230.551 19.8345L230.005 19.3976C230.332 18.7421 230.769 17.8682 231.206 17.1035C231.643 16.3388 232.08 15.5741 232.408 14.7001C232.408 14.4817 232.299 14.3724 232.189 14.2632C232.08 14.2632 232.08 14.2632 231.971 14.3724C231.752 14.4817 231.534 14.4817 231.425 14.2632C231.316 14.1539 231.316 14.0447 231.316 13.8262V14.0447V13.9355C231.534 13.3892 231.752 12.7338 231.971 12.1876V12.0783C231.971 11.7506 231.971 11.6414 231.643 11.5321L231.206 11.9691C230.988 12.2968 230.66 12.6245 230.332 12.843L230.114 13.0615L230.005 12.6245V12.4061C229.895 12.2968 229.786 12.1876 229.786 12.0783V11.9691C229.786 11.7506 229.895 11.5321 230.005 11.3136C230.114 11.2044 230.114 11.0952 230.114 10.9859V10.6582H230.005C228.038 13.0615 225.963 15.7926 223.996 18.3051C220.501 23.1118 216.677 27.7 212.635 31.9604C211.652 32.8344 210.669 33.4898 209.467 33.9268ZM203.459 57.7416L203.349 57.0861C210.013 55.9937 215.475 49.9854 220.61 44.0863L221.156 44.5233C216.022 50.5316 210.341 56.5399 203.459 57.7416ZM195.593 55.9937C194.282 55.1198 192.098 53.4812 191.879 51.1871V51.0778C191.661 49.9854 191.224 48.6745 190.896 46.9266L191.551 46.8174C191.879 48.5653 192.207 49.9854 192.535 50.9686V51.0778C192.753 53.1534 194.719 54.6828 195.921 55.4475L195.593 55.9937ZM182.593 39.8259L181.938 39.4981C184.451 34.2545 185.761 31.9604 186.854 31.8512C187.619 31.7419 188.165 32.2882 188.602 33.2713L187.946 33.5991C187.619 32.9436 187.291 32.6159 186.854 32.6159C186.089 32.6159 183.795 37.5318 182.593 39.8259ZM174.291 55.7752L173.745 55.4475C175.711 52.2795 177.678 48.5653 178.988 46.0527L179.644 46.3804C178.224 48.7837 176.257 52.498 174.291 55.7752ZM164.896 64.0777C163.258 64.0777 159.98 62.876 159.216 59.9264C159.216 59.9264 157.031 50.8593 156.048 46.1619L156.703 45.9434C157.795 50.5316 159.871 59.5987 159.871 59.708C160.636 62.2205 163.585 63.313 164.896 63.313C166.535 63.2037 167.955 62.439 169.047 61.2374L169.484 61.7836C168.392 63.0945 166.753 63.8592 164.896 64.0777ZM132.997 72.1616H132.779C132.561 72.0523 132.451 71.8339 132.561 71.6154C134.09 61.1281 137.695 50.8593 140.972 42.2292C141.081 42.0107 141.191 41.683 141.3 41.246C143.157 36.0024 148.291 21.8009 156.485 21.8009C158.997 21.8009 161.182 25.6244 162.711 33.1621C162.711 33.3806 162.821 33.4898 162.821 33.5991C163.039 34.3638 163.258 35.2377 163.476 36.2209C163.585 36.7671 163.695 37.3133 163.913 37.8595L163.258 38.078C163.148 37.5318 162.93 36.8763 162.821 36.3301C162.602 35.3469 162.384 34.473 162.165 33.7083C162.165 33.5991 162.165 33.4898 162.056 33.2713C160.09 23.8765 157.795 22.4564 156.485 22.4564C148.838 22.4564 143.594 36.7671 141.955 41.4645L141.628 42.4477C138.35 50.9686 134.964 60.9096 133.325 71.0692C133.434 70.9599 133.653 70.8507 133.871 70.9599C133.981 70.7414 134.09 70.4137 134.199 70.1952C134.308 69.9767 134.527 69.4305 134.745 69.1028L135.182 68.3381L135.401 69.1028H135.51C135.619 69.1028 135.619 69.1028 135.838 68.7751C135.947 68.5566 136.056 68.3381 136.275 68.0104L137.258 67.0272C137.586 66.8087 137.913 66.481 138.132 66.1533C139.334 63.7499 140.535 61.1281 141.737 58.6155C143.485 54.7921 145.233 51.0778 146.653 48.6745C146.762 48.5652 146.871 48.2375 147.09 47.8006L147.745 46.4896L148.401 46.8174C148.182 47.3636 147.964 47.8006 147.745 48.1283C147.527 48.456 147.417 48.893 147.308 49.0022C145.888 51.4056 144.249 55.0105 142.392 58.834C141.191 61.4558 139.989 64.0777 138.787 66.481C138.46 66.918 138.132 67.2457 137.695 67.5734C137.367 67.7919 137.039 68.1196 136.821 68.4473C136.712 68.6658 136.602 68.7751 136.493 68.9936C136.275 69.4305 136.056 69.8675 135.51 69.8675H135.073C134.964 70.086 134.855 70.3045 134.855 70.4137C134.636 70.8507 134.527 71.2876 134.308 71.6154C134.199 71.7246 134.09 71.8339 133.871 71.8339C133.762 71.8339 133.762 71.8339 133.653 71.7246C133.434 72.0523 133.216 72.1616 132.997 72.1616ZM123.275 31.0865L119.124 42.5569C118.577 44.1956 118.031 44.1956 116.611 44.5233C116.065 44.5233 115.846 44.7418 115.846 45.1787C115.846 45.6157 116.174 45.725 116.72 45.725C117.267 45.725 118.359 45.6157 120.325 45.6157C121.418 45.6157 122.073 45.725 122.292 45.725C122.729 45.725 123.056 45.5065 123.056 45.0695C123.056 44.414 122.51 44.5233 121.527 44.414C120.872 44.3048 120.544 43.9771 120.544 43.4309C120.653 42.2292 120.981 41.1368 121.418 40.0444L124.258 31.8512L124.586 42.9939V44.7418C124.586 45.5065 124.695 45.6157 125.897 45.6157H126.115C126.771 45.6157 129.283 40.6998 135.838 31.8512L132.888 42.7754C132.561 43.8678 132.233 44.1956 131.359 44.414C130.485 44.6325 130.048 44.5233 130.048 45.1787C130.048 45.6157 130.266 45.8342 130.813 45.8342C131.905 45.6157 133.107 45.6157 134.199 45.6157C135.619 45.6157 137.039 45.725 138.46 45.8342C138.897 45.8342 139.115 45.6157 139.115 45.288C139.115 44.7418 138.569 44.851 138.023 44.6325C137.476 44.414 137.258 44.1956 137.258 43.8678C137.258 43.2124 137.476 42.4477 137.586 41.7922L140.535 30.868C140.863 29.6663 141.409 29.3386 142.283 29.2294C142.829 29.1201 143.157 29.0109 143.157 28.5739C143.157 28.1369 142.939 28.0277 142.283 28.0277C142.065 28.0277 140.972 28.1369 138.787 28.1369H137.258C136.93 28.0277 136.493 28.2462 136.384 28.5739L128.846 39.4981L128.519 28.6832C128.519 28.1369 128.3 28.0277 127.645 28.0277C126.989 28.0277 126.552 28.1369 125.897 28.1369C124.695 28.1369 123.384 28.0277 122.182 27.9185C121.636 27.9185 121.418 28.1369 121.418 28.5739C121.418 29.2294 121.964 29.1201 122.51 29.2294C123.056 29.3386 123.275 29.5571 123.275 30.1033C123.603 30.2126 123.493 30.6495 123.275 31.0865ZM165.661 56.103C164.896 56.103 164.241 56.3215 163.585 56.7584C162.93 57.1954 162.602 57.9601 162.602 58.7248C162.602 59.4895 162.93 60.2542 163.476 60.6911C164.022 61.1281 164.787 61.3466 165.442 61.3466C165.989 61.3466 166.535 61.2374 167.081 60.9096C167.19 60.8004 167.19 60.6911 167.19 60.4727V59.9264C167.19 59.8172 167.19 59.708 167.081 59.708C166.972 59.708 166.863 59.9264 166.644 60.2542C166.426 60.6911 165.879 61.0189 165.333 60.9096C164.896 60.9096 164.459 60.6911 164.132 60.3634C163.695 59.8172 163.476 59.1618 163.476 58.5063C163.476 57.8508 163.695 57.1954 164.132 56.6492C164.459 56.3215 164.896 56.103 165.442 56.103C165.989 56.103 166.426 56.4307 166.753 56.8677C166.863 57.0861 166.972 57.1954 167.081 57.1954C167.19 57.1954 167.19 57.1954 167.19 57.0861C167.19 56.6492 167.19 56.3215 167.081 56.2122C166.644 56.2122 166.207 56.103 165.661 56.103ZM184.232 57.1954L187.509 61.4558C187.619 61.5651 187.619 61.5651 187.728 61.5651C187.837 61.5651 187.946 61.4558 187.946 61.3466V57.3046C187.946 56.7584 187.946 56.5399 188.383 56.5399H188.493C188.602 56.5399 188.602 56.5399 188.602 56.4307C188.602 56.3215 188.493 56.3215 188.383 56.3215H187.072C186.854 56.3215 186.854 56.3215 186.854 56.4307C186.854 56.5399 186.963 56.5399 187.072 56.5399C187.4 56.5399 187.619 56.5399 187.619 56.7584V59.9264L184.997 56.4307L184.888 56.3215H183.577C183.467 56.3215 183.467 56.3215 183.467 56.4307C183.467 56.5399 183.577 56.5399 183.904 56.5399C184.232 56.5399 184.123 56.6492 184.123 56.8677V60.1449C184.123 60.8004 184.123 61.0189 183.686 61.0189H183.577C183.467 61.0189 183.358 61.0189 183.358 61.1281C183.358 61.2374 183.467 61.2374 183.577 61.2374H184.888C184.997 61.2374 185.106 61.2374 185.106 61.1281C185.106 61.0189 184.997 61.0189 184.888 61.0189H184.669C184.232 61.0189 184.232 60.8004 184.232 60.2542V57.1954ZM193.19 56.2122C192.425 56.2122 191.77 56.4307 191.114 56.8677C190.459 57.3046 190.131 58.0693 190.131 58.834C190.131 59.5987 190.459 60.3634 191.005 60.8004C191.551 61.2374 192.316 61.4558 192.971 61.4558C193.518 61.4558 194.064 61.3466 194.61 61.0189C194.719 60.9096 194.719 60.8004 194.719 60.5819V60.0357C194.719 59.9264 194.719 59.8172 194.61 59.8172C194.501 59.8172 194.392 60.0357 194.173 60.3634C193.955 60.8004 193.408 61.1281 192.862 61.0189C192.425 61.0189 191.988 60.8004 191.661 60.4727C191.224 59.9264 191.005 59.271 191.114 58.6155C191.114 57.9601 191.333 57.3046 191.77 56.7584C192.098 56.4307 192.535 56.2122 193.081 56.2122C193.627 56.2122 194.064 56.5399 194.392 56.9769C194.501 57.1954 194.61 57.3046 194.719 57.3046C194.829 57.3046 194.829 57.3046 194.829 57.1954C194.829 56.7584 194.719 56.4307 194.719 56.3215C194.173 56.3215 193.736 56.2122 193.19 56.2122ZM150.258 40.4813C157.031 39.8259 160.09 38.7334 160.199 35.6747C160.199 33.8175 158.669 32.5066 156.048 32.5066C153.426 32.5066 150.804 33.4898 148.838 35.2377C146.98 36.6578 145.779 38.9519 145.67 41.3553C145.67 44.414 147.745 46.2712 150.804 46.3804C153.317 46.3804 155.611 45.288 157.358 43.4309C157.795 43.1031 158.014 42.6662 158.232 42.12C158.232 41.9015 158.123 41.7922 157.905 41.7922H157.795C157.468 41.7922 157.14 42.2292 156.485 42.6662C155.501 43.6493 154.3 44.1956 152.88 44.414C151.132 44.414 150.039 43.2124 150.039 41.1368C150.149 40.9183 150.149 40.6998 150.258 40.4813ZM150.476 39.3889C151.569 35.5654 153.535 33.5991 155.064 33.5991C155.611 33.5991 156.048 34.036 156.048 34.8007C155.938 36.9856 153.754 39.3889 150.476 39.3889ZM175.274 33.4898C175.93 33.4898 176.367 33.9268 176.367 34.8007C176.367 35.7839 175.493 37.7503 173.526 40.2628C172.106 42.0107 171.123 42.9939 170.14 42.9939C169.484 42.9939 169.157 42.5569 169.157 41.683C169.375 39.7166 170.249 37.7503 171.56 36.2209C172.871 34.473 174.073 33.5991 175.274 33.4898ZM174.837 40.0444L174.291 42.5569C174.073 43.3216 173.963 44.0863 173.963 44.851C173.854 45.6157 174.51 46.2712 175.165 46.3804H175.383C177.131 46.2712 178.77 45.5065 179.972 44.1956C180.736 43.5401 181.283 42.7754 181.61 41.9015C181.61 41.683 181.501 41.5737 181.283 41.5737C180.846 41.5737 180.736 42.0107 180.19 42.6662C179.535 43.4309 178.988 43.8678 178.552 43.8678C178.333 43.8678 178.333 43.6494 178.333 43.3216C179.207 39.2797 180.409 35.3469 181.829 31.4142L183.467 26.9353C183.577 26.7168 183.577 26.6076 183.577 26.3891C183.577 26.1706 183.358 26.0613 183.249 26.0613C181.501 26.7168 179.644 27.0445 177.787 27.0445C176.913 27.0445 176.476 27.0445 176.476 27.7C176.476 27.9185 176.694 28.0277 177.131 28.1369C177.896 28.3554 178.333 28.3554 178.333 28.6832C178.333 29.1201 178.224 29.5571 178.005 29.9941L176.804 33.2713C176.039 32.9436 175.165 32.7251 174.4 32.7251C171.669 32.9436 169.266 34.1453 167.409 36.1116C165.442 37.8595 164.35 40.2628 164.241 42.8847C164.241 45.0695 165.442 46.4896 167.081 46.4896C169.375 46.2712 171.888 44.1956 174.837 40.0444ZM180.736 57.8508V59.4895C180.736 59.9264 180.736 60.3634 180.518 60.8004C180.19 61.1281 179.753 61.3466 179.316 61.3466C178.224 61.3466 178.005 60.9096 178.005 59.8172V56.9769C178.005 56.6492 178.005 56.6492 178.224 56.6492C178.442 56.6492 178.661 56.6492 178.661 56.5399C178.661 56.4307 178.661 56.4307 178.552 56.4307C178.224 56.4307 177.896 56.5399 177.568 56.5399C177.241 56.5399 176.913 56.5399 176.585 56.4307C176.476 56.4307 176.476 56.4307 176.476 56.5399C176.476 56.6492 176.694 56.6492 176.913 56.6492C177.131 56.6492 177.131 56.7584 177.131 56.9769V59.8172C177.131 60.2542 177.131 60.5819 177.35 61.0189C177.787 61.4558 178.442 61.6743 179.098 61.5651C179.753 61.6743 180.299 61.4558 180.736 61.0189C180.955 60.5819 181.064 60.0357 180.955 59.5987V57.8508C180.955 57.1954 180.955 56.8677 181.173 56.7584C181.392 56.6492 181.72 56.7584 181.72 56.6492C181.72 56.5399 181.61 56.5399 181.501 56.5399H180.081C179.972 56.5399 179.862 56.5399 179.862 56.6492C179.862 56.7584 180.19 56.7584 180.409 56.8677C180.627 56.9769 180.627 57.1954 180.627 57.8508H180.736ZM171.997 56.103C171.342 56.103 170.577 56.3215 170.031 56.7584C168.938 57.7416 168.829 59.3802 169.812 60.4727L170.031 60.6911C170.577 61.1281 171.232 61.4558 171.888 61.4558C172.543 61.4558 173.308 61.2374 173.854 60.8004C174.4 60.3634 174.728 59.5987 174.728 58.834C174.728 58.0693 174.4 57.3046 173.854 56.8677C173.417 56.4307 172.762 56.103 171.997 56.103ZM171.997 61.2374C170.905 61.2374 170.14 60.2542 170.14 58.7248C170.14 57.1954 170.905 56.4307 171.888 56.4307C172.871 56.4307 173.745 57.3046 173.745 58.9433C173.745 60.5819 172.98 61.2374 171.997 61.2374ZM200.4 41.246L202.585 33.9268V33.7083C202.585 33.4898 202.476 33.3806 202.148 33.3806H199.417C198.98 33.3806 198.652 33.5991 198.434 33.9268C198.106 35.3469 197.56 36.6578 197.013 37.9688C195.047 42.2292 192.425 44.414 191.77 44.3048C191.551 44.3048 191.333 44.1956 191.224 43.8678V43.7586C191.224 43.2124 191.442 42.7754 191.551 42.2292L193.299 37.641C193.736 36.6578 193.955 35.6747 194.173 34.6915C194.173 33.4898 193.518 32.8344 192.207 32.8344C190.677 32.9436 189.148 33.5991 188.165 34.6915C187.509 35.2377 186.963 36.0024 186.635 36.7671C186.635 36.9856 186.745 37.0948 186.963 37.0948C187.509 37.0948 187.728 36.4394 188.274 35.8931C188.711 35.3469 189.257 35.0192 189.803 34.8007C190.131 34.91 190.131 34.91 190.131 35.1285C190.131 35.8932 189.913 36.6578 189.476 37.3133L187.837 41.4645C187.509 42.2292 187.291 43.1031 187.291 43.9771C187.291 45.5065 188.056 46.2712 189.694 46.2712C192.098 46.2712 194.392 44.3048 196.904 40.3721L196.576 41.9015C196.358 42.7754 196.249 43.5401 196.249 44.414C196.249 45.5065 197.013 46.2712 198.543 46.2712C201.165 46.1619 203.459 44.851 204.879 42.6662C207.282 39.6074 208.375 36.6578 208.375 35.0192C208.375 33.3806 207.61 32.7251 206.518 32.7251C205.644 32.6159 204.988 33.2713 204.879 34.1453V34.3638C204.879 35.4562 206.081 36.4394 206.081 37.7503C205.753 39.8259 204.77 41.683 203.24 43.2124C202.694 43.9771 201.929 44.414 200.946 44.6325C200.509 44.6325 200.072 44.1956 200.072 43.4309C200.072 42.6662 200.181 42.0107 200.4 41.246ZM223.122 40.2628L222.467 42.6662C222.248 43.4309 222.03 44.3048 222.03 45.0695C222.03 45.8342 222.685 46.3804 223.341 46.3804H223.45C225.198 46.2712 226.837 45.5065 228.038 44.1956C228.803 43.5401 229.349 42.7754 229.677 41.9015C229.677 41.683 229.568 41.5737 229.349 41.5737C228.912 41.5737 228.803 42.12 228.257 42.6662C227.711 43.2124 227.274 43.6493 226.837 43.6493C226.4 43.6493 226.4 43.4309 226.4 42.9939C226.4 42.6662 226.509 42.2292 226.618 41.9015L229.349 33.7083C229.458 33.4898 229.458 33.2713 229.568 33.0529C229.568 32.7251 229.349 32.7251 228.694 32.7251H226.181C225.744 32.7251 225.635 32.7251 225.416 33.1621L225.089 33.7083C224.324 33.2713 223.559 32.9436 222.685 32.9436C220.391 32.9436 217.66 34.1453 215.257 36.6578C213.4 38.2965 212.307 40.5906 212.198 43.1031C212.198 45.288 213.4 46.5989 215.148 46.5989C217.551 46.3804 220.173 44.3048 223.122 40.2628ZM223.341 33.7083C224.106 33.7083 224.542 34.2545 224.542 35.1285C224.542 36.0024 223.669 38.078 221.484 40.8091C220.064 42.6662 218.971 43.6493 217.879 43.6493C217.223 43.6493 216.786 43.1031 216.786 42.2292C217.114 40.0444 218.097 38.078 219.408 36.4394C220.828 34.5822 222.139 33.7083 223.341 33.7083ZM242.24 43.8678V42.12C242.13 35.6747 241.803 32.8344 239.181 32.8344C237.652 32.8344 236.231 33.7083 235.467 34.91C234.921 35.4562 234.593 36.1116 234.374 36.8763C234.374 37.2041 234.484 37.3133 234.702 37.3133C235.248 37.3133 235.357 36.7671 235.794 36.1116C236.231 35.4562 236.45 35.2377 236.778 35.2377C237.433 35.2377 237.652 36.1116 237.979 37.7503C238.416 39.8259 238.526 42.0107 238.526 44.1956C238.526 48.456 236.778 50.6409 235.248 50.6409C234.702 50.6409 234.374 50.2039 233.61 49.5484C233.173 49.2207 232.736 49.1115 232.299 49.1115C231.425 49.0022 230.769 49.6577 230.66 50.4224V50.5316C230.66 51.624 231.534 52.3887 233.063 52.3887C236.559 52.3887 239.399 49.4392 243.551 44.1956C246.828 40.0444 248.467 37.0948 248.467 35.1285C248.467 33.8175 247.811 33.0529 246.828 33.0529C245.845 33.0529 245.08 33.8175 245.08 34.8007V34.91C245.08 35.6747 245.735 36.7671 245.735 37.9688C245.735 39.1704 244.534 41.246 242.24 43.8678ZM198.215 60.5819V56.8677C198.215 56.6492 198.215 56.5399 198.434 56.5399C198.652 56.5399 198.871 56.5399 198.871 56.4307C198.871 56.3215 198.871 56.3215 198.761 56.3215C198.106 56.4307 197.45 56.4307 196.795 56.3215C196.686 56.3215 196.686 56.3215 196.686 56.4307C196.686 56.5399 196.904 56.5399 197.123 56.5399C197.341 56.5399 197.341 56.6492 197.341 56.8677V60.4727C197.341 60.8004 197.341 60.9096 197.013 61.0189C196.686 61.1281 196.686 61.0189 196.686 61.1281C196.686 61.2374 196.795 61.2374 196.904 61.2374H198.871C198.98 61.2374 199.089 61.2374 199.089 61.1281C199.089 61.0189 198.871 61.0189 198.761 61.0189C198.652 61.0189 198.215 61.0189 198.215 60.5819ZM202.039 60.5819V56.9769C202.039 56.6492 202.039 56.6492 202.257 56.6492C202.476 56.6492 202.694 56.6492 202.694 56.5399C202.694 56.4307 202.694 56.4307 202.585 56.4307C202.257 56.4307 201.929 56.5399 201.602 56.5399C201.274 56.5399 200.946 56.5399 200.618 56.4307C200.509 56.4307 200.509 56.4307 200.509 56.5399C200.509 56.6492 200.618 56.6492 200.837 56.6492C201.055 56.6492 201.055 56.7584 201.055 56.9769V60.5819C201.055 60.9096 201.055 61.0189 200.728 61.1281C200.4 61.2374 200.4 61.1281 200.4 61.2374C200.4 61.3466 200.509 61.3466 200.618 61.3466H201.602C202.694 61.3466 203.568 61.4558 204.005 61.4558C204.223 61.4558 204.223 61.4558 204.223 61.2374L204.333 60.4727V60.3634C204.333 60.3634 204.333 60.2542 204.223 60.2542C204.114 60.2542 204.005 60.5819 203.568 60.9096C203.349 61.1281 203.022 61.2374 202.585 61.2374C202.257 61.2374 202.039 61.0189 202.039 60.5819Z" fill="black"/>
</g>
<defs>
<clipPath id="clip0_3520_18757">
<rect width="362.903" height="75" fill="white" transform="translate(0.704834)"/>
</clipPath>
</defs>
</svg>
