<svg width="124" height="86" viewBox="0 0 124 86" fill="none" xmlns="http://www.w3.org/2000/svg">
<path d="M15 79.4C14.9 80.4 15.7 81.3 16.7 81.3H17C18.4 81.3 19.1 80.6 19.1 79.3C19.1 78.6 18.7 78 18.1 77.6L16.3 76.3C15.7 75.8 15.3 75.1 15.3 74.3C15.3 73.1 15.9 71.9 16.9 71.2C17.9 70.4 19.1 69.9 20.4 69.9C22 69.9 22.8 70.3 22.8 71C22.8 71.5 22.4 72 21.7 72.4C21.3 71.6 20.4 71.2 19.5 71.2C18.3 71.2 17.7 71.7 17.7 72.8C17.7 73.1 17.8 73.3 18 73.6C18.8 74.4 19.7 75.1 20.6 75.8C21.2 76.4 21.6 77.2 21.6 78C21.6 79.3 21 80.6 19.9 81.4C18.8 82.3 17.5 82.8 16.1 82.8C15.4 82.8 14.7 82.7 14.1 82.4C13.5 82.1 13.2 81.8 13.2 81.4C13.3 80.5 13.9 79.9 15 79.4ZM25.8 78.3C25.8 78.7 25.7 79 25.7 79.3C25.7 80.5 26.2 81.1 27.2 81.1C28.4 81 29.5 80.5 30.3 79.7C30.4 79.9 30.5 80.1 30.5 80.4C30.5 81 30 81.6 29.1 82C28.2 82.4 27.3 82.6 26.3 82.6C24.1 82.6 22.9 81.6 22.9 79.7C22.9 77.9 23.5 76.1 24.7 74.7C25.7 73.3 27.3 72.5 29 72.5C30.4 72.5 31.1 73.1 31.1 74.3C31.1 75.5 30.5 76.6 29.6 77.3C28.4 77.9 27.1 78.3 25.8 78.3ZM25.9 77C27.8 77 28.7 76.2 28.7 74.6C28.7 73.9 28.5 73.6 28 73.6C27.1 73.7 26.4 74.8 25.9 77ZM34.4 82.2C33.9 82.3 33.5 82.4 33 82.4C32.2 82.4 31.8 82.1 31.8 81.5C31.9 80.7 32 79.9 32.3 79.2C32.8 77.3 33.2 75.4 33.3 73.5C33.3 73.3 33.3 73 33.2 72.8C33.7 72.6 34.3 72.5 34.8 72.5C35.5 72.5 35.9 72.8 35.9 73.4C35.8 74.4 35.6 75.4 35.3 76.3C36.7 73.7 37.9 72.4 38.9 72.4C39.4 72.4 39.7 72.6 39.7 73.1C39.6 74.2 39.2 75.2 38.4 76C38.2 75.7 38 75.5 37.8 75.5C37.2 75.5 36.5 76.3 35.6 78C34.9 79.1 34.5 80.3 34.4 81.6C34.3 81.8 34.3 82 34.4 82.2ZM45.8 72.6C47.3 72.7 48.1 73 48.1 73.7C48.1 74.4 47.4 75.7 46 77.9C45.2 79.3 44.1 80.7 42.9 81.8C42.2 82.3 41.5 82.6 40.6 82.7V81.7C40.5 80.1 40.4 78.6 40.2 77.1C39.9 74.9 39.6 73.7 39.3 73.3C39.9 72.9 40.6 72.6 41.3 72.6C42.1 72.6 42.5 73.2 42.6 74.5V75.8C42.7 77.3 42.7 78.7 42.7 80L44.6 76.9C45.3 75.9 45.7 74.8 45.8 73.6C45.9 73.1 45.8 72.9 45.8 72.6ZM49.4 72.9C50 72.7 50.6 72.6 51.2 72.5C51.9 72.5 52.3 72.8 52.3 73.3C52.3 73.6 52.2 73.9 52.2 74.2C51.6 76.3 51.2 78.4 51 80.5C51 81 51.1 81.5 51.4 81.9C50.9 82.2 50.4 82.4 49.8 82.4C48.9 82.4 48.4 82 48.4 81.1C48.5 79.8 48.7 78.6 49 77.4C49.3 76.2 49.6 74.9 49.6 73.7C49.6 73.4 49.5 73.1 49.4 72.9ZM52.6 71C52.2 71.2 51.7 71.3 51.2 71.4C50.6 71.4 50.2 71.2 50.2 70.9C50.2 70.7 50.2 70.5 50.3 70.4C50.3 70.2 50.4 70 50.4 69.9C50.4 69.8 50.4 69.7 50.3 69.6C50.8 69.4 51.3 69.3 51.8 69.3C52.5 69.3 52.8 69.6 52.8 70.1C52.8 70.3 52.8 70.7 52.6 71ZM56.6 76.3C57.9 73.7 59.2 72.4 60.5 72.4C61.2 72.3 61.9 72.8 62 73.5V73.9C61.9 75 61.8 76.1 61.5 77.2C61.2 78.3 61 79.4 61 80.5C61 81 61.1 81.5 61.4 81.9C60.9 82.2 60.3 82.4 59.8 82.4C59.2 82.5 58.6 82.1 58.5 81.4V81.1C58.5 80.3 58.6 79.5 58.8 78.7C59.3 76.3 59.5 75 59.5 74.8C59.5 74.6 59.4 74.4 59.3 74.4C59.2 74.4 58.3 75.3 57.3 77.2C56.4 78.5 55.9 80 55.7 81.5C55.7 81.7 55.7 81.9 55.8 82.2C55.3 82.3 54.9 82.4 54.4 82.4C53.6 82.4 53.2 82.1 53.2 81.5C53.2 81.1 53.3 80.7 53.4 80.3L53.7 79.2C54.2 77.3 54.5 75.4 54.7 73.5C54.7 73.2 54.7 73 54.6 72.7C55.1 72.5 55.7 72.4 56.2 72.4C56.9 72.4 57.3 72.7 57.3 73.3C57.1 74.4 56.9 75.4 56.6 76.3ZM63.4 81.7C63.9 82.7 65 83.4 66.1 83.4C66.7 83.4 67.2 83.2 67.6 82.8C68 82.4 68.4 80.8 68.9 78C67.5 80.1 66.2 81.1 65 81.1C63.8 81.1 63.2 80.2 63.2 78.5C63.2 77 63.7 75.5 64.6 74.3C65.4 73.2 66.6 72.5 68 72.5C68.7 72.5 69.3 72.7 69.9 73C70.1 72.7 70.5 72.5 70.9 72.6C71.5 72.6 72 72.7 72.5 73C72 74.1 71.7 75.2 71.6 76.4C71.4 78.4 70.9 80.5 70.2 82.4C69.8 83.2 69.2 83.8 68.5 84.3C67.7 84.8 66.8 85 65.8 85C65 85 64.1 84.8 63.3 84.5C62.4 84.2 62 83.8 62 83.3C62 82.8 62.5 82.1 63.4 81.7ZM69.5 75.1C69.2 74.5 68.6 74 67.8 74C67.2 74 66.7 74.4 66.3 75.3C65.9 76.2 65.7 77.2 65.8 78.2C65.8 78.7 65.9 79 66.2 79C67.1 78.9 68.2 77.6 69.5 75.1ZM81.1 76.9C80.7 73.7 79.9 71.8 78.8 71.2C79.3 70.5 80.1 70 81 70C81.5 70 82 70.3 82.2 70.8C82.7 72.1 82.9 73.5 83.1 74.9C85 71.7 86.5 70 87.8 70C88.4 70 88.8 70.4 89.1 71.1C88.2 71.4 87.5 71.9 86.9 72.5C85.9 73.5 85 74.6 84.2 75.8C83.2 77.5 82.7 79.4 82.8 81.4C82.8 81.6 82.8 81.9 82.9 82.1C82.3 82.4 81.7 82.5 81 82.6C80.3 82.6 80 82.4 80 81.9C80 81.5 80.1 81.1 80.2 80.7C80.6 79.5 80.9 78.2 81.1 76.9ZM91.3 82.7C90.4 82.7 89.5 82.4 88.9 81.8C88.3 81.1 87.9 80.2 88 79.3C88 77.6 88.6 76 89.6 74.7C90.5 73.4 91.9 72.6 93.5 72.6C94.4 72.6 95.3 72.9 95.9 73.6C96.5 74.3 96.8 75.2 96.8 76.1C96.8 77.8 96.2 79.4 95.2 80.7C94.2 81.9 92.8 82.6 91.3 82.7ZM91.8 81.2C92.5 81.2 93 80.6 93.4 79.4C93.8 78.2 94 77 94 75.8C94 74.6 93.6 73.9 92.9 73.9C92.2 73.9 91.7 74.5 91.2 75.7C90.8 76.9 90.6 78.1 90.5 79.4C90.6 80.6 91 81.2 91.8 81.2ZM104 72.8C104.5 72.7 104.9 72.6 105.4 72.6C106.2 72.6 106.6 72.9 106.6 73.5C106.6 73.9 106.5 74.3 106.4 74.7L106.1 75.9C105.7 77.4 105.5 78.8 105.4 80.3C105.4 80.9 105.5 81.5 105.8 82.1C105.4 82.5 104.9 82.7 104.3 82.6C103.3 82.6 102.8 82 102.8 80.9C102.8 80.2 102.9 79.5 103 78.7C101.7 81.3 100.4 82.6 99.1 82.6C98.4 82.7 97.7 82.2 97.6 81.4V81C97.7 79.7 97.9 78.5 98.2 77.3C98.5 76.1 98.7 74.8 98.8 73.6C98.8 73.4 98.8 73.1 98.7 72.9C99.2 72.7 99.8 72.6 100.3 72.6C101 72.6 101.4 72.9 101.4 73.5C101.4 73.9 101.3 74.3 101.2 74.7C100.7 76.5 100.4 78.3 100.2 80.2C100.2 80.5 100.3 80.6 100.4 80.6C100.7 80.6 101.4 79.7 102.4 77.8C103.3 76.5 103.8 75 104 73.5C104.1 73.2 104.1 73 104 72.8ZM81.7 26.6C81.6 26.5 81.6 26.4 81.5 26.3C81.3 26.1 81.2 25.8 81.1 25.5C80.5 23.9 80.1 22.2 79.7 20.5L79.6 20.1C79.5 19.3 79.2 17.7 79.1 16.6L78.4 9.39999C78.4 8.59999 77.6 4.59999 77.6 4.19999C77.3 2.79999 76.2 1.79999 74.8 1.59999H73.8C70.7 1.59999 68.4 5.39999 66.8 7.89999C66.5 8.39999 66.2 8.79999 66 9.09999C65.8 9.39999 65.2 10.4 64.8 11L64.4 11.7C63.9 12.6 63.1 14 62.3 15.3L59.8 20L59.2 19.7L61.8 14.9C62.6 13.7 63.4 12.3 63.9 11.4L64.3 10.7C64.6 10.1 65.3 9.19999 65.5 8.79999C65.7 8.39999 66 7.99999 66.3 7.59999C68 4.89999 70.4 0.899994 73.8 0.899994H74.8C76.5 1.09999 77.8 2.39999 78.2 3.99999C78.2 3.99999 79 8.39999 79 9.29999L79.7 16.4C79.9 17.6 80.1 19.2 80.2 19.9L80.3 20.3C80.6 21.9 81.1 23.5 81.6 25.1V25.2C81.7 25.4 81.8 25.7 81.9 25.9C82 26 82 26.1 82.1 26.3L81.7 26.6ZM86.7 28.1L86.5 27.5C87.5 27.1 88.4 26.6 89.2 25.9C92.9 22 96.3 17.8 99.5 13.5C101.3 11.1 103.2 8.59999 105.1 6.39999C105.4 6.09999 105.8 6.09999 106.1 6.39999C106.3 6.59999 106.3 6.89999 106.2 7.19999C106.2 7.39999 106.1 7.59999 106 7.79999V7.89999L106.2 7.69999C106.5 7.29999 106.8 7.09999 107 7.09999C108 7.19999 108 7.89999 108 8.19999V8.29999C107.9 8.79999 107.8 9.29999 107.6 9.69999C108.1 9.79999 108.4 10.3 108.4 10.8C108.1 11.7 107.7 12.5 107.2 13.3C107.1 13.4 107 13.6 107 13.7L107.2 13.6C107.6 13.5 108 13.6 108.3 13.9C108.5 14.1 108.7 14.3 108.7 14.6C108.6 15.1 108.3 15.6 107.9 16L108 16.1C108.2 16 108.4 15.9 108.6 15.9H108.7L108.8 16C109.1 16.2 109.2 16.5 109.2 16.9V17C109.2 17.7 108.2 19 106.8 20.6L106.7 20.7H107C107.2 20.7 107.4 20.8 107.5 21C107.5 21 107.5 21.1 107.8 21.2C107.9 21.3 108 21.4 108 21.5V21.6L108.3 21.4C109.2 20.6 109.5 20.4 109.8 20.5L110 20.6V20.8C110 20.8 110 20.9 110.1 20.9C110.2 21 110.3 21.2 110.3 21.4C110.3 22.4 109.1 24.3 106.6 27.3L106 27C109.2 23.1 109.6 21.9 109.6 21.5L109.5 21.4L109.4 21.3C109.2 21.4 108.8 21.7 108.6 21.9C107.8 22.6 107.5 22.8 107.2 22.8C107.1 22.8 107.1 22.8 107 22.7C106.9 22.6 106.8 22.5 106.8 22.4C106.8 22.1 106.9 21.9 107.1 21.7C106.9 21.6 106.8 21.5 106.7 21.3C106.3 21.4 106 21.5 105.7 21.7L105.2 21.3C105.5 20.9 105.8 20.5 106.2 20.1C106.9 19.2 108.4 17.4 108.4 16.9V16.8C108.4 16.6 108.4 16.6 108.3 16.5C108.2 16.4 108.2 16.5 108.2 16.6L107.9 16.9L107.5 17.1V16.4H107.2L106.3 16.6L106.9 15.9C107.3 15.5 107.7 14.9 107.9 14.4C107.9 14.3 107.8 14.2 107.8 14.2C107.6 14.1 107.4 14 107.2 14.1C106.9 14.3 106.6 14.6 106.4 14.8L106 15.2L105.5 14.8C105.8 14.2 106.2 13.4 106.6 12.7C107 12 107.4 11.3 107.7 10.5C107.7 10.3 107.6 10.2 107.5 10.1C107.4 10.1 107.4 10.1 107.3 10.2C107.1 10.3 106.9 10.3 106.8 10.1C106.7 9.99999 106.7 9.89999 106.7 9.69999V9.89999V9.79999C106.9 9.29999 107.1 8.69999 107.3 8.19999V8.09999C107.3 7.79999 107.3 7.69999 107 7.59999L106.6 7.99999C106.4 8.29999 106.1 8.59999 105.8 8.79999L105.6 8.99999L105.5 8.59999V8.39999C105.4 8.29999 105.3 8.19999 105.3 8.09999V7.99999C105.3 7.79999 105.4 7.59999 105.5 7.39999C105.6 7.29999 105.6 7.19999 105.6 7.09999V6.79999H105.5C103.7 8.99999 101.8 11.5 100 13.8C96.8 18.2 93.3 22.4 89.6 26.3C88.7 27.1 87.8 27.7 86.7 28.1ZM81.2 49.9L81.1 49.3C87.2 48.3 92.2 42.8 96.9 37.4L97.4 37.8C92.7 43.3 87.5 48.8 81.2 49.9ZM74 48.3C72.8 47.5 70.8 46 70.6 43.9V43.8C70.4 42.8 70 41.6 69.7 40L70.3 39.9C70.6 41.5 70.9 42.8 71.2 43.7V43.8C71.4 45.7 73.2 47.1 74.3 47.8L74 48.3ZM62.1 33.5L61.5 33.2C63.8 28.4 65 26.3 66 26.2C66.7 26.1 67.2 26.6 67.6 27.5L67 27.8C66.7 27.2 66.4 26.9 66 26.9C65.3 26.9 63.2 31.4 62.1 33.5ZM54.5 48.1L54 47.8C55.8 44.9 57.6 41.5 58.8 39.2L59.4 39.5C58.1 41.7 56.3 45.1 54.5 48.1ZM45.9 55.7C44.4 55.7 41.4 54.6 40.7 51.9C40.7 51.9 38.7 43.6 37.8 39.3L38.4 39.1C39.4 43.3 41.3 51.6 41.3 51.7C42 54 44.7 55 45.9 55C47.4 54.9 48.7 54.2 49.7 53.1L50.1 53.6C49.1 54.8 47.6 55.5 45.9 55.7ZM16.7 63.1H16.5C16.3 63 16.2 62.8 16.3 62.6C17.7 53 21 43.6 24 35.7C24.1 35.5 24.2 35.2 24.3 34.8C26 30 30.7 17 38.2 17C40.5 17 42.5 20.5 43.9 27.4C43.9 27.6 44 27.7 44 27.8C44.2 28.5 44.4 29.3 44.6 30.2C44.7 30.7 44.8 31.2 45 31.7L44.4 31.9C44.3 31.4 44.1 30.8 44 30.3C43.8 29.4 43.6 28.6 43.4 27.9C43.4 27.8 43.4 27.7 43.3 27.5C41.5 18.9 39.4 17.6 38.2 17.6C31.2 17.6 26.4 30.7 24.9 35L24.6 35.9C21.6 43.7 18.5 52.8 17 62.1C17.1 62 17.3 61.9 17.5 62C17.6 61.8 17.7 61.5 17.8 61.3C17.9 61.1 18.1 60.6 18.3 60.3L18.7 59.6L18.9 60.3H19C19.1 60.3 19.1 60.3 19.3 60C19.4 59.8 19.5 59.6 19.7 59.3L20.6 58.4C20.9 58.2 21.2 57.9 21.4 57.6C22.5 55.4 23.6 53 24.7 50.7C26.3 47.2 27.9 43.8 29.2 41.6C29.3 41.5 29.4 41.2 29.6 40.8L30.2 39.6L30.8 39.9C30.6 40.4 30.4 40.8 30.2 41.1C30 41.4 29.9 41.8 29.8 41.9C28.5 44.1 27 47.4 25.3 50.9C24.2 53.3 23.1 55.7 22 57.9C21.7 58.3 21.4 58.6 21 58.9C20.7 59.1 20.4 59.4 20.2 59.7C20.1 59.9 20 60 19.9 60.2C19.7 60.6 19.5 61 19 61H18.6C18.5 61.2 18.4 61.4 18.4 61.5C18.2 61.9 18.1 62.3 17.9 62.6C17.8 62.7 17.7 62.8 17.5 62.8C17.4 62.8 17.4 62.8 17.3 62.7C17.1 63 16.9 63.1 16.7 63.1ZM7.8 25.5L4 36C3.5 37.5 3 37.5 1.7 37.8C1.2 37.8 1 38 1 38.4C1 38.8 1.3 38.9 1.8 38.9C2.3 38.9 3.3 38.8 5.1 38.8C6.1 38.8 6.7 38.9 6.9 38.9C7.3 38.9 7.6 38.7 7.6 38.3C7.6 37.7 7.1 37.8 6.2 37.7C5.6 37.6 5.3 37.3 5.3 36.8C5.4 35.7 5.7 34.7 6.1 33.7L8.7 26.2L9 36.4V38C9 38.7 9.1 38.8 10.2 38.8H10.4C11 38.8 13.3 34.3 19.3 26.2L16.6 36.2C16.3 37.2 16 37.5 15.2 37.7C14.4 37.9 14 37.8 14 38.4C14 38.8 14.2 39 14.7 39C15.7 38.8 16.8 38.8 17.8 38.8C19.1 38.8 20.4 38.9 21.7 39C22.1 39 22.3 38.8 22.3 38.5C22.3 38 21.8 38.1 21.3 37.9C20.8 37.7 20.6 37.5 20.6 37.2C20.6 36.6 20.8 35.9 20.9 35.3L23.6 25.3C23.9 24.2 24.4 23.9 25.2 23.8C25.7 23.7 26 23.6 26 23.2C26 22.8 25.8 22.7 25.2 22.7C25 22.7 24 22.8 22 22.8H20.6C20.3 22.7 19.9 22.9 19.8 23.2L12.9 33.2L12.6 23.3C12.6 22.8 12.4 22.7 11.8 22.7C11.2 22.7 10.8 22.8 10.2 22.8C9.1 22.8 7.9 22.7 6.8 22.6C6.3 22.6 6.1 22.8 6.1 23.2C6.1 23.8 6.6 23.7 7.1 23.8C7.6 23.9 7.8 24.1 7.8 24.6C8.1 24.7 8 25.1 7.8 25.5ZM46.6 48.4C45.9 48.4 45.3 48.6 44.7 49C44.1 49.4 43.8 50.1 43.8 50.8C43.8 51.5 44.1 52.2 44.6 52.6C45.1 53 45.8 53.2 46.4 53.2C46.9 53.2 47.4 53.1 47.9 52.8C48 52.7 48 52.6 48 52.4V51.9C48 51.8 48 51.7 47.9 51.7C47.8 51.7 47.7 51.9 47.5 52.2C47.3 52.6 46.8 52.9 46.3 52.8C45.9 52.8 45.5 52.6 45.2 52.3C44.8 51.8 44.6 51.2 44.6 50.6C44.6 50 44.8 49.4 45.2 48.9C45.5 48.6 45.9 48.4 46.4 48.4C46.9 48.4 47.3 48.7 47.6 49.1C47.7 49.3 47.8 49.4 47.9 49.4C48 49.4 48 49.4 48 49.3C48 48.9 48 48.6 47.9 48.5C47.5 48.5 47.1 48.4 46.6 48.4ZM63.6 49.4L66.6 53.3C66.7 53.4 66.7 53.4 66.8 53.4C66.9 53.4 67 53.3 67 53.2V49.5C67 49 67 48.8 67.4 48.8H67.5C67.6 48.8 67.6 48.8 67.6 48.7C67.6 48.6 67.5 48.6 67.4 48.6H66.2C66 48.6 66 48.6 66 48.7C66 48.8 66.1 48.8 66.2 48.8C66.5 48.8 66.7 48.8 66.7 49V51.9L64.3 48.7L64.2 48.6H63C62.9 48.6 62.9 48.6 62.9 48.7C62.9 48.8 63 48.8 63.3 48.8C63.6 48.8 63.5 48.9 63.5 49.1V52.1C63.5 52.7 63.5 52.9 63.1 52.9H63C62.9 52.9 62.8 52.9 62.8 53C62.8 53.1 62.9 53.1 63 53.1H64.2C64.3 53.1 64.4 53.1 64.4 53C64.4 52.9 64.3 52.9 64.2 52.9H64C63.6 52.9 63.6 52.7 63.6 52.2V49.4ZM71.8 48.5C71.1 48.5 70.5 48.7 69.9 49.1C69.3 49.5 69 50.2 69 50.9C69 51.6 69.3 52.3 69.8 52.7C70.3 53.1 71 53.3 71.6 53.3C72.1 53.3 72.6 53.2 73.1 52.9C73.2 52.8 73.2 52.7 73.2 52.5V52C73.2 51.9 73.2 51.8 73.1 51.8C73 51.8 72.9 52 72.7 52.3C72.5 52.7 72 53 71.5 52.9C71.1 52.9 70.7 52.7 70.4 52.4C70 51.9 69.8 51.3 69.9 50.7C69.9 50.1 70.1 49.5 70.5 49C70.8 48.7 71.2 48.5 71.7 48.5C72.2 48.5 72.6 48.8 72.9 49.2C73 49.4 73.1 49.5 73.2 49.5C73.3 49.5 73.3 49.5 73.3 49.4C73.3 49 73.2 48.7 73.2 48.6C72.7 48.6 72.3 48.5 71.8 48.5ZM32.5 34.1C38.7 33.5 41.5 32.5 41.6 29.7C41.6 28 40.2 26.8 37.8 26.8C35.4 26.8 33 27.7 31.2 29.3C29.5 30.6 28.4 32.7 28.3 34.9C28.3 37.7 30.2 39.4 33 39.5C35.3 39.5 37.4 38.5 39 36.8C39.4 36.5 39.6 36.1 39.8 35.6C39.8 35.4 39.7 35.3 39.5 35.3H39.4C39.1 35.3 38.8 35.7 38.2 36.1C37.3 37 36.2 37.5 34.9 37.7C33.3 37.7 32.3 36.6 32.3 34.7C32.4 34.5 32.4 34.3 32.5 34.1ZM32.7 33.1C33.7 29.6 35.5 27.8 36.9 27.8C37.4 27.8 37.8 28.2 37.8 28.9C37.7 30.9 35.7 33.1 32.7 33.1ZM55.4 27.7C56 27.7 56.4 28.1 56.4 28.9C56.4 29.8 55.6 31.6 53.8 33.9C52.5 35.5 51.6 36.4 50.7 36.4C50.1 36.4 49.8 36 49.8 35.2C50 33.4 50.8 31.6 52 30.2C53.2 28.6 54.3 27.8 55.4 27.7ZM55 33.7L54.5 36C54.3 36.7 54.2 37.4 54.2 38.1C54.1 38.8 54.7 39.4 55.3 39.5H55.5C57.1 39.4 58.6 38.7 59.7 37.5C60.4 36.9 60.9 36.2 61.2 35.4C61.2 35.2 61.1 35.1 60.9 35.1C60.5 35.1 60.4 35.5 59.9 36.1C59.3 36.8 58.8 37.2 58.4 37.2C58.2 37.2 58.2 37 58.2 36.7C59 33 60.1 29.4 61.4 25.8L62.9 21.7C63 21.5 63 21.4 63 21.2C63 21 62.8 20.9 62.7 20.9C61.1 21.5 59.4 21.8 57.7 21.8C56.9 21.8 56.5 21.8 56.5 22.4C56.5 22.6 56.7 22.7 57.1 22.8C57.8 23 58.2 23 58.2 23.3C58.2 23.7 58.1 24.1 57.9 24.5L56.8 27.5C56.1 27.2 55.3 27 54.6 27C52.1 27.2 49.9 28.3 48.2 30.1C46.4 31.7 45.4 33.9 45.3 36.3C45.3 38.3 46.4 39.6 47.9 39.6C50 39.4 52.3 37.5 55 33.7ZM60.4 50V51.5C60.4 51.9 60.4 52.3 60.2 52.7C59.9 53 59.5 53.2 59.1 53.2C58.1 53.2 57.9 52.8 57.9 51.8V49.2C57.9 48.9 57.9 48.9 58.1 48.9C58.3 48.9 58.5 48.9 58.5 48.8C58.5 48.7 58.5 48.7 58.4 48.7C58.1 48.7 57.8 48.8 57.5 48.8C57.2 48.8 56.9 48.8 56.6 48.7C56.5 48.7 56.5 48.7 56.5 48.8C56.5 48.9 56.7 48.9 56.9 48.9C57.1 48.9 57.1 49 57.1 49.2V51.8C57.1 52.2 57.1 52.5 57.3 52.9C57.7 53.3 58.3 53.5 58.9 53.4C59.5 53.5 60 53.3 60.4 52.9C60.6 52.5 60.7 52 60.6 51.6V50C60.6 49.4 60.6 49.1 60.8 49C61 48.9 61.3 49 61.3 48.9C61.3 48.8 61.2 48.8 61.1 48.8H59.8C59.7 48.8 59.6 48.8 59.6 48.9C59.6 49 59.9 49 60.1 49.1C60.3 49.2 60.3 49.4 60.3 50H60.4ZM52.4 48.4C51.8 48.4 51.1 48.6 50.6 49C49.6 49.9 49.5 51.4 50.4 52.4L50.6 52.6C51.1 53 51.7 53.3 52.3 53.3C52.9 53.3 53.6 53.1 54.1 52.7C54.6 52.3 54.9 51.6 54.9 50.9C54.9 50.2 54.6 49.5 54.1 49.1C53.7 48.7 53.1 48.4 52.4 48.4ZM52.4 53.1C51.4 53.1 50.7 52.2 50.7 50.8C50.7 49.4 51.4 48.7 52.3 48.7C53.2 48.7 54 49.5 54 51C54 52.5 53.3 53.1 52.4 53.1ZM78.4 34.8L80.4 28.1V27.9C80.4 27.7 80.3 27.6 80 27.6H77.5C77.1 27.6 76.8 27.8 76.6 28.1C76.3 29.4 75.8 30.6 75.3 31.8C73.5 35.7 71.1 37.7 70.5 37.6C70.3 37.6 70.1 37.5 70 37.2V37.1C70 36.6 70.2 36.2 70.3 35.7L71.9 31.5C72.3 30.6 72.5 29.7 72.7 28.8C72.7 27.7 72.1 27.1 70.9 27.1C69.5 27.2 68.1 27.8 67.2 28.8C66.6 29.3 66.1 30 65.8 30.7C65.8 30.9 65.9 31 66.1 31C66.6 31 66.8 30.4 67.3 29.9C67.7 29.4 68.2 29.1 68.7 28.9C69 29 69 29 69 29.2C69 29.9 68.8 30.6 68.4 31.2L66.9 35C66.6 35.7 66.4 36.5 66.4 37.3C66.4 38.7 67.1 39.4 68.6 39.4C70.8 39.4 72.9 37.6 75.2 34L74.9 35.4C74.7 36.2 74.6 36.9 74.6 37.7C74.6 38.7 75.3 39.4 76.7 39.4C79.1 39.3 81.2 38.1 82.5 36.1C84.7 33.3 85.7 30.6 85.7 29.1C85.7 27.6 85 27 84 27C83.2 26.9 82.6 27.5 82.5 28.3V28.5C82.5 29.5 83.6 30.4 83.6 31.6C83.3 33.5 82.4 35.2 81 36.6C80.5 37.3 79.8 37.7 78.9 37.9C78.5 37.9 78.1 37.5 78.1 36.8C78.1 36.1 78.2 35.5 78.4 34.8ZM99.2 33.9L98.6 36.1C98.4 36.8 98.2 37.6 98.2 38.3C98.2 39 98.8 39.5 99.4 39.5H99.5C101.1 39.4 102.6 38.7 103.7 37.5C104.4 36.9 104.9 36.2 105.2 35.4C105.2 35.2 105.1 35.1 104.9 35.1C104.5 35.1 104.4 35.6 103.9 36.1C103.4 36.6 103 37 102.6 37C102.2 37 102.2 36.8 102.2 36.4C102.2 36.1 102.3 35.7 102.4 35.4L104.9 27.9C105 27.7 105 27.5 105.1 27.3C105.1 27 104.9 27 104.3 27H102C101.6 27 101.5 27 101.3 27.4L101 27.9C100.3 27.5 99.6 27.2 98.8 27.2C96.7 27.2 94.2 28.3 92 30.6C90.3 32.1 89.3 34.2 89.2 36.5C89.2 38.5 90.3 39.7 91.9 39.7C94.1 39.5 96.5 37.6 99.2 33.9ZM99.4 27.9C100.1 27.9 100.5 28.4 100.5 29.2C100.5 30 99.7 31.9 97.7 34.4C96.4 36.1 95.4 37 94.4 37C93.8 37 93.4 36.5 93.4 35.7C93.7 33.7 94.6 31.9 95.8 30.4C97.1 28.7 98.3 27.9 99.4 27.9ZM116.7 37.2V35.6C116.6 29.7 116.3 27.1 113.9 27.1C112.5 27.1 111.2 27.9 110.5 29C110 29.5 109.7 30.1 109.5 30.8C109.5 31.1 109.6 31.2 109.8 31.2C110.3 31.2 110.4 30.7 110.8 30.1C111.2 29.5 111.4 29.3 111.7 29.3C112.3 29.3 112.5 30.1 112.8 31.6C113.2 33.5 113.3 35.5 113.3 37.5C113.3 41.4 111.7 43.4 110.3 43.4C109.8 43.4 109.5 43 108.8 42.4C108.4 42.1 108 42 107.6 42C106.8 41.9 106.2 42.5 106.1 43.2V43.3C106.1 44.3 106.9 45 108.3 45C111.5 45 114.1 42.3 117.9 37.5C120.9 33.7 122.4 31 122.4 29.2C122.4 28 121.8 27.3 120.9 27.3C120 27.3 119.3 28 119.3 28.9V29C119.3 29.7 119.9 30.7 119.9 31.8C119.9 32.9 118.8 34.8 116.7 37.2ZM76.4 52.5V49.1C76.4 48.9 76.4 48.8 76.6 48.8C76.8 48.8 77 48.8 77 48.7C77 48.6 77 48.6 76.9 48.6C76.3 48.7 75.7 48.7 75.1 48.6C75 48.6 75 48.6 75 48.7C75 48.8 75.2 48.8 75.4 48.8C75.6 48.8 75.6 48.9 75.6 49.1V52.4C75.6 52.7 75.6 52.8 75.3 52.9C75 53 75 52.9 75 53C75 53.1 75.1 53.1 75.2 53.1H77C77.1 53.1 77.2 53.1 77.2 53C77.2 52.9 77 52.9 76.9 52.9C76.8 52.9 76.4 52.9 76.4 52.5ZM79.9 52.5V49.2C79.9 48.9 79.9 48.9 80.1 48.9C80.3 48.9 80.5 48.9 80.5 48.8C80.5 48.7 80.5 48.7 80.4 48.7C80.1 48.7 79.8 48.8 79.5 48.8C79.2 48.8 78.9 48.8 78.6 48.7C78.5 48.7 78.5 48.7 78.5 48.8C78.5 48.9 78.6 48.9 78.8 48.9C79 48.9 79 49 79 49.2V52.5C79 52.8 79 52.9 78.7 53C78.4 53.1 78.4 53 78.4 53.1C78.4 53.2 78.5 53.2 78.6 53.2H79.5C80.5 53.2 81.3 53.3 81.7 53.3C81.9 53.3 81.9 53.3 81.9 53.1L82 52.4V52.3C82 52.3 82 52.2 81.9 52.2C81.8 52.2 81.7 52.5 81.3 52.8C81.1 53 80.8 53.1 80.4 53.1C80.1 53.1 79.9 52.9 79.9 52.5Z" fill="black"/>
</svg>
