<svg xmlns="http://www.w3.org/2000/svg" width="64" height="65" fill="none"><g clip-path="url(#a)"><path fill="#fff" fill-rule="evenodd" d="M16.157 10.755c-1.393 0-2.522 1.16-2.522 2.589 0 1.43 1.129 2.588 2.522 2.588 1.393 0 2.522-1.159 2.522-2.588 0-1.43-1.13-2.589-2.522-2.589Zm-4.081 2.589c0-2.313 1.827-4.189 4.08-4.189 2.255 0 4.082 1.876 4.082 4.189 0 1.596-.87 2.983-2.15 3.69.203.227.346.447.46.622l.019.03c.257.415.916 1.681 1.489 2.796a345.383 345.383 0 0 1 .995 1.955l4.142 2.29c.469.22.758.65.882 1.076.129.438.11.963-.145 1.422-.46.826-1.485 1.195-2.332.822l-.014-.006-4.866-2.258a1.412 1.412 0 0 1-.366-.18v4.544c0 .134-.014.384-.154.626l2.849 6.887v.067a2.017 2.017 0 0 1 .052.202l.01.065.734 4.146h3.477c.248 0 .428.113.5.163.093.066.169.142.227.211.117.14.217.318.282.518l.072.222-.055.226c-.174.714-.743 2.866-1.382 5.284-.602 2.275-1.266 4.785-1.72 6.55l-.054.209-.149.153-.006.006c-.028.03-.098.101-.178.163a.935.935 0 0 1-.569.203h-8.152a.995.995 0 0 1-.851-.442 1.007 1.007 0 0 1-.049-.992l.009-.018c.75-1.448 1.7-3.367 2.628-5.243.487-.982.967-1.953 1.41-2.837l.593-1.186-1.378-5.986-1.722-3.497-.063 2.816c-.002.421-.11.771-.314 1.095l-1.29 2.382h2.778c.502 0 .769.379.86.597.052.125.086.275.08.436a.931.931 0 0 1-.177.519c-1.272 1.958-2.527 3.916-3.783 5.876-1.244 1.94-2.49 3.883-3.75 5.826a.852.852 0 0 1-.742.513c-.043.003-.084.003-.098.003H.189c-.44 0-.739-.302-.866-.563a1.007 1.007 0 0 1 .162-1.13c.94-1.067 1.863-2.118 2.786-3.17.927-1.054 1.853-2.109 2.797-3.18l.579-.659a2.12 2.12 0 0 1 .338-.943l4.127-8.269-.365-6.748c-.106-.087-.2-.2-.275-.34a1.462 1.462 0 0 1-.158-.692c0-.078.017-.299.037-.541l.037-.437c-.32.523-.888.88-1.518.88-.89 0-1.776-.692-1.79-1.743l-.337-6.019v-.023c0-.532.2-1.09.565-1.464l.016-.017.017-.016 3.654-3.333.016-.013c.181-.149.613-.485 1.048-.81.41-.305.906-.662 1.179-.802.132-.068.333-.172.485-.27a4.248 4.248 0 0 1-.647-2.264Zm-4.674 8.665a.418.418 0 0 0-.06.113.616.616 0 0 0-.04.194l.337 6.01v.023c0 .032.01.065.048.1a.271.271 0 0 0 .183.068c.04 0 .1-.02.156-.077a.24.24 0 0 0 .075-.16v-5.832l.274-.24.505.61-.505-.61.287-.25a285.935 285.935 0 0 0 1.326-1.173 27.86 27.86 0 0 0 .33-.3l.025-.024.008-.008 1.527-1.567-.2 2.207-.776-.074.776.074-.126 1.398a3328.453 3328.453 0 0 0-.556 6.242c-.038.438-.07.807-.091 1.075l-.001.012.323-.056.465 8.576-4.366 8.747-.03.045a.467.467 0 0 0-.081.401.684.684 0 0 0 .315.39c.245.152.592.097.811-.268l4.725-8.728.017-.027a.383.383 0 0 0 .071-.248v-.018l.135-6.016 1.475-.343 3.209 6.516 2.045 8.888.003.013c.046.239.36.466.632.41l.014-.003c.271-.05.533-.363.51-.77l-1.613-9.107a.141.141 0 0 1-.003-.008c-.006-.02-.022-.069-.035-.118a1.073 1.073 0 0 1-.012-.046l-3.457-8.357h.736v-9.587l1.428 2.198c.065.1.16.289.24.45a108.335 108.335 0 0 1 .572 1.193l.086.184.008.017a2.295 2.295 0 0 0 .08.114l.037.01 4.973 2.306c.097.04.281-.007.36-.147a.234.234 0 0 0 .005-.169c-.018-.061-.042-.081-.045-.084l-.027-.012-4.623-2.554-.11-.22.692-.367-.692.367-.09-.18a269.904 269.904 0 0 0-1.01-1.984c-.587-1.142-1.204-2.323-1.421-2.677a9.81 9.81 0 0 0-.117-.176 3.468 3.468 0 0 1-.578.056h-.27a4.997 4.997 0 0 1-3.215-1.195l-.131.068-.01.005c-.132.068-.512.333-.96.667-.412.306-.81.616-.975.751L7.402 22.01Zm9.39 8.138c0 .012 0 .012 0 0Zm-6.846-7.212-.272.239-.014.012v2.943a2091.762 2091.762 0 0 1 .286-3.194Zm7.802 26.163-.474.959a494.29 494.29 0 0 1-2.192 4.391h6.773c.37-1.433.844-3.23 1.307-4.979-.486.731-1.27 1.142-1.985 1.305l-.083.019h-.056a2.837 2.837 0 0 0-.043.01l-.005.002c-.03.008-.084.022-.141.033a1.293 1.293 0 0 1-.245.024 3.165 3.165 0 0 1-2.856-1.764Zm6.02-1.92c.373-1.415.7-2.651.902-3.438h-1.514l.57 3.19c.017.082.031.164.042.247Zm8.077-29.69c.304-1.212 1.381-1.97 2.571-1.97h15.362c1.157 0 2.187.786 2.559 1.93l.004.011 1.522 5.25h.699c.835 0 1.52.704 1.52 1.56v.692c0 .481-.216.915-.554 1.202a6.198 6.198 0 0 1 1.363 3.846v.052l-.742 5.746c-.03 1.199-.999 2.055-2.059 2.055h-.164v1.62c0 1.23-.982 2.114-2.06 2.114h-1.01a1.996 1.996 0 0 1-1.471-.617 2.002 2.002 0 0 1-.522-1.53v-1.587H35.33v1.62c0 1.23-.982 2.114-2.06 2.114h-1.01c-1.05 0-2.083-.869-1.992-2.146v-1.588h-.164c-1.177 0-2.029-.973-2.059-2.055l-.742-5.746v-.052c0-1.499.494-2.834 1.376-3.905a1.576 1.576 0 0 1-.567-1.212v-.623c0-.856.686-1.56 1.52-1.56h.7l1.513-5.222Zm-.018 20.927v1.104l-.004.036c-.011.131.031.23.104.304a.47.47 0 0 0 .333.137h1.01c.27 0 .501-.222.501-.514v-1.067h-1.944Zm18.595 0v1.104l-.003.036c-.014.16.034.257.089.315.058.062.168.126.348.126h1.01c.27 0 .501-.222.501-.514v-1.067h-1.945ZM34.416 17.117c-.555 0-.956.34-1.063.777l-.004.017-1.855 6.398H29.67v.543h1.763l2.086-6.85a.845.845 0 0 1 .801-.686l.015-.001h.012v.8-.8H49.71a1.29 1.29 0 0 1 .125.006.8.8 0 0 1 .485.237.84.84 0 0 1 .23.487l1.954 6.876h2.018v-.612H52.7l-1.846-6.367c-.17-.51-.62-.825-1.076-.825H34.416Zm18.34 8.692.037.128-1.318-.338c-.16-.041-.33-.046-.686-.046H33.136c-.268 0-.47.002-.723.054l-.978.2-.676.496c-1.207.886-1.882 2.151-1.896 3.655l.74 5.737v.053c0 .277.217.514.501.514H54.09c.27 0 .5-.222.5-.514v-.053l.742-5.737c-.017-1.433-.753-2.771-1.84-3.593l-.735-.556Zm-19.415-1.856h17.265l-1.432-5.038H34.876l-1.535 5.038Zm16.384-5.038h-.006.006ZM31.96 30.532v.544h2.956v-.544H31.96Zm-1.558-.04c0-.856.686-1.56 1.52-1.56h3.032c.835 0 1.52.704 1.52 1.56v.623c0 .857-.685 1.56-1.52 1.56h-3.032c-.834 0-1.52-.703-1.52-1.56v-.622Zm18.807.04v.544h2.955v-.544H49.21Zm-1.559-.04c0-.856.686-1.56 1.52-1.56h3.033c.834 0 1.52.704 1.52 1.56v.623c0 .857-.686 1.56-1.52 1.56h-3.032c-.835 0-1.521-.703-1.521-1.56v-.622Zm-8.856 2.836Zm-.654.553a.876.876 0 0 1-.192-.526v-.027h.188-.188v-.346c0-.157.04-.328.141-.484a.846.846 0 0 1 .68-.385h.025v.166-.166h6.603a.832.832 0 0 1 .757.477.905.905 0 0 1 .09.365V32.98l-.19.001h.19v.346a.885.885 0 0 1-.191.553.873.873 0 0 1 .19.526l.001.014V34.434h-.19.19v.346c0 .157-.04.328-.141.484a.846.846 0 0 1-.679.385H45.4v-.193.193h-6.603a.831.831 0 0 1-.757-.477.9.9 0 0 1-.089-.346v-.019l-.001-.014v-.012l.189-.001h-.19v-.346a.887.887 0 0 1 .193-.553Zm7.258.553Zm.067 0h-.067.067Zm8.566 7.94c.03.027.06.058.07.07l.013.013.013.014c.674.761 6.93 7.873 10.37 11.818.233.252.346.622.246.98a.897.897 0 0 1-.45.562.83.83 0 0 1-.534.079h-7.986c-.002 0-.06 0-.117-.005a.84.84 0 0 1-.499-.23 1.731 1.731 0 0 1-.066-.065l-.004-.003-.057-.059-.044-.07a1231.662 1231.662 0 0 0-4.153-6.443 621.041 621.041 0 0 1-3.405-5.291.894.894 0 0 1-.229-.483.965.965 0 0 1 .115-.606c.129-.23.42-.515.846-.515h5.255a.836.836 0 0 1 .616.234Zm-.888 1.366a4044.94 4044.94 0 0 1 9.28 10.57h-6.319c-1.105-1.73-2.612-4.059-3.992-6.192-1.118-1.727-2.153-3.326-2.826-4.378h3.857Zm-39.762 0-2.807 5.184a3.146 3.146 0 0 1-2.773 1.662 2.99 2.99 0 0 1-1.539-.456 3.28 3.28 0 0 1-.648-.498l-2.186 2.487-1.925 2.191h6.442c1.215-1.873 2.416-3.746 3.618-5.621 1.057-1.648 2.115-3.3 3.183-4.95h-1.365Zm15.3-1.373a.983.983 0 0 1 .613-.227h5.39c.227 0 .48.091.67.286a.927.927 0 0 1 .256.769c.173 1.5.942 8.006 1.397 11.676l.006.05v.05c0 .193-.047.485-.278.722a.967.967 0 0 1-.703.286H27.88a.967.967 0 0 1-.702-.286 1.022 1.022 0 0 1-.28-.721v-.051l.007-.05c.467-3.77 1.266-10.532 1.41-11.787.02-.334.196-.577.367-.717Zm1.127 1.373a2233.52 2233.52 0 0 1-1.272 10.64h6.84a2220.48 2220.48 0 0 1-1.273-10.64h-4.295Zm7.87-.524c0-.188.043-.421.181-.634a.95.95 0 0 1 .8-.442h5.39c.297 0 .815.171.95.675.274.538 1.015 2.043 1.92 3.882 1.247 2.53 2.804 5.692 3.887 7.838l.005.01a.99.99 0 0 1-.124 1.06 1.007 1.007 0 0 1-.776.374H41.76c-.32 0-.897-.2-.973-.802-.454-1.761-1.109-4.237-1.703-6.484a494.927 494.927 0 0 1-1.382-5.283l-.023-.095v-.099Zm1.717.524c.258.999.699 2.667 1.182 4.495.553 2.09 1.161 4.39 1.615 6.144h6.782a1256.332 1256.332 0 0 1-3.464-6.999c-.81-1.644-1.482-3.009-1.8-3.64h-4.315Z" clip-rule="evenodd"/></g><defs><clipPath id="a"><path fill="#fff" d="M0 .602h64v64H0z"/></clipPath></defs></svg>