<svg xmlns="http://www.w3.org/2000/svg" width="64" height="65" fill="none"><mask id="a" width="42" height="53" x="10.486" y="6.201" fill="#000" maskUnits="userSpaceOnUse"><path fill="#fff" d="M10.486 6.201h42v53h-42z"/><path fill-rule="evenodd" d="m28.147 50.32.597-2.216h5.302l.597 2.216h-6.496Zm-3.627 7.683h13.752L35.22 46.657h-.001l-.076-.28H27.65l-.075.28-3.055 11.346Zm4.609-13.589-1.375.61-2.405-4.987-.12.016c-.509.069-1.021.138-1.535.14-.273 0-.545-.008-.813-.026-6.355-.405-11.395-5.485-11.395-11.677.004-4.294 2.476-8.11 6.247-10.13.366-.196.746-.376 1.136-.537h.002c.447-.185.91-.346 1.384-.48a10.59 10.59 0 0 1 .206-1.495l.006-.03c.087-.404.197-.8.329-1.188 1.466-4.306 5.633-7.426 10.597-7.429h.002c4.96.002 9.122 3.113 10.595 7.406.131.383.241.775.328 1.176l.012.055c.105.491.175.995.209 1.507a12.8 12.8 0 0 1 1.351.468l.034.014c.38.157.75.332 1.108.522 3.784 2.015 6.27 5.833 6.275 10.136v.007c0 3.046-1.22 5.824-3.218 7.908-.41.429-.855.828-1.328 1.195a12.451 12.451 0 0 1-7.658 2.598h-.004c-.558-.003-1.114-.076-1.67-.153l-2.453 5.04-1.367-.613.086-.178-.13-.059 2.866-5.893.572.104a10.697 10.697 0 0 0 1.943.18h.007c1.742 0 3.383-.407 4.828-1.126a10.359 10.359 0 0 0 3.975-3.467 9.716 9.716 0 0 0 1.673-5.455v-.006c-.01-4.45-3.056-8.34-7.467-9.608a10.939 10.939 0 0 0-.46-.122l-.548-.127-.01-.548a8.993 8.993 0 0 0-.016-.417c-.293-4.821-4.447-8.616-9.534-8.62-5.083.003-9.238 3.799-9.53 8.617a8.944 8.944 0 0 0-.016.416l-.008.544-.554.131c-.153.037-.306.077-.456.12-4.415 1.27-7.465 5.168-7.469 9.622.001 5.555 4.684 10.042 10.48 10.046h.008a10.593 10.593 0 0 0 1.94-.18l.568-.104 2.817 5.841-.131.058.086.178Zm.19-19.206a4.512 4.512 0 0 1 3.975-2.37 4.52 4.52 0 0 1 3.972 2.348 4.373 4.373 0 0 1 .474 2.826 4.274 4.274 0 0 1-.137.567l-.003.01a4.434 4.434 0 0 1-.655 1.287l-.002.004a4.53 4.53 0 0 1-2.27 1.629 4.38 4.38 0 0 1-1.417.23c-.04 0-.08 0-.118-.002a4.421 4.421 0 0 1-3.62-2.052 4.367 4.367 0 0 1-.199-4.477Zm5.787 4.457c.167-.136.32-.29.454-.46l.003-.005c.169-.215.308-.454.412-.713l.01-.026c.066-.168.117-.344.15-.527l.001-.003a3.004 3.004 0 0 0 .018-.99 2.921 2.921 0 0 0-2.898-2.492 2.921 2.921 0 0 0-2.928 2.935 3 3 0 0 0 .058.588 2.975 2.975 0 0 0 2.908 2.3 3.013 3.013 0 0 0 1.572-.443c.083-.051.163-.106.24-.164Zm8.506 1.887V33h-4.737v-.008h-.15v-.068c-.003-.189-.006-.369 0-.544l.003-.046c.009-.18.029-.357.071-.535a2.168 2.168 0 0 1 .789-1.247 3.635 3.635 0 0 1 .431-.3c.056-.034.113-.068.17-.1.126-.074.256-.145.384-.215l.125-.068.215-.12.023-.014.016-.01.003-.002.031-.019c.214-.13.443-.28.594-.475l.013-.016a.758.758 0 0 0 .16-.443.445.445 0 0 0-.003-.188l-.001-.003a.463.463 0 0 0-.015-.047l-.004-.012a.596.596 0 0 0-.007-.016l-.008-.016c-.109-.222-.394-.364-.653-.383a.723.723 0 0 0-.105 0 .867.867 0 0 0-.216.046l-.026.016-.003.003a.877.877 0 0 0-.182.163l-.002.002a.741.741 0 0 0-.047.064l-.004.006a.707.707 0 0 0-.11.32H40.2a1.287 1.287 0 0 0-.01.078h-1.463l.061-.564.007-.055c.047-.307.195-.576.408-.799.045-.047.092-.091.142-.133v-.001a2.476 2.476 0 0 1 .149-.115c.04-.028.082-.056.125-.082l.04-.029c.211-.149.454-.265.71-.343a2.708 2.708 0 0 1 .987-.112h.003a2.58 2.58 0 0 1 1.184.387c.258.165.482.379.647.635.163.25.253.527.282.813a2.064 2.064 0 0 1-.022.57l-.002.011c-.074.421-.267.827-.544 1.15a2.497 2.497 0 0 1-.273.28c-.24.212-.515.382-.796.545l-.028.016-.127.074-.002.001-.087.05-.206.121c-.12.072-.238.146-.353.226l-.007.005a4.036 4.036 0 0 0-.136.1h2.724Zm-17.296-2.767 1.318.705-.01.016.085.045a4.314 4.314 0 0 1-.361.527 4.388 4.388 0 0 1-1.622 1.26 4.44 4.44 0 0 1-2.407.365 4.551 4.551 0 0 1-.431-.06h-.004l-.035-.008c-1.888-.373-3.321-1.888-3.58-3.749l-.001-.002-.004-.03c-.25-1.874.732-3.706 2.464-4.554l.07-.034.003-.001a4.524 4.524 0 0 1 2.718-.352 4.525 4.525 0 0 1 2.404 1.235l-.045.041a4.403 4.403 0 0 1 .134.127l-1.06.985a2.934 2.934 0 0 0-2.08-.85 2.95 2.95 0 0 0-1.346.336 2.936 2.936 0 0 0-1.555 2.955v.002l.004.03a2.932 2.932 0 0 0 2.018 2.405l.125.029.037.007a2.972 2.972 0 0 0 3.16-1.43Zm.287 27.293h9.587l-1.062-3.95h-7.467l-1.058 3.95Z" clip-rule="evenodd"/></mask><path fill="#fff" fill-rule="evenodd" d="m28.147 50.32.597-2.216h5.302l.597 2.216h-6.496Zm-3.627 7.683h13.752L35.22 46.657h-.001l-.076-.28H27.65l-.075.28-3.055 11.346Zm4.609-13.589-1.375.61-2.405-4.987-.12.016c-.509.069-1.021.138-1.535.14-.273 0-.545-.008-.813-.026-6.355-.405-11.395-5.485-11.395-11.677.004-4.294 2.476-8.11 6.247-10.13.366-.196.746-.376 1.136-.537h.002c.447-.185.91-.346 1.384-.48a10.59 10.59 0 0 1 .206-1.495l.006-.03c.087-.404.197-.8.329-1.188 1.466-4.306 5.633-7.426 10.597-7.429h.002c4.96.002 9.122 3.113 10.595 7.406.131.383.241.775.328 1.176l.012.055c.105.491.175.995.209 1.507a12.8 12.8 0 0 1 1.351.468l.034.014c.38.157.75.332 1.108.522 3.784 2.015 6.27 5.833 6.275 10.136v.007c0 3.046-1.22 5.824-3.218 7.908-.41.429-.855.828-1.328 1.195a12.451 12.451 0 0 1-7.658 2.598h-.004c-.558-.003-1.114-.076-1.67-.153l-2.453 5.04-1.367-.613.086-.178-.13-.059 2.866-5.893.572.104a10.697 10.697 0 0 0 1.943.18h.007c1.742 0 3.383-.407 4.828-1.126a10.359 10.359 0 0 0 3.975-3.467 9.716 9.716 0 0 0 1.673-5.455v-.006c-.01-4.45-3.056-8.34-7.467-9.608a10.939 10.939 0 0 0-.46-.122l-.548-.127-.01-.548a8.993 8.993 0 0 0-.016-.417c-.293-4.821-4.447-8.616-9.534-8.62-5.083.003-9.238 3.799-9.53 8.617a8.944 8.944 0 0 0-.016.416l-.008.544-.554.131c-.153.037-.306.077-.456.12-4.415 1.27-7.465 5.168-7.469 9.622.001 5.555 4.684 10.042 10.48 10.046h.008a10.593 10.593 0 0 0 1.94-.18l.568-.104 2.817 5.841-.131.058.086.178Zm.19-19.206a4.512 4.512 0 0 1 3.975-2.37 4.52 4.52 0 0 1 3.972 2.348 4.373 4.373 0 0 1 .474 2.826 4.274 4.274 0 0 1-.137.567l-.003.01a4.434 4.434 0 0 1-.655 1.287l-.002.004a4.53 4.53 0 0 1-2.27 1.629 4.38 4.38 0 0 1-1.417.23c-.04 0-.08 0-.118-.002a4.421 4.421 0 0 1-3.62-2.052 4.367 4.367 0 0 1-.199-4.477Zm5.787 4.457c.167-.136.32-.29.454-.46l.003-.005c.169-.215.308-.454.412-.713l.01-.026c.066-.168.117-.344.15-.527l.001-.003a3.004 3.004 0 0 0 .018-.99 2.921 2.921 0 0 0-2.898-2.492 2.921 2.921 0 0 0-2.928 2.935 3 3 0 0 0 .058.588 2.975 2.975 0 0 0 2.908 2.3 3.013 3.013 0 0 0 1.572-.443c.083-.051.163-.106.24-.164Zm8.506 1.887V33h-4.737v-.008h-.15v-.068c-.003-.189-.006-.369 0-.544l.003-.046c.009-.18.029-.357.071-.535a2.168 2.168 0 0 1 .789-1.247 3.635 3.635 0 0 1 .431-.3c.056-.034.113-.068.17-.1.126-.074.256-.145.384-.215l.125-.068.215-.12.023-.014.016-.01.003-.002.031-.019c.214-.13.443-.28.594-.475l.013-.016a.758.758 0 0 0 .16-.443.445.445 0 0 0-.003-.188l-.001-.003a.463.463 0 0 0-.015-.047l-.004-.012a.596.596 0 0 0-.007-.016l-.008-.016c-.109-.222-.394-.364-.653-.383a.723.723 0 0 0-.105 0 .867.867 0 0 0-.216.046l-.026.016-.003.003a.877.877 0 0 0-.182.163l-.002.002a.741.741 0 0 0-.047.064l-.004.006a.707.707 0 0 0-.11.32H40.2a1.287 1.287 0 0 0-.01.078h-1.463l.061-.564.007-.055c.047-.307.195-.576.408-.799.045-.047.092-.091.142-.133v-.001a2.476 2.476 0 0 1 .149-.115c.04-.028.082-.056.125-.082l.04-.029c.211-.149.454-.265.71-.343a2.708 2.708 0 0 1 .987-.112h.003a2.58 2.58 0 0 1 1.184.387c.258.165.482.379.647.635.163.25.253.527.282.813a2.064 2.064 0 0 1-.022.57l-.002.011c-.074.421-.267.827-.544 1.15a2.497 2.497 0 0 1-.273.28c-.24.212-.515.382-.796.545l-.028.016-.127.074-.002.001-.087.05-.206.121c-.12.072-.238.146-.353.226l-.007.005a4.036 4.036 0 0 0-.136.1h2.724Zm-17.296-2.767 1.318.705-.01.016.085.045a4.314 4.314 0 0 1-.361.527 4.388 4.388 0 0 1-1.622 1.26 4.44 4.44 0 0 1-2.407.365 4.551 4.551 0 0 1-.431-.06h-.004l-.035-.008c-1.888-.373-3.321-1.888-3.58-3.749l-.001-.002-.004-.03c-.25-1.874.732-3.706 2.464-4.554l.07-.034.003-.001a4.524 4.524 0 0 1 2.718-.352 4.525 4.525 0 0 1 2.404 1.235l-.045.041a4.403 4.403 0 0 1 .134.127l-1.06.985a2.934 2.934 0 0 0-2.08-.85 2.95 2.95 0 0 0-1.346.336 2.936 2.936 0 0 0-1.555 2.955v.002l.004.03a2.932 2.932 0 0 0 2.018 2.405l.125.029.037.007a2.972 2.972 0 0 0 3.16-1.43Zm.287 27.293h9.587l-1.062-3.95h-7.467l-1.058 3.95Z" clip-rule="evenodd"/><path fill="#fff" d="M28.744 48.104v-.2h-.153l-.04.148.193.052Zm-.597 2.216-.194-.052-.067.252h.26v-.2Zm5.899-2.216.193-.052-.04-.148h-.153v.2Zm.597 2.216v.2h.261l-.068-.252-.193.052Zm3.63 7.683v.2h.26l-.068-.252-.193.052Zm-13.753 0-.193-.052-.068.252h.261v-.2Zm10.7-11.346.193-.052-.04-.148h-.153v.2Zm-.001 0-.194.052.04.148h.154v-.2Zm-.076-.28.193-.053-.04-.148h-.153v.2Zm-7.493 0v-.2h-.153l-.04.147.193.052Zm-.075.28v.2h.153l.04-.148-.193-.052Zm0 0v-.2h-.154l-.04.148.193.052Zm.18-1.633-.181.087.084.174.177-.078-.08-.183Zm1.374-.61.08.183.19-.084-.09-.185-.18.086Zm-3.78-4.377.18-.087-.062-.13-.144.019.026.198Zm-.12.016-.026-.198.027.198Zm-1.535.14v.2h.001l-.001-.2Zm-.813-.026.012-.2-.012.2ZM11.486 28.49h-.2.2Zm6.247-10.13-.095-.176.095.176Zm1.136-.537-.076-.185.076.185Zm.002 0 .076.184-.076-.185Zm1.384-.48.055.192.136-.039.009-.14-.2-.014Zm.206-1.495-.195-.042.195.042Zm.006-.03-.195-.042.195.042Zm.329-1.188.19.065-.19-.065Zm10.597-7.429v-.2.2Zm.002 0v-.2.2Zm10.595 7.406.189-.065-.19.065Zm.328 1.176.196-.042-.196.042Zm.012.055.196-.042-.196.042Zm.209 1.507-.2.014.01.14.135.039.054-.193Zm1.351.468.077-.185-.077.185Zm.034.014.076-.185-.076.185Zm1.108.522-.094.177.094-.177Zm6.275 10.136h.2-.2Zm0 .007h.2-.2ZM48.089 36.4l.145.138-.145-.138Zm-1.328 1.195-.122-.158.122.158Zm-6.88 2.574.013.2-.013-.2Zm-.778.024v.2-.2Zm-.004 0v.2-.2Zm-1.67-.153.028-.198-.144-.02-.063.13.18.088Zm-2.453 5.04-.081.182.176.08.085-.175-.18-.087Zm-1.367-.613-.18-.087-.09.185.188.085.081-.183Zm.086-.178.18.087.09-.185-.188-.085-.082.183Zm-.13-.059-.18-.087-.091.185.188.085.082-.183Zm2.866-5.893.036-.197-.149-.027-.066.136.18.088Zm.572.104-.036.197.036-.197Zm.486.078.027-.198-.027.198Zm1.456.102v.2-.2Zm.008 0v.2-.2Zm4.828-1.126-.09-.179.09.179Zm3.975-3.467.166.112-.166-.112Zm1.673-5.455h.2-.2Zm0-.006h.2v-.001h-.2Zm-7.467-9.608.055-.193-.055.193Zm-.46-.122.047-.195h-.002l-.045.195Zm-.548-.127-.2.004.003.155.152.036.045-.195Zm-.01-.548-.2.003.2-.003Zm-.016-.417-.2.012.2-.012Zm-9.534-8.62v-.2.2Zm-9.53 8.617.2.012-.2-.012Zm-.016.416.2.003-.2-.003Zm-.008.544.046.195.152-.036.002-.156-.2-.003Zm-.554.131-.046-.195.046.195Zm-.456.12.055.193-.055-.192Zm-7.469 9.622h-.2.2Zm10.48 10.046v.2-.2Zm.008 0v.2-.2Zm1.447-.1-.027-.198.027.199Zm.493-.08-.037-.196.037.196Zm.568-.104.18-.087-.066-.138-.15.028.036.197Zm2.817 5.841.08.183.19-.084-.09-.186-.18.087Zm-.131.058-.081-.183-.19.084.09.186.18-.087Zm3.152-21.264-.048-.194.048.194Zm-2.877 2.236.176.095-.176-.095Zm6.955-1.256.131-.15-.131.15Zm.993 1.234.176-.095-.176.095Zm.442 1.193.196-.042-.196.042Zm.091.75.2-.007-.2.007Zm-.036.73-.198-.026.198.027Zm-.023.153.197.034-.197-.034Zm-.052.256.195.045-.195-.045Zm-.062.235-.192-.056.192.056Zm-.023.076.191.06-.19-.06Zm-.003.01.19.061-.19-.06Zm-.101.287-.187-.074.187.073Zm-.554 1.001.161.119-.161-.119Zm-.002.003.16.119-.16-.119Zm-2.27 1.629-.061-.19h-.003l.064.19Zm-.288.085-.05-.193.05.193Zm-.388.084.033.197-.033-.197Zm-.86.06-.005.2.006-.2Zm-1.428-.276-.07.188.07-.188Zm-2.192-1.777.17-.107-.003-.003-.167.11Zm-.56-1.23-.192.055.193-.054Zm-.16-1.256.2.003-.2-.003Zm.093-.82.196.04-.196-.04Zm6.216 3.286.12.16.006-.005-.126-.155Zm.454-.46.157.123-.157-.123Zm.003-.005.157.124-.157-.124Zm.412-.713.186.074-.186-.074Zm.01-.026.186.074-.186-.074Zm.15-.527.197.037-.196-.037Zm.001-.003.197.036-.197-.036Zm.038-.271.199.018-.2-.018Zm-.02-.718.197-.03-.197.03Zm-.877-1.688-.138.145.138-.145Zm-1.872-.8.01-.2-.01.2Zm-2.758 1.59-.178-.091.178.09Zm-.318 1.266.2.005-.2-.005Zm.056.663-.196.039.002.006.195-.046Zm2.079 2.183-.055.192.055-.192Zm1.753-.028-.061-.19.06.19Zm.65-.3-.106-.17.105.17ZM43.611 33v.2h.2V33h-.2Zm0-1.447h.2v-.2h-.2v.2ZM38.875 33l-.2.003.003.197h.197V33Zm0-.008.2-.003-.003-.197h-.197v.2Zm-.15 0-.2.003.004.197h.197v-.2Zm0-.068.2-.003-.2.003Zm0-.544-.2-.009v.001l.2.008Zm.003-.046-.2-.01v.001l.2.009Zm.071-.535-.194-.046.194.046Zm.233-.603-.176-.096.176.096Zm.556-.644-.126-.155.126.155Zm.24-.177.113.166-.113-.166Zm.191-.123-.105-.17.105.17Zm.17-.1.1.172-.1-.173Zm.384-.215.096.176-.096-.176Zm0 0-.096-.175.096.175Zm.125-.068.096.175-.096-.175Zm.215-.12.1.173.004-.002-.104-.171Zm.023-.014.103.171-.103-.171Zm.016-.01.103.172-.103-.172Zm.003-.002.103.171-.103-.17Zm.031-.019.104.171-.104-.17Zm.594-.475.158.123.001-.001-.159-.122Zm.013-.016.159.121.001-.001-.16-.12Zm.05-.076.172.104-.171-.104Zm.09-.209.194.049-.194-.049Zm.02-.158-.196-.037-.003.017v.016l.2.004Zm-.003-.188.194-.046v-.001l-.194.047Zm-.001-.003.194-.048-.194.047Zm-.015-.047.188-.07-.001-.002-.187.072Zm-.004-.012.187-.072-.002-.002-.185.074Zm-.007-.016-.183.081.183-.081Zm-.008-.016-.179.089.18-.089Zm-.653-.383.014-.2-.014.2Zm-.082 0-.01-.2.01.2Zm-.023 0-.016-.199.015.2Zm-.216.046-.065-.189-.021.007-.02.012.106.17Zm-.026.016-.11-.166h-.001l.111.166Zm-.003.003.112.166-.112-.166Zm-.032.022-.118-.161.118.161Zm-.15.141-.154-.128.154.128Zm-.002.002-.154-.128.154.128Zm-.047.064-.167-.11.167.11Zm-.004.006-.167-.11.167.11Zm-.036.061-.177-.091.177.091Zm-.016.034-.182-.082.182.082Zm-.048.156-.197-.036.197.036Zm-.01.07v.2h.186l.014-.185-.2-.015Zm-.168 0v-.2h-.165l-.032.162.197.038Zm-.002.008.197.036-.197-.036Zm-.009.069v.2h.185l.015-.185-.2-.015Zm-1.462 0-.2-.022-.023.222h.223v-.2Zm.061-.564-.199-.022.199.022Zm.007-.055-.198-.03.198.03Zm.408-.799-.145-.138.145.138Zm.142-.133.13.152-.13-.152Zm0-.001-.129-.153.13.153Zm.036-.03-.126-.155.126.155Zm.06-.046.12.16-.12-.16Zm.053-.039.115.164-.115-.164Zm.125-.082.104.171.007-.005.008-.005-.12-.16Zm.04-.029-.115-.163.115.163Zm.71-.343.058.191-.058-.191Zm.365-.085-.032-.198.032.198Zm.437-.033-.003.2h.004l-.001-.2Zm.185.006.014-.2-.014.2Zm.003 0 .014-.2-.014.2Zm.91.237-.085.18.085-.18Zm.274.15-.108.17.108-.17Zm.647.635-.169.108.001.002.168-.11Zm.282.813-.2.02.2-.02Zm.006.323-.2-.012.2.012Zm-.028.247.197.035-.197-.035Zm-.002.011.197.035-.197-.035Zm-.544 1.15-.152-.13-.002.003.154.128Zm-.273.28.132.15-.132-.15Zm-.796.545.101.173-.1-.173Zm-.028.016.1.173h.001l-.1-.173Zm-.127.074.1.173-.1-.173Zm-.002.001-.1-.173.1.173Zm-.087.05-.1-.173.1.173Zm-.206.121.103.172-.103-.172Zm-.353.226-.114-.165.114.165Zm-.007.005-.114-.165.114.165Zm-.136.1-.121-.16-.47.36h.59v-.2ZM27.634 29.49l.173.1.104-.179-.183-.098-.094.177Zm-1.318-.705.094-.177-.17-.09-.097.166.173.1Zm1.308.721-.172-.101-.106.18.184.098.094-.177Zm.085.045.173.101.104-.18-.183-.097-.094.176Zm-.045.075.171.104-.17-.104Zm-.316.452.156.125-.156-.125Zm-.64.648-.127-.155.127.154Zm-.305.23.113.164-.113-.165Zm-.677.382-.083-.182.083.182Zm-.287.118-.07-.187.07.187Zm-.406.13-.052-.193.052.193Zm-1.714.117.025-.198-.007-.001-.018.2Zm-.431-.06-.037.197.037-.197Zm-.004 0-.038.196.038-.197Zm-.035-.008-.039.197.039-.197Zm-3.58-3.749-.199.028.198-.028Zm-.001-.002-.198.027.198-.027Zm-.004-.03-.198.026.198-.027Zm2.464-4.554.088.18-.088-.18Zm.07-.034.085.181-.084-.18Zm.003-.001-.084-.181.084.181Zm2.004-.422.004-.2-.004.2Zm.661.06-.032.198.032-.197Zm.053.01.035-.197-.035.197Zm.798.215-.07.188.07-.188Zm1.296.741-.126.155.126-.155Zm.238.209.137-.145-.137.145Zm.072.07.136.146.153-.142-.148-.147-.14.142Zm-.045.041-.136-.146-.16.148.162.146.134-.148Zm.064.059.137-.146-.137.146Zm.07.068.136.146.154-.142-.15-.147-.14.143Zm-1.06.985-.142.142.137.135.14-.13-.136-.147Zm-1.06-.674-.069.188.069-.188Zm-.505-.135.033-.197-.034.197Zm-.514-.042.001.2-.001-.2Zm-1.279.303.088.18-.088-.18Zm-.068.034-.092-.178.092.178Zm-1.555 2.955-.199.024.199-.024Zm0 .002-.198.025.198-.024Zm.004.03-.199.026.199-.026Zm2.018 2.405-.061.19.011.003.05-.193Zm.125.029-.042.195h.002l.04-.195Zm.037.007-.04.196.04-.196Zm1.315-.032-.049-.194.05.194Zm.29-.09.068.188-.068-.188Zm1.296-.93.155.125-.155-.125Zm.547 26.915-.193-.052-.068.252h.261v-.2Zm9.587 0v.2h.261l-.068-.252-.193.052Zm-1.062-3.95.193-.052-.04-.148h-.153v.2Zm-7.467 0v-.2h-.153l-.04.148.193.052Zm.89-4.076-.598 2.216.387.104.597-2.216-.386-.104Zm5.495-.148h-5.302v.4h5.302v-.4Zm.79 2.364-.597-2.216-.386.104.597 2.216.386-.104Zm-6.69.252h6.497v-.4h-6.496v.4Zm10.126 7.283H24.52v.4h13.752v-.4Zm-3.246-11.094 3.053 11.346.386-.104-3.052-11.346-.387.104Zm.193.148v-.4.4Zm-.27-.429.077.281.386-.104-.076-.28-.386.103Zm-7.299.148h7.493v-.4H27.65v.4Zm.118.133.075-.28-.386-.105-.076.281.387.104Zm-.194.148v-.4.4Zm-2.86 11.198 3.053-11.346-.386-.104-3.054 11.346.386.104Zm3.121-12.849 1.375-.609-.163-.366-1.374.61.162.365Zm-2.666-5.082 2.405 4.986.36-.173-2.404-4.987-.36.174Zm.087.127.12-.016-.053-.396-.12.016.053.396Zm-1.561.143c.529-.003 1.054-.074 1.561-.143l-.053-.396c-.511.069-1.011.136-1.51.139l.002.4Zm-.827-.027c.273.018.548.026.826.027v-.4c-.27 0-.536-.01-.8-.026l-.026.4ZM11.286 28.49c0 6.305 5.13 11.466 11.582 11.877l.025-.4c-6.257-.398-11.207-5.399-11.207-11.477h-.4Zm6.352-10.306c-3.83 2.05-6.348 5.932-6.352 10.306h.4c.004-4.214 2.43-7.966 6.14-9.953l-.188-.353Zm1.155-.546c-.397.164-.782.346-1.155.546l.189.352c.361-.193.734-.37 1.119-.528l-.153-.37Zm.002 0h-.002l.153.37h.001l-.152-.37Zm1.406-.488c-.483.137-.952.3-1.407.488l.153.37c.44-.182.895-.34 1.363-.473l-.11-.385Zm.064-1.344a10.766 10.766 0 0 0-.21 1.523l.4.026c.033-.498.1-.988.202-1.466l-.392-.083Zm.007-.03-.006.03.39.083.007-.03-.391-.082Zm.335-1.21c-.135.394-.247.798-.335 1.21l.39.084c.086-.397.194-.786.323-1.165l-.378-.13ZM31.392 7c-5.05.003-9.293 3.178-10.787 7.565l.38.129c1.438-4.225 5.528-7.291 10.407-7.294v-.4Zm.002 0h-.002v.4h.002v-.4Zm10.784 7.541c-1.501-4.374-5.739-7.539-10.784-7.54v.4c4.875.001 8.96 3.058 10.406 7.27l.378-.13Zm.335 1.198a10.718 10.718 0 0 0-.335-1.198l-.378.13c.128.376.236.76.322 1.153l.39-.085Zm.012.056-.012-.055-.391.084.012.055.39-.084Zm.212 1.536a10.773 10.773 0 0 0-.212-1.536l-.391.083c.102.482.171.976.204 1.48l.4-.027Zm1.228.296a12.993 12.993 0 0 0-1.373-.475l-.11.385c.457.13.901.284 1.332.46l.151-.37Zm.034.014-.033-.014-.153.37.033.014.153-.37Zm1.126.53c-.364-.193-.74-.37-1.126-.53l-.153.37c.375.154.739.326 1.09.514l.189-.353Zm6.38 10.312c-.005-4.382-2.536-8.265-6.38-10.311l-.188.353c3.724 1.983 6.163 5.736 6.169 9.959h.4Zm0 .008v-.007h-.4v.007h.4Zm-3.272 8.046c2.03-2.118 3.272-4.945 3.273-8.046h-.4c0 2.991-1.199 5.72-3.162 7.77l.289.276Zm-1.35 1.215c.48-.372.932-.779 1.35-1.215l-.289-.276c-.404.421-.84.814-1.306 1.175l.245.316Zm-6.99 2.616a12.65 12.65 0 0 0 6.99-2.616l-.245-.316a12.25 12.25 0 0 1-6.77 2.533l.025.399Zm-.791.024c.265 0 .529-.008.79-.024l-.024-.4c-.253.016-.509.024-.767.024v.4Zm-.004 0h.004v-.4h-.004v.4Zm-1.697-.155c.555.077 1.123.152 1.696.155l.002-.4c-.543-.003-1.087-.074-1.643-.15l-.055.395Zm-2.246 4.93 2.453-5.04-.36-.175-2.452 5.04.36.174Zm-1.63-.518 1.369.612.163-.365-1.368-.612-.163.365Zm-.01-.448-.087.178.36.175.086-.179-.36-.174Zm-.034.21.132.06.163-.366-.131-.058-.164.365Zm2.77-6.163-2.868 5.894.36.175 2.867-5.894-.36-.175Zm.787-.005-.572-.104-.072.393.572.105.072-.393Zm.477.077c-.16-.022-.319-.047-.477-.076l-.072.393c.164.03.329.056.494.08l.055-.397Zm1.43.1c-.478 0-.957-.035-1.43-.1l-.055.396c.49.068.987.104 1.484.104v-.4Zm.007 0h-.008v.4h.008v-.4Zm4.738-1.105a10.618 10.618 0 0 1-4.738 1.105v.4c1.773 0 3.445-.414 4.917-1.147l-.179-.358Zm3.9-3.4a10.16 10.16 0 0 1-3.9 3.4l.179.358a10.56 10.56 0 0 0 4.052-3.534l-.332-.223Zm1.638-5.343a9.515 9.515 0 0 1-1.639 5.344l.332.223a9.916 9.916 0 0 0 1.707-5.567h-.4Zm0-.006v.006h.4v-.007h-.4Zm-7.322-9.416c4.33 1.245 7.313 5.06 7.322 9.416l.4-.001c-.01-4.544-3.12-8.508-7.612-9.8l-.11.385Zm-.452-.12c.152.037.303.077.452.12l.11-.385c-.154-.044-.31-.085-.468-.124l-.094.39Zm-.546-.126.547.127.09-.39-.547-.127-.09.39Zm-.166-.74.01.549.4-.008-.01-.548-.4.008Zm-.015-.408c.008.135.014.271.015.408l.4-.006a9.255 9.255 0 0 0-.016-.426l-.399.024Zm-9.334-8.432c4.989.004 9.048 3.723 9.334 8.432l.4-.024c-.3-4.933-4.548-8.804-9.734-8.808v.4Zm-9.33 8.43c.285-4.707 4.346-8.427 9.33-8.43v-.4c-5.181.003-9.43 3.875-9.73 8.805l.4.024Zm-.016.406c.002-.136.007-.272.015-.407l-.4-.024c-.008.141-.013.283-.015.425l.4.006Zm-.008.544.008-.544-.4-.006-.008.544.4.006Zm-.708.323.554-.131-.092-.39-.554.131.092.39Zm-.447.118c.148-.043.297-.082.448-.119l-.093-.388c-.157.037-.312.078-.465.123l.11.384Zm-7.324 9.429c.004-4.36 2.99-8.183 7.324-9.43l-.11-.383c-4.496 1.291-7.61 5.264-7.614 9.812h.4Zm10.28 9.846c-5.694-.004-10.28-4.41-10.28-9.846h-.4c.001 5.674 4.781 10.242 10.68 10.246v-.4Zm.008 0h-.009v.4h.009v-.4Zm1.42-.098c-.47.066-.947.098-1.42.098v.4c.491 0 .986-.034 1.475-.101l-.055-.397Zm.483-.078c-.16.03-.321.056-.483.078l.055.397c.168-.024.335-.05.502-.082l-.074-.393Zm.57-.105-.57.105.073.393.569-.105-.073-.393Zm3.032 5.951-2.816-5.841-.36.174 2.815 5.841.36-.174Zm-.23.328.13-.058-.162-.366-.13.058.162.366Zm.185-.091-.086-.179-.36.174.085.178.36-.173Zm2.838-21.55a4.712 4.712 0 0 0-3.005 2.335l.352.19a4.312 4.312 0 0 1 2.75-2.137l-.097-.388Zm1.147-.14c-.396 0-.78.048-1.147.14l.096.388a4.337 4.337 0 0 1 1.05-.128v-.4Zm3.11 1.163a4.72 4.72 0 0 0-3.11-1.163v.4a4.32 4.32 0 0 1 2.848 1.065l.262-.302Zm1.038 1.29a4.703 4.703 0 0 0-1.038-1.29l-.262.302c.383.334.705.734.949 1.18l.35-.192Zm.462 1.246a4.572 4.572 0 0 0-.462-1.246l-.351.191c.193.354.336.736.421 1.138l.392-.083Zm.095.785a4.546 4.546 0 0 0-.096-.785l-.39.083c.048.232.078.471.086.715l.4-.013Zm.003.156-.003-.156-.4.014c.002.047.003.094.003.142h.4Zm-.04.608c.026-.199.04-.402.04-.608h-.4c0 .188-.013.373-.037.555l.396.053Zm-.025.16a4.63 4.63 0 0 0 .024-.16l-.396-.053a4.136 4.136 0 0 1-.023.146l.395.067Zm-.054.267a4.56 4.56 0 0 0 .054-.267l-.395-.067c-.014.082-.03.163-.049.244l.39.09Zm-.065.246c.024-.081.046-.163.065-.246l-.39-.09c-.017.075-.037.15-.059.224l.384.112Zm-.024.08a4.32 4.32 0 0 0 .024-.08l-.384-.112a4.682 4.682 0 0 1-.022.072l.382.12Zm-.003.01.003-.01-.382-.12-.003.011.382.12Zm-.106.3c.038-.098.074-.198.106-.299l-.382-.12c-.029.092-.061.183-.096.272l.372.147Zm-.579 1.047c.236-.321.431-.673.579-1.047l-.373-.147a4.235 4.235 0 0 1-.528.957l.322.237Zm-.002.003.002-.003-.322-.237-.002.003.322.236Zm-2.37 1.7a4.73 4.73 0 0 0 2.37-1.7l-.322-.237a4.33 4.33 0 0 1-2.17 1.556l.121.381Zm-.298.089a4.64 4.64 0 0 0 .3-.09l-.127-.379c-.09.03-.181.058-.274.082l.101.387Zm-.406.087c.137-.023.273-.052.406-.087l-.101-.387a4.24 4.24 0 0 1-.371.08l.066.394Zm-.774.064c.263 0 .522-.022.774-.064l-.066-.395a4.29 4.29 0 0 1-.708.06v.4Zm-.124-.002c.041.002.082.002.124.002v-.4l-.113-.001-.01.4Zm-1.493-.288a4.62 4.62 0 0 0 1.493.288l.01-.4a4.218 4.218 0 0 1-1.363-.262l-.14.375Zm-2.29-1.857a4.626 4.626 0 0 0 2.29 1.857l.14-.374a4.226 4.226 0 0 1-2.093-1.697l-.338.214Zm-.584-1.282c.129.46.328.892.585 1.285l.334-.22a4.211 4.211 0 0 1-.534-1.173l-.385.108Zm-.169-1.232c0 .425.06.838.169 1.232l.385-.108a4.165 4.165 0 0 1-.154-1.124h-.4Zm.001-.083v.083h.4v-.076l-.4-.007Zm.097-.858a4.56 4.56 0 0 0-.097.858l.4.007c.005-.267.035-.529.089-.782l-.392-.083Zm.448-1.224c-.204.38-.357.792-.448 1.224l.392.083c.083-.395.222-.77.408-1.117l-.352-.19Zm6.09 4.707c.179-.145.342-.31.485-.492l-.314-.247a2.722 2.722 0 0 1-.423.428l.252.311Zm.485-.492.003-.004-.314-.247-.003.004.314.247Zm.003-.004c.18-.23.33-.486.44-.763l-.37-.149a2.709 2.709 0 0 1-.384.665l.314.247Zm.441-.764.01-.025-.372-.147-.01.025.372.147Zm.01-.026c.07-.18.125-.368.161-.563l-.393-.074c-.032.17-.079.335-.14.492l.373.145Zm.161-.563v-.004l-.392-.073-.001.004.393.073Zm0-.004a3.15 3.15 0 0 0 .04-.29l-.398-.035c-.007.085-.019.17-.034.252l.393.073Zm.04-.29c.01-.096.014-.194.014-.293h-.4c0 .087-.004.173-.012.258l.399.036Zm.014-.293c0-.16-.012-.318-.035-.471l-.395.058c.02.134.03.272.03.413h.4Zm-.035-.471a3.113 3.113 0 0 0-.936-1.804l-.276.29c.429.407.725.953.817 1.572l.395-.058Zm-.936-1.804a3.122 3.122 0 0 0-2-.855l-.02.4c.675.033 1.285.309 1.744.745l.276-.29Zm-2-.855a3.25 3.25 0 0 0-.16-.004v.4c.047 0 .094.001.14.003l.02-.4Zm-.16-.004a3.121 3.121 0 0 0-2.786 1.703l.356.181a2.721 2.721 0 0 1 2.43-1.484v-.4Zm-2.786 1.703a3.136 3.136 0 0 0-.34 1.352l.4.01c.01-.427.116-.827.296-1.18l-.356-.182Zm-.34 1.352-.001.08h.4v-.07l-.4-.01Zm-.001.08c0 .214.02.424.061.627l.393-.079a2.803 2.803 0 0 1-.054-.549h-.4Zm.063.633a3.176 3.176 0 0 0 2.218 2.33l.11-.384a2.775 2.775 0 0 1-1.939-2.037l-.39.091Zm2.218 2.33c.281.08.578.123.885.123v-.4a2.81 2.81 0 0 1-.775-.108l-.11.385Zm.885.123c.343 0 .673-.053.984-.153l-.122-.38a2.812 2.812 0 0 1-.862.134v.4Zm.984-.153c.245-.079.478-.186.693-.319l-.21-.34c-.188.115-.391.21-.605.278l.122.381ZM34.97 30c.088-.054.173-.112.256-.175l-.242-.319a2.782 2.782 0 0 1-.224.154l.21.34Zm8.84 3v-1.447h-.4V33h.4Zm-4.936.2h4.737v-.4h-4.737v.4Zm-.2-.205v.008l.4-.006v-.008l-.4.006Zm.05.197h.15v-.4h-.15v.4Zm-.2-.264v.067l.4-.006v-.068l-.4.007Zm0-.556c-.006.182-.003.367 0 .556l.4-.007a9.833 9.833 0 0 1 0-.533l-.4-.016Zm.003-.047-.002.046.4.018.002-.046-.4-.018Zm.077-.572a3.12 3.12 0 0 0-.077.571l.4.02c.008-.172.027-.336.066-.499l-.39-.092Zm.251-.652c-.122.224-.201.44-.252.652l.39.092c.042-.179.109-.36.214-.553l-.352-.191Zm.606-.704c-.237.192-.45.419-.606.703l.352.192c.123-.227.297-.416.506-.584l-.252-.311Zm.254-.187c-.087.059-.172.12-.254.187l.252.311a3.39 3.39 0 0 1 .227-.167l-.225-.331Zm.198-.128a5.238 5.238 0 0 0-.198.128l.225.33c.06-.04.12-.08.183-.118l-.21-.34Zm.174-.104a7.71 7.71 0 0 0-.174.104l.21.34.164-.098-.2-.346Zm.389-.216c-.128.07-.26.141-.389.216l.2.346c.125-.072.252-.14.38-.211l-.191-.351Zm0 0 .192.35-.192-.35Zm.125-.069-.125.069.192.35.125-.068-.192-.35Zm.212-.118-.212.118.193.351c.072-.04.145-.08.218-.122l-.2-.347Zm.018-.011-.022.013.206.343.023-.014-.207-.342Zm.016-.01-.016.01.207.342.016-.01-.207-.342Zm.003-.002-.003.002.207.342.003-.002-.207-.342Zm.031-.018-.031.019.208.341.031-.019-.208-.341Zm.54-.428c-.126.162-.325.296-.54.428l.208.341c.212-.13.471-.296.648-.523l-.315-.246Zm.012-.015-.012.017.317.243.013-.017-.318-.243Zm.039-.057a.742.742 0 0 1-.04.059l.32.24c.022-.03.043-.06.062-.092l-.342-.207Zm.065-.155a.559.559 0 0 1-.065.155l.342.207a.958.958 0 0 0 .111-.264l-.388-.098Zm.016-.113c-.001.04-.007.078-.016.113l.389.098a.91.91 0 0 0 .026-.202l-.4-.01Zm.001-.137c.008.03.01.065.002.104l.393.074a.645.645 0 0 0-.006-.271l-.389.093Zm0-.003v.004l.389-.095v-.004l-.39.095Zm-.008-.024a.219.219 0 0 1 .008.025l.388-.097a.609.609 0 0 0-.021-.067l-.375.139Zm-.004-.01.005.012.373-.144-.005-.012-.373.144Zm-.003-.007.004.01.372-.15a1.008 1.008 0 0 0-.01-.023l-.366.163Zm-.004-.008a.234.234 0 0 1 .004.008l.365-.163a.656.656 0 0 0-.01-.022l-.359.177Zm-.488-.273c.215.016.42.135.488.273l.359-.177c-.151-.307-.515-.473-.819-.495l-.028.4Zm-.059 0h.06l.027-.399a.92.92 0 0 0-.105 0l.018.399Zm-.017.001.017-.001-.018-.4-.03.002.03.399Zm-.166.035a.669.669 0 0 1 .166-.035l-.03-.399c-.09.007-.18.026-.266.056l.13.378Zm.02-.006a.686.686 0 0 1 .02-.013l-.21-.34a1.26 1.26 0 0 0-.031.02l.221.333Zm-.002.002.003-.003-.223-.332-.003.002.223.333Zm-.025.017a.69.69 0 0 1 .025-.017l-.223-.333a.981.981 0 0 0-.04.028l.238.322Zm-.115.108a.643.643 0 0 1 .115-.108l-.237-.322c-.068.05-.131.108-.186.174l.308.256Zm-.002.001.002-.002-.308-.255-.002.002.308.255Zm-.034.047a.58.58 0 0 1 .034-.047l-.308-.254a.947.947 0 0 0-.06.08l.334.221Zm-.004.005.004-.006-.335-.219-.003.006.334.22Zm-.025.044a.467.467 0 0 1 .026-.045l-.336-.217a.87.87 0 0 0-.045.078l.355.184Zm-.011.024a.487.487 0 0 1 .011-.024l-.355-.183a.833.833 0 0 0-.021.043l.364.164Zm-.035.11a.476.476 0 0 1 .035-.11l-.365-.164a.877.877 0 0 0-.063.202l.393.072Zm-.006.05a.492.492 0 0 1 .006-.05l-.393-.072a.895.895 0 0 0-.012.09l.399.031Zm-.368.184h.169v-.4h-.17v.4Zm.195-.156.001-.006-.393-.076c0 .003 0 .007-.002.01l.394.072Zm-.006.048a.468.468 0 0 1 .006-.048L40 28.697a.866.866 0 0 0-.011.09l.399.03Zm-1.662.185h1.462v-.4h-1.462v.4Zm-.138-.786-.061.564.398.043.06-.563-.397-.044Zm.008-.062-.008.062.398.044.006-.047-.396-.06Zm.462-.908a1.672 1.672 0 0 0-.462.908l.396.06c.04-.261.165-.494.355-.692l-.29-.276Zm.156-.148a2.083 2.083 0 0 0-.157.148l.29.276c.04-.041.081-.08.126-.119l-.259-.305Zm.001 0h-.001l.26.305v-.001l-.259-.305Zm.04-.033-.04.032.26.305.031-.026-.252-.31Zm.064-.05a2.161 2.161 0 0 0-.065.05l.252.31.053-.04-.24-.32Zm.059-.043a2.26 2.26 0 0 0-.059.043l.24.32c.017-.013.033-.025.05-.036l-.231-.327Zm.136-.09a2.516 2.516 0 0 0-.136.09l.23.327c.037-.026.075-.051.114-.075l-.209-.341Zm.029-.021c-.015.01-.03.02-.044.032l.238.321.036-.026-.23-.327Zm.766-.371a2.719 2.719 0 0 0-.766.37l.23.328c.193-.136.416-.243.653-.316l-.117-.382Zm.392-.092a2.904 2.904 0 0 0-.392.092l.117.382c.111-.034.225-.06.338-.079l-.063-.395Zm.471-.035a2.744 2.744 0 0 0-.471.035l.063.395c.136-.021.27-.032.403-.03l.005-.4Zm.197.007a2.712 2.712 0 0 0-.2-.007l.002.4c.056 0 .113.002.17.006l.028-.4Zm.003 0h-.003l-.028.399h.002l.029-.4Zm.98.255a2.783 2.783 0 0 0-.98-.255l-.029.399c.29.02.578.095.84.218l.17-.362Zm.297.163a2.636 2.636 0 0 0-.296-.163l-.17.362c.087.04.17.087.251.138l.215-.337Zm.708.695a2.317 2.317 0 0 0-.708-.695l-.215.337c.237.151.439.345.586.575l.337-.217Zm.313.9a1.997 1.997 0 0 0-.314-.901l-.335.219c.144.22.225.466.25.723l.398-.04Zm.007.355a2.258 2.258 0 0 0-.008-.354l-.397.04c.01.096.01.193.005.291l.4.023Zm-.031.27c.015-.09.025-.18.03-.27l-.399-.023a2.03 2.03 0 0 1-.026.226l.395.067Zm-.002.011.002-.01-.395-.069-.001.01.394.07Zm-.588 1.247c.299-.351.507-.79.588-1.246l-.394-.07a2.244 2.244 0 0 1-.499 1.056l.305.26Zm-.294.3a2.7 2.7 0 0 0 .295-.303l-.308-.255c-.076.092-.16.177-.25.257l.263.3Zm-.827.567c.282-.165.571-.342.827-.568l-.264-.3c-.225.198-.485.36-.764.522l.201.346Zm-.028.016.028-.016-.201-.346-.028.016.201.346Zm-.128.074.128-.074-.201-.346-.127.074.2.346Zm-.003.002.003-.002-.2-.346h-.002l.2.348Zm-.086.05.087-.05-.2-.347-.087.05.2.346Zm-.203.119.203-.12-.2-.346c-.07.04-.14.08-.209.122l.206.344Zm-.341.218c.109-.076.223-.148.34-.218l-.205-.343c-.122.073-.245.15-.364.233l.229.328Zm-.007.005.007-.005-.229-.328-.007.005.229.328Zm-.13.094.13-.095-.23-.327a4.063 4.063 0 0 0-.142.104l.242.318Zm2.603-.359h-2.724v.4h2.724v-.4Zm-15.884-2.039-1.318-.705-.189.353 1.319.705.188-.353Zm.069.295.01-.018-.346-.201-.009.016.345.203Zm.006-.233-.084-.045-.189.353.085.045.188-.353Zm.032.355.047-.078-.346-.201a4.62 4.62 0 0 1-.042.07l.341.21Zm-.331.473c.12-.15.23-.307.331-.473l-.341-.208a4.141 4.141 0 0 1-.302.43l.312.25Zm-.669.677c.244-.2.469-.427.669-.677l-.312-.25a4.18 4.18 0 0 1-.61.618l.253.309Zm-.319.24c.11-.075.216-.155.32-.24l-.255-.31c-.094.078-.191.151-.291.22l.226.33Zm-.707.4c.246-.113.483-.246.707-.4l-.226-.33a4.26 4.26 0 0 1-.647.366l.166.364Zm-.3.123c.102-.037.201-.079.3-.123l-.166-.364c-.09.04-.181.078-.274.113l.14.374Zm-.424.137c.144-.039.285-.085.425-.137l-.14-.374c-.128.047-.257.089-.39.124l.105.387Zm-1.792.121c.61.078 1.218.033 1.792-.121l-.104-.387c-.524.141-1.08.183-1.637.112l-.05.396Zm-.442-.061c.15.028.3.049.45.062l.036-.398a4.345 4.345 0 0 1-.412-.058l-.074.393Zm-.004-.001h.004l.074-.392-.004-.001-.074.393Zm-.036-.007.035.007.076-.393-.035-.007-.076.393Zm-3.74-3.918c.27 1.947 1.77 3.527 3.74 3.918l.077-.393c-1.806-.357-3.174-1.805-3.422-3.58l-.396.055Zm-.001-.002v.002l.396-.055v-.002l-.396.055Zm-.004-.032.004.031.396-.054-.004-.03-.396.053Zm2.574-4.76a4.623 4.623 0 0 0-2.574 4.76l.396-.053a4.224 4.224 0 0 1 2.354-4.348l-.176-.359Zm.074-.035a4.461 4.461 0 0 0-.074.035l.176.36.067-.033-.17-.362Zm.002-.001-.002.001.17.362h.002l-.17-.363Zm2.093-.44a4.722 4.722 0 0 0-2.093.44l.17.362a4.324 4.324 0 0 1 1.915-.402l.008-.4Zm.69.063a4.818 4.818 0 0 0-.69-.063l-.008.4c.212.004.424.023.633.057l.064-.394Zm.055.009a4.902 4.902 0 0 0-.056-.01l-.064.395.05.009.07-.394Zm.832.225c-.27-.1-.549-.175-.832-.225l-.07.394c.26.046.516.114.763.206l.14-.375Zm1.354.773a4.726 4.726 0 0 0-1.354-.773l-.139.375c.445.164.865.402 1.24.708l.253-.31Zm.248.219a4.641 4.641 0 0 0-.248-.219l-.253.31c.078.063.153.13.227.2l.274-.291Zm.076.072a4.663 4.663 0 0 0-.076-.072l-.274.29.069.067.28-.285Zm-.05.33.045-.041-.272-.293-.045.041.272.294Zm.065-.233a4.762 4.762 0 0 0-.066-.061l-.27.296.062.056.274-.29Zm.074.071a4.488 4.488 0 0 0-.074-.07l-.274.29.067.065.28-.285Zm-1.066 1.275 1.061-.986-.272-.293-1.06.985.271.294Zm-1.264-.633c.361.132.699.342.987.628l.282-.284a3.134 3.134 0 0 0-1.131-.72l-.138.376Zm-.47-.126c.16.028.317.07.47.126l.137-.376a3.119 3.119 0 0 0-.54-.144l-.068.394Zm-.479-.039c.16 0 .32.012.479.04l.067-.395a3.11 3.11 0 0 0-.549-.045l.003.4Zm-1.192.282c.382-.187.789-.28 1.192-.282l-.002-.4a3.15 3.15 0 0 0-1.366.323l.176.36Zm-.064.032.064-.032-.175-.36a3.541 3.541 0 0 0-.073.037l.184.355Zm-1.449 2.754a2.736 2.736 0 0 1 1.45-2.754l-.185-.354a3.136 3.136 0 0 0-1.662 3.156l.397-.048Zm0 .002v-.002l-.397.048v.003l.398-.049Zm.004.03-.003-.03-.397.05.003.03.397-.05Zm1.88 2.238a2.732 2.732 0 0 1-1.88-2.24l-.396.053a3.131 3.131 0 0 0 2.155 2.568l.122-.381Zm.106.024a2.696 2.696 0 0 1-.117-.027l-.099.387c.044.012.089.022.133.031l.083-.391Zm.036.007-.038-.007-.08.392.038.007.08-.392Zm1.226-.03c-.392.1-.81.113-1.227.03l-.078.392c.476.095.954.08 1.404-.034l-.099-.388Zm.27-.084c-.088.033-.178.06-.27.084l.099.388c.104-.027.207-.059.308-.096l-.137-.375Zm1.209-.868a2.776 2.776 0 0 1-1.209.869l.137.375a3.175 3.175 0 0 0 1.383-.993l-.311-.25Zm.243-.353a2.859 2.859 0 0 1-.243.353l.311.251c.102-.125.194-.26.277-.403l-.345-.201Zm.46 27.594h9.587v-.4h-9.587v.4Zm9.78-.252-1.062-3.95-.386.104 1.062 3.95.386-.104Zm-1.255-4.098h-7.467v.4h7.467v-.4Zm-7.66.148-1.058 3.95.386.103 1.059-3.95-.387-.103Z" mask="url(#a)"/></svg>