<svg xmlns="http://www.w3.org/2000/svg" width="65" height="65" fill="none"><path fill="#fff" d="M26.538 19.59v4.592c0 .203.078.398.218.541.14.144.33.224.527.224h2.236v2.296c0 .203.078.398.218.542.14.143.33.224.527.224h4.472c.197 0 .387-.08.527-.224a.776.776 0 0 0 .218-.542v-2.296h2.236c.197 0 .387-.08.526-.224a.776.776 0 0 0 .219-.541V19.59a.776.776 0 0 0-.219-.542.735.735 0 0 0-.526-.224H35.48v-2.296a.776.776 0 0 0-.218-.541.735.735 0 0 0-.527-.224h-4.472a.735.735 0 0 0-.527.224.776.776 0 0 0-.218.541v2.296h-2.236a.735.735 0 0 0-.527.224.776.776 0 0 0-.218.542Zm1.49.765h2.236c.198 0 .387-.08.527-.224a.776.776 0 0 0 .218-.541v-2.296h2.981v2.296c0 .203.079.397.219.54.14.144.329.225.527.225h2.235v3.061h-2.235a.735.735 0 0 0-.527.225.776.776 0 0 0-.219.54v2.297h-2.98v-2.296a.776.776 0 0 0-.219-.541.735.735 0 0 0-.527-.224h-2.236v-3.062ZM22.812 34.897h8.197c.198 0 .388-.08.527-.224a.776.776 0 0 0 .219-.541V31.07a.776.776 0 0 0-.219-.54.735.735 0 0 0-.527-.225h-8.197a.736.736 0 0 0-.527.224.776.776 0 0 0-.218.541v3.062c0 .203.078.398.218.541.14.144.33.224.527.224Zm.745-3.061h6.707v1.53h-6.707v-1.53ZM42.188 30.305H33.99a.735.735 0 0 0-.527.224.776.776 0 0 0-.218.541v3.062c0 .203.079.398.218.541.14.144.33.224.527.224h8.198c.198 0 .387-.08.527-.224a.776.776 0 0 0 .218-.541V31.07a.776.776 0 0 0-.218-.54.736.736 0 0 0-.527-.225Zm-.745 3.061h-6.707v-1.53h6.707v1.53ZM31.01 41.02c.197 0 .387-.08.526-.224a.776.776 0 0 0 .219-.541v-3.062a.776.776 0 0 0-.219-.54.735.735 0 0 0-.527-.225h-8.197a.736.736 0 0 0-.527.224.776.776 0 0 0-.218.541v3.062c0 .203.078.398.218.541.14.144.33.224.527.224h8.197Zm-7.453-3.061h6.707v1.53h-6.707v-1.53ZM42.188 36.428H33.99a.735.735 0 0 0-.527.224.776.776 0 0 0-.218.541v3.062c0 .203.079.398.218.541.14.144.33.224.527.224h8.198c.198 0 .387-.08.527-.224a.776.776 0 0 0 .218-.541v-3.062a.776.776 0 0 0-.218-.54.736.736 0 0 0-.527-.225Zm-.745 3.062h-6.707v-1.531h6.707v1.53ZM22.812 20.355c.197 0 .387-.08.527-.224a.776.776 0 0 0 .218-.541v-2.296h3.726c.198 0 .387-.081.527-.225a.776.776 0 0 0 0-1.082.735.735 0 0 0-.527-.224h-4.471a.735.735 0 0 0-.527.224.776.776 0 0 0-.218.541v3.062c0 .203.078.397.218.54.14.144.33.225.527.225ZM22.812 28.009h4.471c.198 0 .387-.08.527-.224a.776.776 0 0 0 0-1.083.735.735 0 0 0-.527-.224h-3.726v-2.296a.776.776 0 0 0-.218-.541.735.735 0 0 0-1.054 0 .776.776 0 0 0-.218.54v3.062c0 .203.078.398.218.542.14.143.33.224.527.224ZM37.717 17.294h3.726v2.296c0 .203.078.397.218.54a.735.735 0 0 0 1.054 0 .776.776 0 0 0 .218-.54v-3.062a.776.776 0 0 0-.218-.541.735.735 0 0 0-.527-.224h-4.471a.735.735 0 0 0-.527.224.776.776 0 0 0 0 1.082c.14.144.329.225.527.225ZM42.188 23.416a.735.735 0 0 0-.527.225.776.776 0 0 0-.218.54v2.297h-3.726a.736.736 0 0 0-.527.224.776.776 0 0 0 0 1.083c.14.143.329.224.527.224h4.471c.198 0 .387-.08.527-.224a.776.776 0 0 0 .218-.542v-3.061a.776.776 0 0 0-.218-.541.735.735 0 0 0-.527-.224Z"/><path fill="#fff" d="M53.18 29.54h-7.266V14.22c.41-.047.788-.247 1.063-.563a1.75 1.75 0 0 0 .428-1.147v-1.148c0-.457-.177-.895-.491-1.218a1.655 1.655 0 0 0-1.186-.504H19.272c-.445 0-.871.181-1.186.504a1.746 1.746 0 0 0-.491 1.218v1.148c0 .423.152.832.427 1.147.275.316.654.516 1.064.563v15.32h-7.267c-.444 0-.87.181-1.185.504a1.746 1.746 0 0 0-.491 1.218v1.148c0 .423.152.832.427 1.147.275.316.653.516 1.063.563v20.677c0 .203.079.398.218.541.14.144.33.224.527.224h40.243c.198 0 .388-.08.527-.224a.776.776 0 0 0 .219-.54V34.12c.41-.047.788-.247 1.063-.563.275-.315.427-.724.427-1.147v-1.148c0-.457-.176-.895-.491-1.218a1.655 1.655 0 0 0-1.186-.505Zm-7.266 8.419h2.981v1.53h-2.98v-1.53Zm0 6.123h2.981v1.53h-2.98v-1.53Zm-26.829-32.72c0-.051.02-.1.055-.136a.184.184 0 0 1 .132-.056h26.456c.05 0 .097.02.132.056a.194.194 0 0 1 .054.136v1.148c0 .05-.02.1-.054.135a.184.184 0 0 1-.132.056H19.272a.184.184 0 0 1-.132-.056.194.194 0 0 1-.055-.135v-1.148Zm0 34.25h-2.98v-1.53h2.98v1.53Zm0-6.123h-2.98v-1.53h2.98v1.53Zm-7.452-8.227c0-.051.02-.1.055-.136a.184.184 0 0 1 .131-.056h7.266v1.531H11.82a.184.184 0 0 1-.131-.056.194.194 0 0 1-.055-.135v-1.148Zm1.49 2.87h5.963v2.296h-3.727a.736.736 0 0 0-.527.224.776.776 0 0 0-.218.541v3.062c0 .203.079.398.218.541.14.144.33.224.527.224h3.726v1.531H15.36a.735.735 0 0 0-.527.224.776.776 0 0 0-.218.541v3.062c0 .203.079.398.218.541.14.144.33.224.527.224h3.726v6.889h-5.962v-19.9Zm7.453-19.9h23.848v39.8h-5.217V43.316a.776.776 0 0 0-.218-.54.735.735 0 0 0-.527-.225H26.538a.735.735 0 0 0-.527.224.776.776 0 0 0-.218.541v10.716h-5.217v-39.8Zm6.707 39.8v-9.95h4.472v3.827h-.746a.736.736 0 0 0-.527.224.777.777 0 0 0 0 1.082c.14.144.33.224.527.224h.746v4.593h-4.472Zm5.962 0v-4.593h.745c.198 0 .388-.08.527-.224a.776.776 0 0 0 0-1.082.735.735 0 0 0-.527-.224h-.745v-3.827h4.472v9.95h-4.472Zm18.631 0h-5.962v-6.889h3.727c.197 0 .387-.08.526-.224a.776.776 0 0 0 .219-.541v-3.062a.776.776 0 0 0-.219-.54.735.735 0 0 0-.526-.225h-3.727v-1.53h3.727c.197 0 .387-.081.526-.225a.776.776 0 0 0 .219-.541v-3.062a.776.776 0 0 0-.219-.54.735.735 0 0 0-.526-.225h-3.727v-2.296h5.962v19.9Zm1.49-21.622c0 .05-.019.1-.054.135a.184.184 0 0 1-.132.056h-7.266v-1.53h7.266c.05 0 .097.02.132.055a.194.194 0 0 1 .055.136v1.148Z"/></svg>