<svg xmlns="http://www.w3.org/2000/svg" width="64" height="65" fill="none"><path fill="#fff" d="M10.672 16.862h2.076v2.942h-2.076v-2.942Zm4.845 2.942h2.076v-2.942h-2.076v2.942Zm4.844 0h2.076v-2.942H20.36v2.942Zm-9.689 5.708h2.076V22.57h-2.076v2.942Zm4.845 0h2.076V22.57h-2.076v2.942Zm4.844 0h2.076V22.57H20.36v2.942Zm-9.689 5.707h2.076v-2.942h-2.076v2.942Zm4.845 0h2.076v-2.942h-2.076v2.942Zm4.844 0h2.076v-2.942H20.36v2.942Zm-9.689 5.707h2.076v-2.942h-2.076v2.942Zm4.845 0h2.076v-2.942h-2.076v2.942Zm4.844 0h2.076v-2.942H20.36v2.942Zm-9.689 5.767h2.076V39.75h-2.076v2.942Zm4.845 0h2.076V39.75h-2.076v2.942Zm4.844 0h2.076V39.75H20.36v2.942ZM10.672 48.4h2.076v-2.942h-2.076V48.4Zm4.845 0h2.076v-2.942h-2.076V48.4Zm4.844 0h2.076v-2.942H20.36V48.4Zm9.877-17.181h2.076v-2.942h-2.076v2.942Zm4.844 0h2.076v-2.942h-2.076v2.942Zm4.844 0h2.076v-2.942h-2.076v2.942Zm-9.688 5.707h2.076v-2.942h-2.076v2.942Zm4.844 0h2.076v-2.942h-2.076v2.942Zm4.844 0h2.076v-2.942h-2.076v2.942Zm-9.688 5.767h2.076V39.75h-2.076v2.942Zm4.844 0h2.076V39.75h-2.076v2.942Zm4.844 0h2.076V39.75h-2.076v2.942ZM30.238 48.4h2.076v-2.942h-2.076V48.4Zm4.844 0h2.076v-2.942h-2.076V48.4Zm4.844 0h2.076v-2.942h-2.076V48.4Zm23.34 3.06v1.942H.732V51.46h5.033V12.802c0-.53.44-1 1.07-1H26.4c.566 0 1.07.412 1.07 1V23.04h18.495c.567 0 1.07.412 1.07 1v27.42h7.172v-2.766c-2.14-.294-3.775-2.059-3.775-4.118v-5.414c0-2.294 2.013-4.177 4.467-4.177h.692c2.453 0 4.466 1.883 4.466 4.177v5.414c0 2.06-1.635 3.766-3.774 4.118v2.766h6.983Zm-9.122-4.766v-4.648h2.076v4.648c.944-.294 1.636-1.118 1.636-2.118v-5.414c0-1.235-1.07-2.177-2.328-2.177h-.692c-1.321 0-2.328 1-2.328 2.177v5.414c-.063 1 .692 1.883 1.636 2.118ZM25.33 51.46V13.802H7.84V51.46h17.49Zm19.565 0V25.04h-17.49v26.42h17.49Z"/></svg>