<svg xmlns="http://www.w3.org/2000/svg" width="64" height="65" fill="none"><path fill="#fff" fill-rule="evenodd" d="M34.361 24.54v25.084c0 .13.023.2.034.228.01.026.021.04.037.054.023.022.183.154.622.154H59.31c.44 0 .6-.132.623-.154a.139.139 0 0 0 .036-.054.605.605 0 0 0 .034-.228v-25.52c0-.13-.023-.2-.034-.227a.14.14 0 0 0-.037-.054c-.023-.022-.183-.154-.622-.154H22.927c-.44 0-.6.132-.622.154a.14.14 0 0 0-.037.054.605.605 0 0 0-.034.227c0 .13.023.2.034.228a.14.14 0 0 0 .037.054c.023.022.183.154.622.154h11.434Zm24.948-3.271c1.819 0 3.031 1.134 3.031 2.835v25.52c0 1.701-1.212 2.836-3.031 2.836H35.054c-1.819 0-3.031-1.135-3.031-2.836V26.94h-9.096c-1.819 0-3.031-1.134-3.031-2.836 0-1.701 1.212-2.835 3.031-2.835H59.31Z" clip-rule="evenodd"/><path fill="#fff" fill-rule="evenodd" d="M17.557 38.73h8.402a.533.533 0 0 0 .198-.052c.104-.046.214-.117.311-.208a.858.858 0 0 0 .181-.228l.002-.004a.53.53 0 0 0-.032-.171.14.14 0 0 0-.037-.054c-.023-.022-.183-.154-.623-.154H8.462l-3-22.135a.826.826 0 0 0-.298-.489c-.137-.104-.248-.11-.311-.099l-.034.006-.034.006c-.427.066-.672.25-.766.358l-.005.006 3.023 22.616c.109.38.429.602.732.602h8.402v10.471h-6.064v.871h13.514v-.871h-6.064V38.73Zm-12.82-.152L1.705 15.894c-.303-1.418.91-2.836 2.729-3.12 1.516-.283 3.031.852 3.335 2.553l2.728 20.132H25.96c1.82 0 3.032 1.134 3.032 2.835 0 1.418-1.516 2.836-3.032 2.836h-6.063v5.671h4.547c.91 0 1.516.567 1.516 1.418v2.835c0 .851-.606 1.418-1.516 1.418H9.285c-.91 0-1.516-.567-1.516-1.418V48.22c0-.85.606-1.418 1.516-1.418h4.547V41.13H7.77c-1.516 0-2.729-1.134-3.032-2.552Z" clip-rule="evenodd"/></svg>