<svg xmlns="http://www.w3.org/2000/svg" width="64" height="65" fill="none"><path fill="#fff" d="M26.028 47.066H23.89v2.178h2.138v-2.178Z"/><path fill="#fff" fill-rule="evenodd" d="m24.344 35.937.923-1.714a12.162 12.162 0 0 0 1.04-4.871 22.236 22.236 0 0 0-2.186-7.6l-1.055-2.315c-2.229-4.665-4.823-8.933-5.018-9.254h-.001a.834.834 0 0 0-.675-.356.816.816 0 0 0-.676.355v.002c-.349.572-8.252 13.567-8.252 19.168 0 5.547 3.586 10.069 8.13 10.556v17.098c.01.21.1.407.248.551a.793.793 0 0 0 1.105 0 .823.823 0 0 0 .247-.55V39.907a8.498 8.498 0 0 0 3.52-1.285 8.68 8.68 0 0 0 2.65-2.686Zm-6.972-16.422a.79.79 0 0 0-.564.238.82.82 0 0 0-.233.574v10.315l-1.484-1.4a.79.79 0 0 0-1.127.052.822.822 0 0 0 .05 1.148l2.553 2.4v5.445a8.388 8.388 0 0 1-4.89-3.236 8.671 8.671 0 0 1-1.643-5.7c0-4.247 5.406-13.873 7.338-17.177 1.93 3.304 7.337 12.93 7.337 17.178a8.67 8.67 0 0 1-1.648 5.7 8.388 8.388 0 0 1-4.894 3.233V27.568l2.159-2.074a.81.81 0 0 0 .251-.564.824.824 0 0 0-.214-.58.795.795 0 0 0-.553-.255.782.782 0 0 0-.57.218l-1.081 1.033v-5.021a.82.82 0 0 0-.23-.57.79.79 0 0 0-.557-.24Zm35.997 2.23-1.046-2.307c-2.05-4.292-4.411-8.247-4.921-9.103l-.09-.152a.832.832 0 0 0-.676-.355.816.816 0 0 0-.675.355c-.336.552-8.245 13.564-8.245 19.17 0 5.547 3.586 10.068 8.13 10.556v17.098c0 .216.085.423.235.576a.792.792 0 0 0 1.13 0 .822.822 0 0 0 .234-.576V39.909a8.5 8.5 0 0 0 3.507-1.29 8.681 8.681 0 0 0 2.64-2.681l.933-1.718a12.16 12.16 0 0 0 1.03-4.868 22.233 22.233 0 0 0-2.186-7.607Zm-5.946 16.54V27.57l2.16-2.074a.817.817 0 0 0 .036-1.145.787.787 0 0 0-1.124-.037l-1.08 1.034v-5.021a.82.82 0 0 0-.246-.548.79.79 0 0 0-1.1 0 .818.818 0 0 0-.246.548V30.64l-1.484-1.4a.795.795 0 0 0-.574-.211.785.785 0 0 0-.553.263.814.814 0 0 0-.208.585.826.826 0 0 0 .26.563l2.551 2.4v5.445a8.388 8.388 0 0 1-4.894-3.232 8.67 8.67 0 0 1-1.648-5.7c0-4.248 5.408-13.875 7.337-17.178 1.932 3.303 7.338 12.93 7.338 17.177a8.671 8.671 0 0 1-1.641 5.696 8.388 8.388 0 0 1-4.884 3.237ZM30.821 14.642a4.342 4.342 0 0 0-3.097-.637.824.824 0 0 1-.613-.156.854.854 0 0 1-.324-.846.756.756 0 0 1 .333-.474.729.729 0 0 1 .274-.102 5.904 5.904 0 0 1 3.673.52 6.054 6.054 0 0 1 2.672 2.617 5.435 5.435 0 0 1 3.488-1.286 5.434 5.434 0 0 1 3.496 1.264.75.75 0 0 1 .118.948.685.685 0 0 1-.962.132 4.113 4.113 0 0 0-3.074-.756 4.16 4.16 0 0 0-2.71 1.658.745.745 0 0 1-.601.302.747.747 0 0 1-.148-.028.815.815 0 0 1-.4-.194.838.838 0 0 1-.242-.378 4.485 4.485 0 0 0-1.883-2.584Zm10.667 34.602h1.07c.182 0 .358.074.487.205.13.132.202.31.202.497v3.585a.713.713 0 0 1-.201.498.689.689 0 0 1-.488.206h-1.07v2.882a.713.713 0 0 1-.202.498.689.689 0 0 1-.489.206h-3.52a.679.679 0 0 1-.488-.207.705.705 0 0 1-.2-.497v-2.882h-9.18v2.882a.713.713 0 0 1-.2.497.688.688 0 0 1-.489.207H23.2a.679.679 0 0 1-.489-.206.702.702 0 0 1-.201-.498v-2.882h-1.07a.678.678 0 0 1-.488-.206.705.705 0 0 1-.201-.498v-3.585c0-.186.072-.365.201-.497a.683.683 0 0 1 .488-.205h1.07v-2.178h-1.07a.684.684 0 0 1-.488-.207.71.71 0 0 1-.201-.497v-5.38a.71.71 0 0 1 .201-.496.685.685 0 0 1 .488-.207h21.118c.183 0 .358.075.487.207a.71.71 0 0 1 .202.497v5.38a.71.71 0 0 1-.202.496.684.684 0 0 1-.487.207h-1.07v2.178ZM22.13 41.687v3.971h19.736v-3.971H22.13Zm17.977 7.549v-2.178l-2.14.008v2.17h2.14Zm-3.52 0v-2.178l-9.179.008v2.17h9.18Zm-10.559 0v-2.178l-2.14.008v2.17h2.14Zm-2.14 7.17h2.14v-2.179h-2.14v2.18Zm14.08 0h2.139v-2.179h-2.14v2.18ZM22.13 52.822h19.744l-.008-2.18H22.13v2.18ZM26.2 20.484c.559.063 1.076.33 1.457.752.38.421.598.969.614 1.541.01.193.088.376.22.514a.78.78 0 0 0 .498.24h.079a.76.76 0 0 0 .48-.166.785.785 0 0 0 .274-.434c.071-.258.193-.5.358-.709a1.955 1.955 0 0 1 2.127-.67c.158.05.33.035.479-.039a.662.662 0 0 0 .324-.361.694.694 0 0 0-.023-.46.677.677 0 0 0-.305-.34 3.072 3.072 0 0 0-3.437.532 3.972 3.972 0 0 0-1.227-1.352 3.883 3.883 0 0 0-1.69-.648.773.773 0 0 0-.748.342.808.808 0 0 0-.095.8.765.765 0 0 0 .247.314c.108.08.235.13.368.144Z" clip-rule="evenodd"/></svg>